<mxfile host="app.diagrams.net" modified="2024-03-01T15:04:42.826Z" agent="Mozilla/5.0 (X11; Ubuntu; Linux x86_64; rv:122.0) Gecko/20100101 Firefox/122.0" etag="sRt1JbLNkwEuoNINxt5k" version="21.5.2" type="device">
  <diagram name="Page-1" id="evOdAhaDbN5yyam28JME">
    <mxGraphModel dx="988" dy="563" grid="1" gridSize="10" guides="1" tooltips="1" connect="1" arrows="1" fold="1" page="1" pageScale="1" pageWidth="850" pageHeight="1100" math="0" shadow="0">
      <root>
        <mxCell id="0" />
        <mxCell id="1" parent="0" />
        <mxCell id="QxVZlHa8dsObsXTahdKc-1" value="" style="shape=image;verticalLabelPosition=bottom;labelBackgroundColor=default;verticalAlign=top;aspect=fixed;imageAspect=0;image=data:image/png,iVBORw0KGgoAAAANSUhEUgAAAugAAAIICAIAAACzfIxFAAAAAXNSR0IArs4c6QAAAARnQU1BAACxjwv8YQUAAAAJcEhZcwAADsMAAA7DAcdvqGQAAP+lSURBVHhe7L0HgF5Xeef9nHbb26arFzds44IB03s1BgJkAyTLl55syiabBEiyCRBSIXV3QzZll2w6JCRACqHFYKoxxuACLtiWbVldmvr22075nnPvO9IUWzOSJVkzc356dOf2995zT/mfTowx4HA4HA6Hw7EWoIO/DofD4XA4HOc9Trg4HA6Hw+FYM5yoKiLvJ+WKw+E4gWGDlXkYXST3WUJ5whTLFdW4iaHIU37Yr0RxbXZfU0+aqy6/5oH6HYYT8GhCspxJEKA9I3zKmDEqU1JJs/x3HA6Hw7EU82PGlbg4HI8L4jNa91g18Co+WhhEw9XhuqiZrs6mE5iVZjavD9eHRofCKh70w2oUVCKCIQ8zDUW2AbUOcbkGh8PhWB1OuDgcjwtpVKKzVKHlaHkujTT9Vu/I3sPZI/3+wd6hBw7EWWyozlWWyVwZlcmMEKLBaK2NtqrFCReHw+FYJU64OByPC01BClCCaE4Jo/jPKNOd68ojGbQBYj13cLrdbmuiDTWEAePMgCaUgLHCBe9AADeccnE4HI5V4YSLw/H4oAa4RjOoWKgxFFQus06hWhRwQlUrTbppYuIMUsWU4VqCNKhbin9oVri4IheHw+FYHU64OBynhjZmodl2KlqDVmCUMUoaGedxnuTgA60D8dAoJNBLuoZqQ3QmU1vYAraspYCQQr44HA6HYzU44eJwnBqFVjmB3UWJDUmlMcM8Wt0abrpyZGR3Y2zryNXXXgGbgQiCpohSoEXolSUtReMW2za3uLHD4XA4VsYJF4fj8YHSRRHQBIwCoiTLEi+uX1BvXNqAbcTshLFrx6tbfRbRnGQSUk2kIVrbYpZCuBhrgOZwOByOVeCEi8PxuGCK+DllalDdo5jJo7wbdZq1VnOoNdtoHQgP55BJkoMwxGNAdC5TO4LSfP2Q1S7lmsPhcDhWwgkXh+MMwxmzmoQApRTVSZZleW6klAQI5yhcwDaIcTgcDsdp4YSLw/G4YIZ4igpFUKRYUUIhyVQSZkklzXyVBzIeTrlPNNG5yQ3RqGsAlc3x4hZ7jcPhcDhWy7ke8t/PA8yD2u4VYDAqx9/HncTQoqYf86dUUqmYLE8+fWyLgZU0GXG5XscqKDWG7e/MuOK4TQhH3yoJSDxEjCdTX6W4qdmgp5CgxMsqPA6mD86xOX7xpZfeP3pPceQkDMLCWoQQQhdXdtnZD3AHvlC5RNBpzPwrao5yTdO82HCcaTDmQ6fWQA3DGJUCw6+DDm9AG4zviYlk4fJ22HQ0lNRUaS2pUUwrvKycekJX7S0wksRPSRXG1sUlaPhFbZOsRiKKOyB2aU81SlKtmFJ4fjH9xSA8OM4oFDC4UfyOdmio4msMMHZkhjIxlWY9p25PwJD/hVsfN1vNb21+T3G0jNscjvODIsov/tqYYt4ULouI2QoOewotmucWS2199Qk2oo8uHW3eymQTrfyLi2LVcXY47sqFO897V6XpwOvmDHIKOTM5LfQK0Sg09fFGV8XlxZhEaKV/LzrvY1Jo/bvVP6A1XpszZZe00CuFFTfBy4vG5jZRdZx55j9vQbmx0AaLdc65Fi4GPbcdzcIKfxuuBj7cbtrwYTNqG8HZHWuHef+If3UZkZd+2PrV0rsWfaEL1WLj6nJZRNr2b9nreQNSupt9/WVYR3HB/OwziFoH3rWMYHEThYu0ZiTTaKVCwTMHV+HfQrgwY/27PVIKl9LwqC0uN3lxrWRqcJPiPgtuUgYDx1mkiFtOsKGc+1wLF8ml4gp9OQaIMrovQleRJHCNRzGMDU51OM4DuAKmbBks+kzJpORZzlPJMkMy9M5gJJ6ioa6ILylRDBQHSUEVWtz6bkwD9IaLwZmh88aotkZsedTgaFG86ipqzxZM2RoiKzCIrbjBSDVn1opKHIx4IReQeZAVy1To1ENfbctL0MdSTbhiQjJCMgY5N8pT2pcQSMAlmqfA09ZyT2eeyny0LPXSVGRSpIpJexND8SZFvarjLFCIUfsXKLP11wOzoaxI0Muj65tzLVwGYqWkkPbHozPLwqMOx3kA1ZSWeUcrQ0qzGU9MGbgiQhGmBTUBNT4BAYTiCTaNtrlU+69ovFXcaCNh20VoUhglhg1sYWzjgvlZo/ByS3xsYbgoi7oMt1bGtgtOwCP2b3E5im+0ooSFgmG2WZJmdgWFSZkw2mYGxQctb2oLIO06evpiB373BZ/bceYo0syiXq9sGFpkDKzhRy/22sV655z7rdK3l0HlxN/5tfKQw3HewIo249ZXlv7TWhExAxHa9ifiSjAdUPAGwqUoI7cFioVPtlF6mYpsJJghaLZlqG0fiqqFE8A0D92uAN1jwznJuaPwrsXkV0usWBTJm7CGXwRPGnjpwuw5ttknXm7LDm2DLfS/DIDbL2jlDq7b84qEcf4ae1O0sgS99Pblp8dtx1lhoEuLIMYMKy0HO+DC8aPrmxN+i1F6chuc9zjB25St1iWwnPs6DHRIbdm6DQL20Nlx9CXv8qg2ONXhWIAAzgvvU0TghWF8kXHeosGMCA4Ts09nR4zXjyJdgdQWMBTxd1HiYmN4mwws9GalDe6+LjB2ziaNVuQBbRcjKo2OZcQi2VOQMap8on2b8mH4xwBemuPsMChusWvzFgN0bI/OKK7VkxF/ZqjW3+T3R6AXggwgLc6xnVWA4rcrwD1GMWl78wc0bQRqzJdjvhoVeoSZIWrqQasatet+UoPYh4zYCLwssSmz+1Ye2Q3HmQfd1bb/Nx7zhPZiGpeGR7TU5bdb95zzCBR/UAHTNCRh1VS9xOexV9HViFYwa4tqxgYAh+O8oYiAi9LX+eiAmbCaVsPpML0zbn651/3KTHzHpD6QBj0W5gLTbKaLVoq22NxSZEU3Fj5wJsEkWrXzrJkRJYjGLD4Kl8IR0T02nJOcO6x/RR9belf0hrZvMsUsYr0/HE43KseGth7ZMrF3rLGvNtocGY4b0LP91+01tqRQKyoVgSBt1PKRaK7amBsebU+Mt7cOTY/7ByvkEU73c3HYH34o2nxwePvs2ES7EXYClhWZT6tdbPvFssFv8QSOs4AAxhkjnNtgdQLNbGRDMJytd855/FEEJ5s3w8CidJpmQgjOuR1poMijbgS16FjzEKK07s/l6hgA2myap0npd0u/vcHBjDuqNqkUoKv0MucmTyBG23ojzxPG6GazeeTI0SOHDx88eHDyyJFut2vH8Xq0RIBQipFzf2ZmdnJqcnLyKF529OjUoUPdA0f6Byb7B6eQI0eO4FIpxTnDmw+udJxtilSSYhgDaIrZwc4FGAx0651zLly6QCTxTcgzz0uDqq6xnhCpTxMBdrZ/W1zpcJxP2G7Pg4b6GGUYzhJRiWtjvTHvCIWDAJMAc9Doh8N5UMkESw1mezBOsefa4hq8csOJcW7bDALX1FZSzAFIFDLCtgsq4tyBOc4Ottvz8X4l6OAZhFllSI7yySC/M1NfjeWNbfW5NtyUmG/G4aQYhuFK5tGi75uiJrM9nOXWqap/Xwq3avqNTH+lFX9qKv/0DHwxhq8A3ATwRWC3KPX5fvKFDr0/H2qF1cQPMzYIJWTQ0dpuOM4GGJKMacv2YHMBMtsQdRbnXCZkwAnXsekcas3eNznz4LGpBybjuZTlTIBHbEtGp1wc5xW6GMWiTGsJaE5z4SVBNa1V2pVKjwUphxSqmRdKHiom7IilaFa3lFcNCu03EtQ2GwSPe9YNEqDKdn840TjXcTZB1VLOPV5oZxBEhFChfdE7GMNDGRyBcCoKpypwwGR7EnU0q+rQk4KV3hQXFDRVo9OCP5iQR2B7t76l2YgO6OFpb1s+sp01RoxgPfAOSO+Qlo/oqTvbnYebofQ8VXR6xzsU8bg1x1mCgFJ2fPktanu5Y6NxzqMSYaegS+MYjgLsAbgfM6wqSWzDIjv/nE0lnHd3nP9ghscopbQtj7HJgy0qN7ZMfsng9xsVTAYJpeWMkta1Brsd5xzGGKVUSpn3+rbmjvPQD9FwPwruJE1tbdEy0G+nKTACtXnGxsa2b9+2a9eunTt3bt3awHN83+OYgMxCdy4v+7M4zhm6yEwdYQeLrQFCLWryso45IVyCdIzFNZKHYDyVYrYRFAp3qUWm/YREcdkX6HETAOmL3e1L/G/X6Dcou4XBXTA2VRmWkcylifijhqJTh+Fb+JLVUmhkysdQaHLlUUW5TsRIMhKkasfMaJBAJW8YiOyA2IwIhZtQySjDz0/DDdHGybESLU/1UYzkPu+HkHLIs7w21xw7NDc81R7qxxQSo6AHcagOe4eP1Ka7NVvFzG0BTMXXgeJ56vUxKC2xwd3XBWVHIjRMvayg0+YYT+RYkCYG0IFiqGnOoa29FsasmMDRjIp4o8Sw555KMmQjwBCgChCBxGi1HQ4di6oPCRQZ9Zaa3Tk9s2tqV5pffAD4nflkNDE30cgjW6nppTZvCX6UHqv1DwKtR/2Lh6avhcPf3Xngpw9+/YfvvuWNdz3wpn0zb+iHFzxzBkYzEqH6kR2WZJHR1WK8QXwERWzFP97LcebxFNS6+I1siuzn4+VORKihnG2U+b9OCBeWGNlJoZ8zZTNJtj0dsR7QjkTETM7WWp6pKKK3Ntgus322Y2qZ/5uqzOBSqZYt45nf6XA4HGuaQc0mLjAmVxCQUMemOdXqdmzBtu2T/swL1RWbjoXsGIGkl2UPT0MTWIfW2tDoAusy3mbxXAoJiGFRuVBUL/aDC8NoLPA9UYVoiIyM8fErIn8XRwGaoT4R2oQy97Qkxo7Mi6nKYIg7x1mFozLdoJwQLiTVupmYnrbdkkvhUhT4apQv1Mg1WGGJT3zc4G0AP51tmvY5Y0Ytbr6E2V8ULq7jg8PhWPvo4w3JC+3iay+eiycPTSftBLNzQS2o7B4XO8dkwxavyESRfTNBU9VzL1Q8Aq+mQy8mndku3oGNUtOQspbRqtFM6UyzlHmZJxJushbkbcgVpiFhjXHbFLfsD20zjY4nBj8c/hBFG2yuX068IVcE2kAS8KjglA3qLG1DLdvJX64tp8BnX2IFWmvO+NLOmdrYQXtciYvD4Vj72DGEEBQShZYwfdOZ7uQzsa26YTA8MdqvUbOpZjZFxAedgjmcmMmkloiK8SISRBmHVt6b60ME/pjfZs05mMm82DDtgRfoQMQ8noxnjz2SZB2fm3AUxiZ8SqQdhM4OX7Q01nU4zjgn9EiUeRADy2hgPI8IO3R56fnwFGpnCx2ct1Yo6rk02mDbYmz5JaFq8bsYO9znYN3hcDjWMoqhgFB2MM8MwiT02x6ZpdAtSkM4iJGIqn4tAH8k8gnQNlT2w6a9OuiEUldjWpVJ0G+TPFbQADMup6uHW9GcFLmQrN6v1ZpVcUT0Hux+O2wfi6C7DfKLIN/Cm6Ife1nOil9RAJJbczjODgtKXPBfYrv8qFwzwm2Cj17wRBK/OLE/zykkV/n4C5/btq7P86W1XpRohUF9bZUpOZ4wyvbjWuuiaNx2JbJmDxTFdgY9FHq/opmqpTiw4SjG/scwVfQlL0aWdJwjNNF2okRNQuMH0tdtnTczOzwuBRaJcLg6hpokkyNR5FGP5yDmIDnSzfomBtGjXjvVMBvnWQJDjNWJLObxFsD9XsDmeGd/78iDR1r7YytLNgG/2GtcMaZGgpiqjBfD9aL/V0RIQHOcFQjIgdtu3GB1IrVmhkMOjHOZSkaYLawoKUSALQNcW8w3zh08f4EVLlm+VKGUrV6YEy6OVYNeC4VLIe4L0VIuBmZnC8EdVsds3CS7mPQGHaFoKup0yznEUF1oRhqRMMj9bDbNZ21LWxAMbbbfTA8cbj/4SNbpMk0CA5Ue9A6rXitPWRAzP+nnMGOIINXRiFQMCI3ZWN8I1ub9/cmxe4/NPdiFPphtAFdH4TXbxe6xTgiy4aNwQc+PCQXTqFpQu8xHu44zCjrrvHDZuJxIrQ0Uo0WVU7naJS025+tK0dYQ80lIqV2OR5u44gZGcjxOUI7YFmC2oMWmz/ZPMd65TS1wwwlgxxOKYgrFsw+iEoeixeUhCdMGUkKUUEmy96GHZ7+yv/2VA8ceOTSTZ8y2boT8MMxO5QpqSlZgfw77gY+zaEeoKpITGmWety8it/v517TaA6QJ0SijV+wWlz6Jjo9N5Vkn7hcBwHp9jF25Bq8wx9kmFVODtQ3GiVhWoq62aXwxTZMVLoRpO253abaP9NqiEC5WceHKAh5VuFRSF8gcpwa1eVqgjBFm/9hxTOxoJmXZi8PxhGGYQX/oGc5joaZkPplCSkF6tocFA5NqnYDsgVYgKyZjngRBJaip3OvwoWl24d3aOwh6QotxlutcZ6AnSfp1AzcL78Go0a9MNGq7Lxt79tBVV9Gd2+aCTW1/KKtGMmC5bWCgKGTM9IVGGzyQw3GmcdlDVC12eAOH49SwxS1FKQtlYAcnLWqHTFn44nA8YRyvpsyyrNPtJnEKKKkZC6LI3zQKm71oC4jNABPEmxivRnYsEJsM9JJut9ftduPYxode5AkhcplLqeN22jk822618K6403Z91mp6evro0aMH9h84fPhIq9VKkg0ws5/jvOGEcFE2twjFHCO40xaAs6L4hdvJ0qytJYriFvs6g+0BdrPor+dwnD6Fr7LJQzFHK+eMCG7li7FDApk1VzbpWGfYSn4D0she3p+NYRao4rWwvnP7zqc89ZrLnvGUC56+5cJrx0dfcPXm510T7djcBeNFHGZNfrApHmrt2Gsun4Ngk6crUkvNJLHznz8savHQMIzRlM0ebj9w1/TRf/tm/sl78y/uh882zR29cE5VU8qKuYqUgMzTaIPncZw1Fo6cu6GwfR/Ktef99GU3P3i//7SRdLsHNQZ5C2SMnpALzFSazIBIK+WZx7EdKxZASCF7FoA3P37/EmWCGhkffpBM33JQ3pJWFfiNcPNLdspLxMNbJnsTkzzjvH/K0sIOxLKA3KicAi/GydVG50TC2+xjTPzKRL+eRTNpb2jRcNQ9XwDNRGbKsJYwDHusSIUWPbxjI2KYLVtBvVsqegOB8FWWxW2p5gD6YIfHCNFvgTcGVNhuNBwgyCp+HM3snzPT9JKLL7l3632Duz0meu21f19AWUFWtPKx+Z+wXwlIKBM19/A0zMHWp+3MTNbj7STsG3SrCE8Fb9YrLj0FtFqaFp7GKA1L4or1R+zxBmmEk6Rz92TvYWlnhUNX2gbeswL/8kaHdKqe1r0EUlFR1ebdnfwWaU84BpWhiSCNsjkZhqH8ubiGUXUM+Wx66MGDcHdmJ/rOwPayRmmO3yEorOz/fAmMXTsajQex10v8XsbzvOgK7Wen/okXpymrQS37nqfxiVczlfXyHzpVbByy2McuTyKFFJrYubUV1bZnO/4oE8U4xAJTY5B0LOlHrf7BCUyhBCW+5K3BlWQcPBj+Gzsi/Nz3nLIzriHMj5kTwuVZv/ikW/fs8a8eziYYiSjomFPFdJ7pHN3AUKB6qS+0HSsWYCOvpZ/FfpjBeoHRLDSjjX1s7o4pdWsWUUYDuvlFW+GS4MCWmd7ILE0I7S++ySqw/RcWoKide4hr2yIenyCnRv6cbYe96VcmukNppaN6ASY4J3DCxfGYzAsX9MwYS9tOE5g6ozxR2igMPnawIEuglKeUsUOJhgLCrOLF0exGFS5e5vnUU33T3tOGaRh7yiYqSCqS1O/nPFfcvimTdrKVU2JJZIKsJr1ZAj7iYG2dkjFSIbWoybN9veRYnPWMLQ0cguCiiGzze6bLiCTSeAaFS6V/KE33ZqYNYVoL0trcfdNEie07d0x/71Gf+0JxntD2sVZ7/xxLiJcJTwmuGNWkH2jNtdTo3yXfwqo7K/6QSLw49fATY7prn0TYcV1ODX3qI5gvacWInMYnXo0CVo/b49j8z2B1gPXSi3+aK66JkUzh0uBj4QWow+wIsJyRALVLI8u8bndywkfhQgxXZnZwJamDp4f/xiZtG0i4XP3OnXftORBc3ZCjAsVEnnaEzimo1DofimfU2ssE5xJ1bJ14sDoA773EQwiOEXrwiGnf04HbrHj36jD27BF6UTC1uZk2+lbUo50iS/oy42PZjtDSzukmCDWMxm8dCJfZaivoax0uKtB3wsXxmKDvQa9d+ORSuAgmtJRGSkykGbX977SCjGY5psd4KgWfQphXvH40e2DOTG1E4UKk9jGbmLLunhimYOLKCWUUJpW5n2QsyXxNMA956sF8uQOdThX2kqRj3YHxtK+DShJ6LUb7VlRTxhKeZHWV1WQMMUjrlSPCvNwXvSBKqqZL6nKos7+/79YHg2jokiddsudV9xppfCNCCCDRtA+B9v1coJRhmqIZP0y1zHSMkaYM89xPM5pYbSoSVC2qUCz81HvtnnqBy6MKl8HK6jk3wgWD+NJHW/a7DPUgMYqicCnSU1yiJbhkHq+YnIW5ZEkyNxHaUe1tIGqWFxY9ydTw31gX3EDCZdOv1Scf6FSvqPu1MOScxSmRMjVZLyKZR5LAMNUrzzzOkoJbjLyWKF1Uz0uSflQI0AcyTZIDBh4oPlsEwZN9b4sXD/fzQEFu1cwps8Q7lJ88hUYqGhnjhj38a/bhUbjElSSLU/z45YklTrg4HguUvehLS39dZphQuKg8V1Khb6coXGz+CIWLtFPKM1usi3+PVxWRaXrxxZd8e8vGEi5SKeGBn4jugzlMwoWX7WKYDTc6kXFqEhpSvyEOBZPFpacA3n+wNs9plLgszeGuO2iR06Q6ojogiuMnwWhMmsSwhIhcgk7RFZnNimIM6augijn1hECPzh1qxg/HEMLEls1TLzxmUutU6OetScIkJgHU9lgyBL1qJd+MQUDhDwRMsjzRMQiDKwqN2CTVPslyTbESp1HislxPLCmAXw1PmHCxidWi+xojjJ2GRuliom0E3dz0Dfhj5aaXNiMayV5uVEiM39oc2L0SU839+LecqGgjCZdfHZm8b65x6XDFD0PDRZxn3V4777MdIzAUTpleQNrlmcdRiz2ZFS62SP0EhXBZtEcQZRIS6Sr0WTYHAY96WRxO+LRukrCTerHOiMlP2YPk1WqY0JEWhDNp3km8oSEIvTTgxqP9fr9dm85/wZ5W+Z3l3sbihIvjsaDaZh5LH4nxDq7YGXAxE2sHWLNdiaihRJGMpBlG7UV7cI9CkFf8/gnhct8GEy46VYEVLsHc/QkchosuvgCz/L12b2pmKpP50ObG1t2bHh47UFx6CthBcxZzGm1c7Gzw6xrf5Jg+avwLvrYq2hSzs+WgE0YyRk0c2KnZiAIiiWc834SRiEwfsq7UiUbhTRk9fOFRIw1mYPM4Qz+NWVkrX7QtyyhDgdcbxs9NuDVlR0TLpUEtj8ltUcdR+ofyz6mwvoVLmfNZCKqWJZ7aoAAsPo8hGCdovERoZvq6WxvMBT3ayTwlZg7P5HMB0TzfVef1ahDyrn8vHt1wwmX7b207dPfh4V3jNe0HOU0PzxzZ38spjD97U2XXxCHoVcjSsW5Oo3FuwJSMVcCHGER5wj0RJHkOAQaRNGfdnPeMYkad8iQX/epwvQf1Iyk8NNc6DCNbPNKIYLRCG2En6TUnjjjh4jg92LxwQa9gYxgDmNG0PYkwUtG4amhOBGHG19rHfJI9jWNEj8KlLHGZohddfMn9G0y4sExVGKXdYPquPuyDHbu2tvZ3+3N9OSkxyzlx1cRTnnH1rSO3F5eeAssbXZ5GictpNP9cW1QgkcASwlNgOabIxjBmW40zmbA8wZW8EUgptTQBDzgmkxmgpgxFhJKFAZeZStOktyXFqypR1Ot0tNG+sNWj6PvxO5edNVmnKoSVOFmeKq2YYLiOaS0eK1Lc4lEwPJwiG61xrhV/i5ULas1SsthVsO3BPM1I3xwZGfz8BXOCYKh66EiGQqUNcJmA7Zvqmxrtbffg0Q0nXC5755Pv/9q3GyNjMCvVXJ4f7GU9ECN04lm7/R0jx7zU04fKM4+zRJQUbr1oj43IFotfYcsfUeijP+Eo9zUpRu6yXkJSkzFb4MUUKSpI51lSkvaodERQT8SmaRLfeXjmETuqP6lTb0d1+MIJGrKDl99/cuHSD32DwiVRTrg4lsAL4VJS+ga7nPeSuM4VxSxRzrKcD+Jr9GSRjKxw+bUZ/nrvokue9ODmpcJFLY2g15VwaXSCOkqXxJ+6d6717W4E1fhAbIO+NMTnm7dv2bR90zd33Flc+rgg8gw4Gj70YG1d4OlcYnyKMoIvqLzXBt2KK42eNLG9LE6MFfEoL4850DyyK2WUbuualD3PrpSFBgYjx+JMe1Kxz377cvPxeOQlqfijgDdffP/l6mg1H3TJD63mmZeEWbzDKfucZSUuyzEY4RQCB89Ep0ShwxR0/2XpMDnh5ZTcC2HLzNQNjHrBrrHkTYdx/4YTLle+9fJ7br8PiA8HUtvJs2N30mHgF9boeJg0CKTHihMXQBcpjEeJfAtvv4jyu9lvsmAFz0ErT0ZnX+IRV/MJ8JKUDbfDfE+3NwUmR4kEUAOYb3Bd4oSL41QRRTtD60MH0XLhH4/73kK4cGWFi5oXLggKlyCOZn/Vdk180i9c+dCmjSVcxrvDlayiuubw3ZPpg0mjOtY61IY4h8xACCO7Nm/dveX+8T3FpY8LuqyD9GmATz1YWxdQkmqCmUPMCy7I9NkRuYxtPm5Qc5TxtsHo3/6xS6tIioqdQdJa624+cWigV8pzikvA9DybQpQ/YOd0NLbeFFeLBNfuG5x4imi9QgtHbVl027I9zSJWVj9LH+wJbOOyBGV4cZ6NEAjRAh0+g0Dy1scH2mXTaxtVWjnw8GFxO1R7cGwYYMKrbx+pNtuHH+4PX2V/YQMJl6f+wlV33nlPFI71j/ahq2EyhgTYCK1fOeFvbfSHiFkmXMjSEjl0rEXuVfixRXsY9PBDKGrnAVNWVbKyYQx+KYbhyaAvxCCwyIOsptYzoSbKgomW3793eu5QlqPn9wEaEFxYH58YiuO56U/YYOaEi+NUOQ3hErTqQ7JRT6oP/A+rV17wX557366HZgMrYo6zvoXLcLNWzWsYLGcfaLYOd6/eek1/Kjl6+Fj3yDTmKLZfeeGlVz/p/rEHiksfF6dRVbTuoZBhWi5Ru1ByvHUsxrGFcDGYIBYtVUrPXCgS67etBy+FS+kL673NhVgp9sxLFjthZnFD3Oz7XVwpW7HYFNZ6AQwhxRL32HX8f8qfZ2kp/jJsOcdiXfIoemL5nsUYjb+z6IdWI1yK/oUnsLdY6WmXsBrhYqiPTk1sCokpoUatqXq5l7EHL7QOjly1d6xCo733P9y5uTne50e2BpVdExNbR/jRyW/dun/DCZerfnnH3XcdnLjsIsKqaSeP9x9NpzvEk6NP31Tf1pilXb7MN6AsGayVDKrlFrHYj6EuSe2nsWHEBhZULhiU7Owa1ufgN2JgZDHI0QmWeNNHpcXTUVmpNb1Ddx3q71V2QvaaF26JJrYMHdj6EP8yxB+zpznh4jhVPGXjNGsYDc9rl4EV60xSLlnOM42paLF/eG7bXPWoPfqLhX/6Pevr2GKVv76Fi+jzEAKSsJkH52DKXPbkqyAjc83ZdnNOggy3BiM7R6b4dHHp44IXCefj5FSTn/OclGO8qm2UqjFiHbwapu6YXVSYhSckWtSlclCIYtcKrTFA215HJ3x5uVzg2pqXd8Fr8friQuujbcxut4sT8QHsn1OBLRnZ4tE58RjI8qYnK3/QZZJjVcKFL/ql5epnRWwWfbD6mOR5UT80X+KCIavCw5kFsceWLvOVd/jAYf2QGQ382Z3R0MRYEAaPRN/Eoxuuqujid0cP3ReHV4yy+jjnQdrtxzPTkM2G2wJviLd1F1jplU+w7KuhWy9yLyvDF8uO0rtzZUWKUNa7GGU9vCQsR5VEPGZStmQgl1UIl4ypMIdaWps92JNzGjYP88APqmQ4JEeJrfkr27hs/tXNnXBpJ8zYrxuaOuHieFQ8WcRphWqxwqX0jGU0guuFcLH9QVlm5ktcNnUuPBbss2sLhAuyULusb+EiieKCQpfK+yQcg+qVDS44CEh4PzFxMbQwOkdx5fnAkk+x1sF4Gt8oR81t49iSHGNVdHBhvS5bNPrmo6MqGL8Xa8eXpZXrSOlox+NmXCn3l3vK5QrVPo/G8Rs+FuWvLOREqJpnNR90yQ8tv+1ylvzQai5ZwmouwQdDw4+FS/xFjGFsaRmRvdHBcTqNOSWTQI4JVsSSYRSqHgY5SG233w0iXE58ijJmybM8jvuM8Xq9Pjo6Uh0Z5pwrhUKDWIG52KiNp05mRXSG32qhDRbHl6gNrDwYHESNWXQzXYCVtSuBPlVpoJQNj4yMX7B986bNw8PDnHEp5ej0Cb21XLXk+aCPmcNxpogq4WBtAUtKXNY5Reimth64SCk5E0JgZKBkkU3hwNCFjod6Z2fc0JExXi1yXqVZnTy/Xx/fWezH046v2P3FSnnmieVCO77/JHb8zFO1ssD9JIbnlEn747HCWy6yJSesxpbcYZW25CbLDbP2peHLFisqAymNUtM0s202wyzwjEhHmN4cJPUKxCn0OqhaOGX28o3BiRKXi379wofv2Vu/rMaHKIlIR3eKUYcLp7SnDP6sDYxnjeBnz1D5MDkocVleVdTX2qB0KbwUTQcZFMyaGMya4DqGPYfjpNjiQ21ztLYxTBExDc9unasWDcIWlrjQol8GL/JSGJIK30UUYUowbYtsFHrTtYnNnxCb5iEMwxEFIiGUlbBfOfrtSTgCW54z0a+2u2FinciAJ23blBiDmMPhOFUwEGXAGInyoCLDo8GgB0qYiTjMhz9oY5u578EweTJsZdTjTs810fqJKCdeVFW0noQL0R41viG5JqltR4OP/la7H4ULy0Ml7LztJVnG8yojNDdUeakRRUKTMK44o3aWK6dcHCtAbaNyIqlRZUxg2ObJ7VSLg1seLoXLS9/08m/suk2N5sBNTrLMZFYQF0k4t6qFU00VzVG92MvXIIOS1SImGRSTKupLP4prx+6dkkfS7c/ZUQiXjmI2ohOSoVZLxFp9X4fjCUQzonOMOPxKHlby6FDFtoUoCWQQfsQ2tFj3wmVpCcT6AD8auufASRc1KUO3XlLvavPIRZOpwinwVNtYuLwBftnyNs6cPbYRUDYAo+dBn8OZ8l57wWvmjrUbn9pUuWqsOj524FtH2wdnQxJx5UFKMM2249cVF9sBuwhmD5T1dwvvubbMhhcMPicMQ57NE+GyCGPHz0TBVuwso80Fd3DmzNkqzaZOZTgq1hbA7LQjBWXYO7mtZYrUet1he5OVPfTKL7vgLTFzO1gbsDC2LU89bks2nTl7FLONdotucrhOULho8f7+/4lnm61HDvemp7uzU3seuM8OcBkTmhI7zK4RPvNtDGS9H16oDUX5ghHJ0juvZcMgaN2k7B6Ly3JQ7XnD9bJezZkzZ6dq82FqkEKdgGk7tiCCB05ua531WVWEWVuufEVzyVM76BI++3+z+8feOxRDH+iJMuqeplCltv0BUyQZDAshGQFe9CpyVUWOFUHfhbFHmSYr4WVRJroTD22fvPkAPKyhR4jw6H/Og4mKV+UJT5SXk8CksmjygpShas2ErUdj4Yswaod30lIYqPSG5+6dgyMw8pyJfqWbhP2ygozkjGim+alPD+1wOMr2lxQwqqll1RnvRI+TMG8EH7UjlrXfXIbJk7HyGStxflQVLXiA42pmzYLPXxZLL0LqPKTFUNbHoUAEs2XYGIsWWrYwjFxLO77HmbOTGnqewmxXGoAt4fjo0DhEVAS8EYVbGlvRj2lQnFPGaZ4pUrbSXXiH9WE28tCeT1SCIVDaSDawK3bgs/nwZavUToQ1Z86cnYph2MGUrahoXtLygfiDJM/WNiy28pJFtpZBN1iE7cKMr4msce1iy9KWfRwRiLpXH2wU+KHnVQLwWZmK2EEojnsOZ85Waehh0K+hVCZGCDtF6LVDT/+Oq1/z9J3XDKva9c94+fOGX1KrVfGoNopQo/NiVgq81AMvRE8IzFt8w7VlC4MMOoTRAoVLjm+nvZqAClA7aU4xyM3y8505c3ZKVg6DFIAXcBFgujUgiitkfuiPJeOSoJVhbqGtaRZUFf3ahQ/fu7dxeZ0PUROYru5IXjQ5RLOnDP6sCbhixbx3SjJlvzQ++8/Y/Ze++4K0p6fGT8ynH/bG8iqVJE2zfoMIYYePpiljfcGE0mKliTMcDi7o1E8tnhNrdYz+acNIg0Z0Mc3FqU7Ydh7D/d7cXL5TbO4fkEe/PX3hc3fH1bgb9BRTxDCRh0xzTU907nM4HKtECt2HOPylx4wuxLUy/4bNPp1xkt9blCCeH92h15FwYdoOrSHLoTXwwTWFt9rWKu/4Xz+/j03+a/8D5WnI9/g/FgeacJXJ2M+UZ4ePpgmjMeeoWoRr4+JYCaLNB37sg4ONU+GN7/9uTL9DFvk8kJAmahUDmq4ReNhRWo3lW47d2/ryl770n97ypk7Q6/qlcOEij/DFga6f93U4zhnGIxlTn/6Jjwy2zyFOuJxdHku4fO6uT8/Ue1lvUVYv93zimTTvVxUR+MIGhQuLBXPCxbEaMAUmyihmglqVsRMltwvJp9BHGk21EYWBSZKEaMIU50YwwxTN0QZnr30yc8z3/WC29u2bHv7EJz/5c//9bWSCDUpctBUuXHOzmpHnHQ7HYhQ3scl8LUgPRvwTLR/ui++5LLziB77/O3E9efPSiCidbw1T3zuWHG16fqX7tFa5B5mf0/vUcMLlDGMnGDMgqVUs9sGlB2+3XRg+eO8Hnrfzpf0j3cu3XFKemUjdtQN/qcT0hogQRbvBlNI+4QKUsM0WHI6TwSQRtqvvKXPv4YM7J3ZGLABpMpLZqWXWC7E6VGGRmROf+/BXPvShD/3Rn/9xdfdQj/WlneyPCxNx1HvECReH45SRoDuqR1LwJB8XI4O9BW+54bs/876P4kq6TLgkhXCZSC7wDsn4rqNy2G+9qLtZb56GSfClthNZPQq2Ente0yxcLzkvhMs1P3/x3XsfGn/yaFJXuko6tGtYkQW0A4PaMozHeLXzkaLJANPzWVg/Z+kv2s+GwuXVO7+j+XBn94XbykM6zamv0jTzZQCxZ+eGQLidqEwLMGvnlR3nDAwxaHp+IhhOwISnmQbnPT+KmMxtnmBV0+KeH2DoslkajEOLNvC4iSEGI0YbNxZSvxu2uqozoTd9/C8/9uf/788/8E8fbOyqYrQnpRS6anvw5cU0fg6H4xTJVV/Ao8yGhhwXLq3vLncsZVPz4vj2yeS2ptrMwpcOV0bFLJ8mNZnFixTJY1HvVaWXKaYklTlKFoy2VnXdGWaRcLn6Fy66676HR65uwBjTEbSgbef4QdadcOk+0t++e3N5KFOpYVmap0KLQNZIblMPI3QmMsqonerW4ViMlSvF/1K4UH6aQ9fHPSIEodRwjuLniYgAThdCNMYaxk61ZJe4g5UDzOliRiYDzaCZ6rSRND7+1x/7l3/91z/6P39Y311R1F5FlE8zwSSDihvy3+E4ddLHTIlPIlxMMFbtNvzDuvn5g/yu1OwA/crK6PZ6059hIyruDmTAyan2IyVyzTQKF2kjv/NAuFz1Sxfd/a2HG0+pi62+Ds2cbppyoLb1JVxetfM18SPptt2bykN96CtINSgPvEBVSG5f0gjVZ10G3M6X7XAsRpelCgUoXTAR5yg/CM20DS8e5WpZZzTMnZS1SWVBBcIIQ7GCZ2Z5RijxuLeGVDIBiU5ghYtVKfhKlBV9oogyXGKcQmaDNgNW1dVvfu7Oe+6557u+7zvpcN4jma0hAo9lQUQ9NwCdw3EakMeenvQkwsVnu0d649m9zelPPDxxiGajdO756dbLt9PtZhKOyVXnvgIpDAoXIlUxifgTL1wueffuB+/ZV7+qzsa4CaGlWqYcHR9zUUWTkaIwYm1wEuFy/c7X9vcm2y4YCJcjMDkLk3hFCqkPPgc7ZHIK/T50KiCqxabDsRA1kB/Hg6wWdqBllkAilaSUMju63CKK1H0RuI2yGHUPiubBrrUDSi49MBs9EDshNC5tbCIUYShgWKVChmsmaB9st9udzZeM9b3OftiP5xM7BbtoQN2DmcHtHA7HqkmMTIFE2h+j441kkJBlYezF4ULhwohW8wPMepi30pv0QZp/u6m/0hqaErJGuk/N/Isq0ZOCpJ5Ir6dsj1pLoFkqcszK0/hRknxPY/i2mTdttMIA/0SogkXC5cLf2r13/77RS0YSPyMh6UN/EKUOpkSz898WJ64BlguXvGhB8HfX/9Wrd36HOUaGN9XKQ/94z0e++uBNsq56Wb9G61zbJCcV/djvVHIPrTzN4TiOwgB7HAzExjA7bwhkaYZL338UP6PmQ9lxGGNZlkqlGGWM4w1spctaAcOXLqZKQYewsxFhcNOEauCK+MA5YS98yqsv2Xp5w1RN21RqflO1vtW+4zP33XAsnRFBoDJWERURO+HicJwyUoKO2ebappdd/Yorx6/yMHsQN0U1uDu553/8x+8fFy4YIHlRNIzZLE241xuL90rYn4V7yMRB20Rm37OO8okwfFJgJkwimgLz7pRGuUDVIoU2KFx6J1QJl3ZdY1C3g9nZ5i1aa1v5+4QLl52/u+vo3NGRHSNz+RwNac4yZRYKFyoxZlojnES4XL/ztZUk8oJBadsv/fO7/ulLH1KbbdkXySlFOQmQi37id/ETOuHiWI5SylYNEVwUI1Ji3mOAHXYZdcjySp/lnQ1lnnsFeLckTZWUj9WV+jyEGIHCxZa42DiRGg1UU6aJByyknsf4L37Xb774spdUIJw70ty8eWQqmb3x8A3v/8z/uWfqAR75eWYExVxBe3A7h8Oxajwa0Za3bXjbW7/77S++4CWQsW7aCWrhHrPnvR97Tylcmv+f7e6DsQ6m7rZrLXAvJqYThN2wMhWJvYbcmiY/QrJKlowncS3lRtIMpB3smiS2SBR/BqAN1I7fatFGFwUXhBUj8eJ9i1HAlWZPQH5rkXAZed8WRaRCvcJyRSUm44MDhWpBKYA7yx3nP8uFSz2pTZjN73jTu1698zuqSYWjQPHhEbX/j2/843+65cNz43MJRdnCefGRFU1yL7HZyfnSs8cCk67B2mMwSNBOyhm5yYpYnYzp6klBET1YewzOyE1OjyWutBo3OTcOu/z65b+73MlWdKVz8/DLWc0nNhJVilUtNm60ERnDPA4z1CccUlWPqr//zN995TXXhTqskaDfz+JK73OTn/2tD//GI/RQxmUqFWWCwaKuWKf3Oiu60mp84xm5yYqs+CvI4/cVyNkIgKvxFSv+7hm5yemxxN3OiGc7vZusyPJPvMRNIhkMzdUmws3v+u5fffmOV3iYu2Y0MemD6v7f+dRvf+SoFS6+4Zi0E2JQv6SYH4eA8Q43zJNVNu3Lvfnoh33zbju0UitqK1+LtmC5YMU07hmPM9QuKFzwZ8v3w+W8lWLArgC1wqVsT3JuWSRcqn88oYnExB7N0FyhxrKn2EP4rGAwT7W+hIsH++Uj7/vC//7Hr/3T7MRcyjJCONXMloLRVHLbRRW/YnmHxwIj7cHaY2BddyXPfUZusjIrRxpWRA/WHoszcpPTYokrnT8Ou/z65b+7/DlWdKVz5CuWs5pPLO2ADjZw2FPtxJKYWcPAwolA4VKNKn/0tD+47ppXhTqqQhijcKn2bpz8zG9+5DceZgcynuVaEcYppIPbFZze66zsSqvwjWfkJiuy4q8gj99XIGclAJ6RgH9GbnJaLHG3M+LZTu8mK7L8Ey9xk0B6tbnqpmDLr73p11+5/Xo/9QgjqZZ7zLff++n3lMLFU1WGooUoA1pSwvSi9rzj77BDEUy9t1duIpLltq+fprZNCI9zniuv+NXyl+2blitF3XBRP4QrGu//RNTDoHA5Ie4ypjEfpai243vaVncDClfExVLXXAcwVG0E31cplmv8VDwvpzcqp9w0DDQ3JzfF9clNW1t61RJbcslyW81NVmFLb7vcll2y3JZestyWXXJmbNmvrPxDSy5ZbmfEYQ2aWGRa6CW25HfRltxkuS05f7mdIV+x3Jb+0HLTQhohgaPlIPJyaUSO8V0u8gz3FMUxZbOdIu4YxB5FWJPApOHZ0nue1ussuclyW3L+o9qSS5bbkvNPz5bc81FtySXLbcn5j2pLLjlDtvRXltuyS5bb0kuW27JLzowt+5XT+aEzcpMVbcmvoC05QQqVcZlzqWzLOkpsLS2aoGA7KtpgZjSYEHRAtcc0F3b8+BXgSmBWnxhODcdbccVsGljqlVKyzHM8O1/kW4pdTwQnhEvuyVwoyZWimHLbR6JFJRk+ID45irfytPWDtkOVonYhgELNlnzZCWxR7xoilOfnhGOGMFvBaEZPbiQjSy5ZbksuWW6rucmKhjdZctvltuSS5XZGbnJ6tuRXzh+HtYMWLjW6xJb8LtrSmyyzJecvtzPz8MtsNZ+YSDt+57xpkApyhSueVGhRjvEHvqGkRmEo47bUmXqKcRu9YrSHgQxjFrX0nqf1OktustyWnP+otuSS5bbk/NOzJfd8VFtyyXJbcv6j2pJLzoitxlcsuWS5nZGbnJ4t+ZUz4tlO7yYr2pJfQVtygtKmF/QzJjFRpiCoJBjnYIIltM80G2k3MHFLhOh7PGNguwavblKw2I9jL814JvHOFG8OLAtY7luTPlUeGhg70qTVA3ZU+iLdfII4UVVE/roOpoiKihn3bdVVccSm7LY3NEV/Z7fXAitUFaUVLhkwmMv2/u5N7/vgNz40uWU2w1wj4TQLPUVQ0Fi/YNSKVZgrVjnjHc7NTVbEFtOupD7XWS31uXFYDOFoC1n+u2Xz/oWs6Ern5uGXs5pPDCYt3xrfAZeUMFDADfGLqqJ6VPmN5/7Oq69+baiqvq5DP0tq2Y1HPvPrH/2NPd5DGDmmGPtyOtRZVHx9eq+zoiutxjeekZusyIq/gjx+X4GcjQC4Gl+x4u+ekZucHkvc7Yx4ttO7yYos/8RL3EQK0ofsArj4d17/+6/f+ga/hS5rB2nY4+/9jU/9yg0PfXq2PiOjzaAlqI6vU3Rymg160ZYsryrqj3cgxlsTO8Mf5kvwhhzCzpApSlhsS1yiDdXFGP9l5gOX6ARn5WOtyKKqIofD4XA4HOsSEy6aXXgRa6377IISl/evoIXXEExTrpm03aOsGqWKVfqVzWbzr7zx3a/b+R3VuMI0AwH7+EO//8nf/eQ9nzxSm5RhLnNb1YeXG6IU5pHRYc68nnY41jxCCW0rlLUtjaWYk7ZltbZXEYSQknpY/91n/ubrnvIGX/shVHSmu0Hn85M3/uqH3v2geEQGKrUlu8ZWMDkcjlPEIyLsVrb6W37rDb95/dbrwjgCQjE0PcAeeM8nfvuzD9zYrDb71T6mcV7uUzvkkiK2igf6vMMlr8+Ntm+Lt30uOvYeOzu0HQfcdj6y9T5oxWZRhIOcr8mfK3FxOBwOh2M9k3q9frUz2FgXOOHicDgcDodjzeCEi8PhcDgcG4hj/2VVXY3OW5xwcTgcDofDsWZwwsXhcDwubBs+Y3uHlpvHh5tzOByOs4ETLg6H4/GxoPfBasbqcDgcjseDEy4Oh8PhcDjWDE64OBwOh8PhWDM44eJwOBwOh2PN4ISLw+FwOByONYMTLo+PEMBDN2RhLoJceNIDykFQO/UDBWGgHoejnbHh7nijO1HrbYr6m6rZRDUbruaVmuR1BQ037rnD4XA4HKvGCZfHRzFDLi1m0CR2Js3j/Stsxwrck/M89vqx10u8fir6uYgzjpbkPMu4zjigORwOh8PhWCVOuDw+DEGjxnYALaRKsfP4FgoXJmO/b1WL18u82AoXkWQizUSec5074eJwOBwOx6nghMvjQzKqqFDADFCj7VybtuAF1QwFLZjyCGcmAkALDPgSvBwEmjYcj4MqzOFwOBwOxypxwuXxoQk5XlUE2qBwKeuLDCWaMcWJoqBQ31ijObCc8JyiMQloVAJxbVwcDofD4Vg1Trg8PjShaChc7IbVL8Ve3KLUMKYFLYWLAlLIFJZTkTM0npNSuFAnXBwOh8PhWDUbRrgQOxg5JcX7oro4Q3KBACPWDW39kClbtmgNiYQEaroyoodG28Nbjk3smNy64+i2bYe27ziyc8fkrh3Tu7bM7ByenBieHRuLJxilS2xw9zMKvv45+BWHw+FwOM4qLvV6XBggGo2AJgaXtrzFlr1QZpjpybnDU/19MRzk+gAxBykcpvqQ7j3c7+3rx4eTfFbTvidkVNzJ4XA4HA7Hyjjh8vggqFoK4ULnS1woAcoFcN3N5/b2577aOvKZw4c+c+jAFw/s++r+vV/dd+irhw995fCxrxybvWO6fahr+mxwK4fD4XA4HCvhhMvjg1LNSMYgpyCZLXGhGoQilZxXYgbHAA4ROAJw0K6wI8yutAGaANMALVvDxCvB4FYOh8PhcDhWwgmXxwelaLYBLlpZ4mIM1SYwrGp8lgOkFDJ7uBEN7ZzYtm3bpvGJoWirDzsBtoCsqi5BIeNwOBwOh2NVbFDhovhZ7Mxjiq5FlFLGira6uO2J0dGxCy684LLLLtu+ffuuXbu2XbhtaNd4bXhYCK+46KxjysdyOBwOh2Mts1GES57lKCRylXdUpzndsrsoaEU8EWWpMpRIibtQaHBrpqj1WU1Cb5pExVwxqgLQXNth5yDz0y5PWoZmOqzkZiw3vJLOPe3gva/f/4XX3H/n6+fue3V87Jn9/LIZsuNg1zzEmE9AaE2VokYzY399idkWvysg7Btx5Xt5leoQCLPzKAnwUrGzu7U8JYprdTkU6ij8bz6afV00YsuJuGbCjYXncDgcjvOejSJckt9P7vutb3PCCSFDY43B3rNOnIJIoO7pMDzYaNwqLri18qQ7Ghd/ozZ0V2T2N9LeaMrOWhuXolCJUqLUoHjJzFNuOhwOh8Ox5thgVUUaGD2nvXg0+Dmt51k4/XDr4Zv27P/iQ/u+cP+BL+6Z/vqh/oOtbocaWh2cesYpZiBA4XKocazcgQpGae2Ei8PhcDjWLhtMuBhgtnbk3KGJn0Ilj71s2sj9Rj8E8gGl9uRwAGBWmzTUdh6js4aBPksH6/gwqFrw/6rqwBwOh8PhOB/ZWMKF2mmFzmGybYBQCdAF1oVhRXZReSHIXZDvBBgHqACQLsm7g5PPOMSWuETqRFUUyhZb3OJKXBwOh8OxZtlYwkWDRu1Srqvs7HQsQlVwXBgQyiBhug08C3aH48/fVX/+pqGX7Gy8cLv3rBH/0spQ3dRFbgtCyuHrVtEG9xTAu9FFnYkYY5Qxp1scDofDsXbZWMJFGXXWq4rmZYEVIYQSnXLoAMvYZiOuqMqrqvGTRHapH11aaWzzPdYhccdoO6d0MZUSUlx4plgsXDiCwuVcljk5HA6Hw3FG2WBtXM41QgBUUIsEIP286XfjoTxtpLiEmuI8ibQcOosDyjgcDofDsd5wwuVsQlJjfDBVL6HeQyy4OW58KR25WY/elMNN3c5t/ewo4aw2ONnhcDgcDsdKOOFydtGgcsjTWHcme9MPHW0+dGz24cMzDx1p7ml39kJrtujl43A4HA6HY3U44XI2IVqbYQUX+tkWf19Y+TqMfgU2fYVsvoX4dwHsA92q5TAY1tbhcDgcDseKbCzhQomdFHGwgZu5Z3yphxI1nNnhVIaVrMSSx5oTBjWgHHxYZGKpbe7BpkSOZclonkwkcnOHbG7xHbIyzEg2OglXQv78qf41306vOZJeE/euhpmnwLGnmaNXmfQSgO10TGzacmirr/IlFhm10AQ3dvx+fEK0CkC1MHweUozZX7Y2DuweKVLlpSRQ9kzcTyHhdi6DEq6BGWDHi3jKEepwZ2muza7D4XCsR2yfDwayGEWd2b6lOZCsMAkEdxaxv+3bWqQo5VQz5zEbusSF4HfLsrjfl3nxvTAhR/dARUKKYfJzDSkssiKlX2jlqCjWynVtskzGcZwkCWNEjEPtguGtl1640HZefsm2Ky7cdMWuHRdeNDQ8XPihBfd5DLP+Cn/x+Eq5XlJuIkV/JDs8bpZBouy74EvxE5+4GbqZqB0Oh8OxttnQwoUGOtB+2AsrLVKNodr0R2ZHJprbhqaGK1NhkFQ85S20QIZL7NgYL8wrLDw2XpndUpsei44OB1MT1fxJo/Gzs9kX7l9oMy/Y33zxod7LjzVffHDv1Xd984Kb41p4cjPM81MmMk4zAZkHmU+yCLKA5kGY1appLYpD7wCvHg43zUxsndsy1hqvtWteT7CE+3i+w+FwOBzrhY0lXLTR1X5lsAGwJdn6sX/4nPfgBLthjH96U3hglKRicvjQ3NajvZ0zyUgni7Jad/i4Re3aEoM4GliCFkAcQBqCroGqQCKgz6TGv3KhpX6aeGmPJz0WxyJJ/QRatZNb0Kw15uqNudqQNVyxNtRsjLSGRlqNxiy+U5wNye5QfGx48vDooenGVGXS8z5ONv37yO4vbnvaLU996r1PefIjT7qguR0F0Fg2Mnh/h8PhcDjWGhu6xGXkFaN7b9578OsH2ndMNe+bki3FpBgcm2dm4hjuLE1Ib4kNtUsTA+vwxowaabORLh/u8tHEH+3Xh1sjC21obqIxO1afGo6ODYVHGsHhxnjHO7nVY8/Pl5gIci9Qfih9kS99ZoQnLL4nm7pzZv+t+/d9fd/Bbx44dNeh1r65/mTXdNzQMQ6Hw+FYq5DjI6uS95/JIVufWJimXDPJcoXCjABVTL/LNgNhsV+eoC9KzEGADCAGFgQKEhhjbPpRFMAS1BuTwVoBO9HydYDvAaGQ55Bldp3SIJd8cKxAxn3bOMrzcKGV1lr5Kh4cewwk3pANmrAMlogGaphHWB5L1S0buSyicgdXHUhiSTnRIwbqAJus1UZ88wErWLt/ZH+X2vugizF0p4TnxaUOx8kQSmiqNNG2MV+Z95Hoi0hAIpLRRtj47Wf8+uue8gZf+yFUdKa7Qefzkzf+6ofe/aB4RAYqNRhsDEgnoB2OU8YjIuxWtvpbfusNv3n91uvCOLJJjlQPsAfe84nf/uwDNzarzX61j1G6l/vUUE1UJlLtaYOxe5+MtCd6d2awKyEXYvpXNI8kdolh2bafxBB9QgicpyHU/JjZoCUuplVEtYyD4pATIjxIjzd2PRnsIwF07bSJpZmppZYcgvgAyKNAZyE/ipu5PJotNGhxmCXqaJ4dSnBTT6q4Aye3vA2AD9wslqV1ANqgmyppZo+qWpDeUyUoUg1CTjj0AbUZHLN9sDv70sEZDofD4dgAGBQhEgTnlGCGQzNcoTY3bIzR2pzo6rFG2FglLn99y99875a3bPmh8eZcW8VKH6IwZ/N+IAyb4MG1od5G4ktRF5wgvL8xWMPb2i+9CD+f70hml/NGju9ByeopMijmeSwIW0HYCqMFaI0eDoimeHdiUBhLw/DWhM8ewXd4FMjXQU4r1NL4Xw8ZGAXYDHyM1urV/P22ZMWVuDhOD1fi4nA8UZxeiQumgZCB0KIxN9q6PRYXa9id2gJ/g7IFUwtiqE2xXInL+cuRv5qK/zXN/kNuf+bWbdduG7pimGwifIhVRqP6RHVw0jy457jVJipLDHYMLbAG7ESrww60GuwsbDeHC+TJTe6onNzopjAY9tH8eatvqtWsVXEleUG23HZetCkeyuRmFVwUTly9eefTdlxw7a7t12zeevnm8V0Tg3dzOBwOh2OtsUGrikoe+ctHyMvk0CsqQy+se1eyfDxph7ODY/PgnuM2I44ttbA9E3aKZXsmwmVzJmrNRHPWQlzONsO5TrCC9fmxk1vTn5wKp6eCqeloahqXwfQk7gnQpiaDycGDLmYynBTPp97LvfAVFfECL79aJ5fIeIdsNeJjvDk4yeFwOByOtcbGEi6UnHhfxmy9zxue+b3dSjr3nGbnWb25Hc2MxCNpfWJudOLoaD22pS9xEB+3zM+WmCdzT+Iy8xQu02KZ2KXKPSU9qYLEj7pDJ7fRfnZy80D1qiaumrSi86qS1TyJ+kkU96N+P+oVb1NAISKDEqN2g+RXQnqVnNneObBj35HNh45UD2W9hEmT2DYyDofD4XCsSTZciUt3PqVPOvAIbTJK7TSHBsCzDaxVAkma2Io/Y3Bh6/gW2jLIcXDVGswvT2wP1k5iK2HnYcxtMwK7LO3ERXZNZMUkABLiOKFtH7oepRQyfC9NC33mcDgcDsf6YGMJF21QAwz64ARjIL1j0kxT6Nrpe1C7oEUQe2o2iqeGe10vseee1FLaSWk3pb2U9lOapkSmRA9mCDDWEpr0xdzJbSaEk1tcdtMun7D86djKF6MhUbZDdh4UuioA41MeChEwg09RKBYuB32I2DdZp9KlEHAzKJWhskJVYIAqFDlCZSLnBh6/rYzteDc/HcZjmcPhcKwKD4gAymxqhjEHGrX5OWbAUxBKa/bQejFDmDEhVZGna6GuQp/a5CBlnsbXTpXoJH6/iEUxao+BdoEm9jIdgKxqWTd4A97CpEkrPEcQEJTwQf7Zdisp8uiksPMYdImNSgZhOhSkNTSRMqs1MhC5J5TPlaCaY3rO5FowbZe2PEYyIX00jqZ8gs+vKL5L+brqKaqaVhVLJbPd9xFNpabKkKJrSDHbosPhcKwtuOQsRxNM+jT3aC4o7rFxuMCEWRsfbVGEucaNaJN4scSYnGSoVUqhhkpNW9mBeUJKV5N7XONsYOGCelRbz02VYIpRTajtamwFLX53Q4pk3JYNrBVb8LRWOZ+w4m0tmqBSsTbYxpVyXtD5Ux0Oh2NtYZNsjPVsDEYKw2ic2dgdqCLU5ukwlTseN64Dw1wozRSVikgJuU3DCytn48UTNkJMvqGFC9PevHE2EC6sKIDABX58QoCuFSvfqVjBTfsKhVH0xuUhxBSqxdD5wVqosqG7OI4ifSPodIfDsc7AxHyQdhtCbXmDrWvG2B23FCGKWlsYVa51wyhdscxmQUmuQA5KXAY5bhvnF0nYOmeQ4G1EOMRekvFcMpSudjQt9AqK5ugnctEDL9Eik3h0jRi+DnCZ8zgXccaTTCQgpBZ56g0qhhBmNNqgMAkpg3shcyhKt/lKJYfD4VgrZH6aYUwuEoz9FEuLOFxqnqOBl0KQoC2JLde0aZoLVGSAMblSkGkmbdNCJqUtcSFF3hsTg3WuXTaWcDG2Pesg2Y5NnkGSmD7xbGmDLZhAwWpUYfOFD3bPAlsNSy5Zja2GJZc8pqHvVcY2eCleVAFdMFFSFUJIDFfzfhr/Dgwp5PwyBmeeCoMrH5tBQ7DiTEooUu5fSHmCw+FwLGEQR8xj82yY52JAbJt+Y/LjEVxZBV5EcctZGnOuwlZkyfmrsdWAMfkCY4bxhAktMCa146JjmobGqbKNakkuJSkcYinzkSombsfTt7XLxhry/y+/9levvfA1I/1hXO/68qDZ90c3/s8b7vnkZOWwFkrmQG1jJ8i5Nt6gefVC6Cpknu26fIqseNtVeTXfPi3LKFeeogrfHaKiubHxcpnBzwzOOq9gf+zZ4h6C4W6pqyk7IZjjPMUN+e94okClYmt+FqBq2ubUUpuoe4SCEqhWJNWGYiIvraxBT7pobtzTTLxXjKhPI/LHV1k5m7b4hJBG/Ci/YGj3r/2nX33FxMujrILxJ/HEXdmdv/8f/+Pf7viY3Kz6ImXazqtIjdGEZIwp5kHMuPLrLdr+1iS/gMNOW8RuM7h2ChkMywat2Jz/xfNV35gfsw+7gYTL39z6t9df8KpSuPT89LA5+Odf+JMbvvmpY+YQCxjLedkHJ+Np4vWZ8vAz29vNYwdHWQk7KswpsuJt8Rsd/0yPReJ3meJBVkHhIqnKeRaLPr68yMPZcNYJF8cZxAkXxxPFcuHCfTvvcSA9jMCDPKqwhsykohrzbxnPMCbEcyop5kRPsJoYdTkrRtSnEfkXZUYrpLxaLwopAqXLlHfByK7//l2/+IrdL2OxZ2sJIvqt/Ft/cMP/+tfbP5ZN5Cl3wmUN8ljC5QPf+OArdr18tD9iz1GsGTRvuPsTX993Sw86YSXgHeFJq1QkyxK/T5XH1o5wSf02UwKFC+otyWyIbZpmGEYsW/QKqtc8AIc+9kOfwXX+vnLfAF+FuRgM+lKi0Buj+xW/PBxvAUP89sjB374bN9kf2Z21/q5uuM+uLcCwFYP3IGTgizvhshZxwsXxRLFcuIx0aruqu67cdXWNNMgcrUODG26I0lRiFjTnNk4TRcR+nNXEqMt5ooSLlBheTqAY6WXZNn/Ldz3jO68cvdIO4sIxLlZ3qXv/4LP/859v/9d0NMtZ5oTL2uOxhMvf3/4PL9vx0oFw0Syuxvd179qf7DWR8kOPtKgvAzyEwiUuSlyYXjslLp4VLmFeChcMsXniJ0Isymcg+WT760dv+5Pn/DmuJ39oZ4eWHmo4KqRAR1soXErVMkBDIx5HpwwnR6fvaKfJ7NAVm6NtQVaN57xHBucch68YvAchwwmXNYoTLo4niuXCZahZecbFz3z9S96wuboV5kgDhkrhomiOqmVeuNiI/TiriVGX80QJlyVICrGUI3ro6saVo2oUbC2Ygbq+R3/7D278Xx+97V+SkdQJlzXJYwmXD93xjy/Z/uKBcIkZeJD6na7XYXYc2rymG4EM8RD6+IT3qPapbepygvNZuKSszY3wZcS0l1ONwTUjWQ6aGU/MRaQY0Xa2/oAB+pl9n33rZf8dN7t/EpcelFrhwqlhiqcL9QpbMLVT2G2gU9b2jx/87BFot2vPnRi9cjyp96b8gXA5fvLgDo/9Uk64rHWccHE8USwXLhc+eNErnvrKH3/zT2wj2zEDVicVyIoIBr0oz2XRvIWYNSxcUHsM1graJO6RtAbVuqzwFrPFLfgqQ+pec//vf+5/fvS2f46HE0nz9S1cVvgSaxRMGXOG+qPYMBjPFisAnjgxJH1SbaFqIYRV1WikNw2ZHRRqCr8sJ+gXKnmdAX58lK4nLCXxirbkktXYkjsst4wmSy5ZbhzqlFQV9yTHgC1CWa1nI8PZmNcJgQ/8/ejUpaS7iXW2lZtMAsutEa0lzTIWLyplKSTIcWOCKSU7D09WjxpoQvbgnN+Kq/mJMszjZ5abu49cgOH4UY3aL2PHhdqUjI7oEWEqylBFjB1SCbWmlZtOtTgcjoLj04A8hsWVDsZiFVILoBZBBQVJP4BmkDY92aeMySG004hRl9uSmyy3JeevxvBJltxkuWUUTzth9Tza1d06kmKEr9Vwqqoqr+QKGIMogCpNPZvGYeROMbL1QTVA1QBz4CQBhg7VsoOO4v7FefI1x/oULssZ+6X603/tKUYbH/xebJtrWZ2L/06xmG4NgdkDziEIbK+5ck8lpDthCFe6JkYrd64WQ/qdXjrVy9sxpJB28tnJY1qdGCRmCY9semiw9tgc847MwBFb7OJwOBwOx+rYKMIFE15jywNs2Uu1YYsNhZ1cqphiyg49CMYOPGhdg2oGWoD2PFmp5vW1YsJwrimz5XymHAMXFwY3ianWBBekSk907md/NGhdu3pUpnRTwZyxMx3hrROYOtZL+t3B4cdBlhfqxz6uLbi0XdAXlfs4HA7HY6JYpmhqa/tBEozxNAhdjMeJEV0REyJLYss1bR7mvjEut2P8W4rYnpXVO4XZ+tt1z0YRLkprQjBvTzUYTINJyijxBXi22pIQTdDLg6RGE0z60VMUhZCSQbZmjOL7GVPO6qlZhoah1hgJOkcP7i+und01fSUuh+JKuVmLh7xsgudbR3rbRnpbh+OJ4XhkOK0PLBke7o+boqY4HI68oYBUgA4DjWDG9EW6qbwJkSMkH8WVSjK6xML+MFp52vEVRGR1rmpSplZhaUOUYcrW63mu8YPD4VgdkvdzHhvbsCXH+B1zPkKCZwjafOKO2aOlEebaNWNo7qtUZJJJaV8YhYqdWJHaSZqscNkIOb+NIlyklJiMM8qsTuGE+vi57SqCAlWCykGiZUTmFE1rFDFcKZGvFZNESpLn1jI0SVCdZYQbJiiqNhRtVsRw1au0g0rez3r1/lhK8zD10FI7TjZakpfVqCRNaZqQvLSM2Jv7xB8ZGd90+Y7m5tRsEo0rx8aeuoltiexkIHKI6FrZXobq+sLq2NK0r+NozlcN/BC4gks/qbOkgnkiwgh+E5Rc5WRJaDbszcc2DofDcXIU0RgHGfyLCTZm3jDV1hiT4JpCsy3n0JZFmGvXJMNIXknbuF0blCkYbeIrD2LOcmS99R+BbhTh4nke50wbnUFm236z8uOWwsWowh/kqFqscFESRS0DzbW20/2sDZO0sEK4oGpBi3UHlxiITZ6DbVqOAi1Ls14mY1OMziSFkp6UXi49lXm4rlCyZCRBqZHSDNUMWkZRBqGky+dGJtubZiqVQSFN6OV+4EuMFohCvaLZfLtaJnNPLbGUtfDH+qZfXoukQVsybWMcVFXGtqK2VmqXjeMpHQ7H40ZjPpOhcNF2mugy1bZTLGLsbktx7WSEaMsizLVrkmM8rzDmROFSJmMYbeJfWsxbU5S4rH/WZ3doO7O57RM96Jzi5yzo+BdVLnnnG3/lxZtfVkuqQvOyRijjeRu6j3QOkBpLIEV/Tw0VkgnFU95NxRlow3FuqJg6Bt1iAkUMwLbGi6dizBsdIaM88YjwIVEg8p7f/ugjn3rb37+rN9pJbAvzweVF+RPjfY1BHyOCE/IhsUGCKw/CQf2NfJ89sPW50eQzBo7Dc2UnjrfObu+XLW6ufqJlTdF8paCYVqT0eCgRbXGLKcKbrZ0tvWO28DLHeYbrDu04d2AmcgE2r2kliU2lacls8qarX/drr3zvNtgRtKs2KqMq9Tq5kMeymU6WhGEwxQ4Prl/7hKruxdFYdVQAY5IM0xFbS8bgEX3wf3zh9/7hlg92trWVj3lYYmN+7WGUngulMX3LjTBeo9lo3d5hFzDYZWuUNP5bg92hN7BwERgizGQ2dduDt//HHZ/thXFGc0z4iSFCWeESi04iOuUdzn+qecMWGqJwsVLAvsIQHX7l01/5zAueFWUYmAVkGljeC9ofeeRTb/37d/XH2imdFy7oBWxsQHlix1jRmFvB1GjgHSiXizzGcuHiHRcu2sqfOLDhoaRsHHd80rN57G9Z4VIUb7Ii+UPhgueW+gU3ll3iOI9wwsVx7lhJuMBs+uar3/Drr3zPdtjhtyp4hmEyCdtTZvpTt3zmG/d+kws+O3J0cP3apx6P7RYXX/v0p12z6+rQBHVdL4XLPitcfvfvv/bB7ra29JUTLmuPVQkXTCM9dSA7/KmvffovP/XX7VqvDz1b2ADAFeWK93mrL9rlHc5/6ulIKVzwi3LNPMm3+lt/5s0/84pLXxWmEUHhkhrgEoXLh/d9EoVLb6yVl8LF6oXiFihccvTBRmNEgalRmSBRQVMWySChAw23XLgE0goXm4Rpii7fDU4M7oLC5VEkiD3Vhhg0q5GKkILgUyhqy4sGT+U4X3HCxXHuWEm4mLnszVf+p9+47j07YIfXDNFDGsjievegPvi+D/3pp7/6uWqlsn94z+D6tc9oe8szG8+9/vrrX3HVS6pQjdKIYiTL4IA5+AdWuHygY4WLXt/CpYx1NiIo2KSRJARVl61qszU6N7Xp2NEth9AObztweNv+qU0zrZFkrdiRrceOom2ZnNo8PT0x2xxrz0bNtodqLE10oSQwoKO/RSt6C6KKKVwB9R34CjwJXo5BvhiVskyNSsMgYZhaNIXRUvo+JB6kHHImcurZflnzVt5/idl6aKRszrKgcAfVj9VMZUdGh8PhWAU2KjMRAZ+CHfcct7VnEsj6NJ4MZ6aGZnrb0yWx5Zq2TiVOeZqJLIUsg5xgBIoxqs0B2r5FGF+TQQy7nsGX3qAQD3L74VMVyJ7otv1mHHRklKJllbRf6+d+bttfrBHLa1ley/OqjCt5u9LvBL04Stu6F0NKSSEErLxG781KA9SsNr9sh9X1FGoX4ks8j1npbit8SrOnCRYUxSCPiQ4AfIwseCZE6gnPsJMbKyqErDqa1y6I3Wc3bJlnMSqBw+FwrALjYZYMQNhYo4hMJFcJJBnIfhh3+OysmFsSW65tw1ynfWNTtM9VmNcshUsJKarcBxvrl40rXBAppQZNCeWs6ChdVF4ssKJr2ZqxwUtZivXADzkC3FYD455VFMxjyCc29J/QDYQQvEdRCHNS7JWDtXL15OZwOBxnCZ1rDQajPuHZngIK0/elseUaNs5ZEIRBENh2mhjZ486Nx0YRLkZra8UnthIV3zsH4YcUPPTVFITso3ilkAIa6dGgHfCUFwMBrA0bmgE7QkqMcoyA8omMSFNN0FoASngkwXNCW7qiaUZNJnTua8m0YSjcCPQFdHzohJASjY7Ec+AJ4X00YFmWJtNZpVW44qMwlKixWWB9AF/6ENfjXp+qk5sdEa+ISfBJUwoxh5RBjl8Ev4607g/JRgyKDofjUSgG1VxgEkheLAeG8TeFfBS6TLdkpOIGyKA6lk5clm3aNlODrSNtTzNDFprtfLk4/lxDNunN7Q2mSNzeqsR4ZzhlpBlBL4SKSEby3FM68X0NlGiMUjGTWLgYTWzJNiZoSoLBbHqEOVLK8FBuINcGdxZRri2DtyXetl3R4qZF5xsbusTFcapEra2whdmx+gCqZpuMBsO6OBwOh8NxbnDCxeFwOBwOx5rBCReHw+FwOBxrBidcHA6Hw+FwrBmccHGcOsT2NrIrdhgou1p0JSr2lvsdDofD4Tg7OOHiOEWsQJkXLtrO3VioFru/pDjJ4XA4HI6zghMuDofD4XA41gxOuDgcDofD4VgzOOHicDgcDodjzeCEi8PhcDgcjjWDEy6OU8QY0KC1tuuM4YqdF8RO7WQnVbAbDofD4XCcNZxwcTgcDofDsWZwwsXhcDgcDseawQkXh8PhcDgcawYnXBwOh8PhcKwZnHBxOBwOh8OxZnDCxeFwOByOtQotknGtNaWUMWY7fq53nHBxOBwOh8OxZnDCxeFwOBwOx5rBCReHw+FwOBxrBidcHA6Hw+FwrBmccHE4HA6Hw7FmOCFcQg2+BmGAGSB2Bx5iYCg1lBnC8GhWXysWJUO13nC1PxymUZD5Xu5xxYXinuYBCJ4xyAA0rP+212caYycq0sVcRXZiIrvucDgcjnOFr0wlV21fTTOlhQy6UO9BJYU5zg96/iyJRLc20dxc649QzRWViuWYiHttf3N/+/jctuF4ImvmAiqgIzSiIqoipiIuK0JW/LziZwPjef0cWCWuj3aHhnpDlXjYT4d53qCqRlWFK89TLJQQycGLL+SEcCEaCKbkxibnhXQhQNAorhugBGgatNeK9cNmN5rrhnNx0E+CtB/Esd+1xjs96GRBBoFVZfZ9HQ6Hw+FYI1BDfMm4pgwTaUzCMK0uChmASCA5gZyB7IbtbjTbD7tZmMlAoWVB2iuSxU5lVlc6uNIPmknYzoIuWhp0lqShaDI8F9avtOeqzWal2YvmUtzjd7XfQ5N+lgUqDqGPifUyFlQVGYqGGgWtcAyEgCHEUKIZ1czuXiOG76GZst8SNwsNZghoohQaSEVzPMGKFidcHA6Hw7F2IJpwRZkmmLLZmfqLBM4WPIAiRtukTxtFM0X1IEEsT6CACZ+kmWQpcDCYPpaHynMe1QZ3PrtmdQcHfKTiR/F18EWKkpPyGTARx0PLwCMDrECZ1y5FWcvgxsQwao0PbrQmjBnD9EC44DuVwoVqq11AKSoLfTp4cYfD4XA41gTUEKEo19SmYLaipEyocUVR0AyFi9EahQsriiBOpImgWK7YYuFyPhibFy42vS5KTsigyqc8upJw0R4YYfeQ4n4oYjQT0g+yMEor1bhe6Yg1Y12v2vOjLo+6rNphQ91oqFuv94YreT2ASJgQRevgtR0Oh8PhWCOgZLGm7Hi5mirALLpN7xU12pckylk15fW43uj7UY8FHUALrZGhXqMe1yppBBmEfVHvBtWuV6SSvNJdloZ2RNg9F8ZjCinQmIp+GHUalfZY1BkNOsO0H0FStEbNBy++kBPCpWjaUo4VbNu5UEKZoqEJh2ijJqt1WR+Lx9eQjRY2Fk8UK2ONZHQoH/XjEIULQ+eQtnGuK3RxOBwOxxqC4L+iKaoGo8vCCYOrRKfAMzYihsMsqPeHhvqjmPDZ5K8/PtqbGE8317tD4/nEcDoCbRhORoa7IyO90dH+WGlLElC0Mg094zaeblpouGe4PzKCT9sbG+uOj/XGhjsjQ73hUTkmeqGva1R6ZDHWEWw/kYLq/65IqiXTqNxwkxIeqspV2598+abLaJ/40vPWVjJP8JPaPi/41FxykXoT/qZXXvOqy8afDHNAfXtKHCaHydFP3P2J933qj45Uj8R+z9ax4SWS4vtKItHseWuBoRwyBn18L0pAetU4ujjb/O43vePFO148DFuTPglsA2vd8lr/sveTb//gu9LRVkLn0HXwa2sCqmiIzVd63bC5pfPpSTiQbX5hvX9tvV1pjjW7eJO5EFQd/C7z+7QdPJpCdqwjhBKY1dNEGwxdZd5H2hLsgEQko42w8dvP+PXXPeUNvvZDqOhMd4PO5ydv/NUPvftB8YgMVGrQnxmQqrjS4TgFbESFaTam1xh3FeQz0fde8YY/vv6dDb1J5tXcZ9KAyHqaTP3Cv/3qnzY/jqcyjPQXoDHZW7MT+ow3h18evOQ117/2ukuuq6pqoKsyTXmFH8kOfOaBG+6fuq/LO6BDq20wecdk0GobojNDcxZ5layT/+s//du1L3rq9ku3Du5YsNw91IlijTMJ52ywVpDQLKUZV8LLA08GxDBNTULSWZi56ds3tXmno5rMywZnF8gfVSeES/QnwgoXWkRGhvLcG9fjb3jW619zzavDJAxSv2IerXXv+UkRoeI3w7gVt4ghTDGhvZ2jOyo8gg5AIVz6UXLECRcnXByniBMujicKJ1xGW8MvDV+MwuWVF70qgmpd17Ne5gdewnv7O3ub2awMMpE28Ezb5wgxhAKVuQRJKmG1Pdf63+/74xe//IXPecGzisMDtLJp30LOknCx00AuIGN5zqSQXpD7QvrEUCVUh3fvbt37/274i4f6e5tsRofdwdkFi4RL8KdMUYOG25jSi8Qfz8Z++OU//INP/YGKqQQqZGfnNc4GtqExMIURK3rRInrVWpscMGL1NCeScA9fFRI/OUydcHHCxXFqOOHieKJwwmWkNfTiihUur7jACpch3aDSuokkeUJ7GUkzSASt4pnoQrgfU3NiGCM0ydKKV5ltzf7Wb/7Wy1/+0ute+YryhgPw1MWoZXvOCPgkg7WCDGQOuaeFr3xmOH7enOY93v/G3G2/+eH33tu7T9bSFNqDswtQuJy4haHadhK2L2qb5lZEEBofVVwEYSj9ShoGJlgzpsNQhaGOQhP6EHjg+TQI/IB5DDxQHBJUl2tHhzkcDofDgWAaXRYxoPAvDTWcrQ/Kha8rVajXSMMHHy2AIABMuEObDuqAxsSkWvc1SgMhhWdHeDthS9NQgwLgrJhv/IUWGC8AL9R+kHt+KryUB3acWC4wn23y1MQS0sGbL+BE6q1ZUTRUCBdcsNyQno7SYASG6vkQjwVTZK0YVUAUMNShuKKNNiqHVEKWQLdHu3HQaQez9p3XquZ2OBwOx0ZEU5MXJgGtaAyBGNu7iPeE6IZR0rDyxrZvsfUNVBNcGqUCz/eFh1LHkJwxKghfaEvSUDRydsz2jFlgXNPQiEALO1ZckSITnSuIJevrKMmiTkbj4g0XsaDYQXroJFazUJAc2l7Si9D6XTvUbA9ClTOec6NFbLw2eMeId9h4B6V3NPdmUq8Xeyr10tzrndzic2NBpxgTsKO9mDEZEQhyFSlVBVMFGUBcJSmRECS0AqyaC94zQer5WcDyEM3Lq15eE7LBTcPT9UhWa3nUyMLSqnklUDWhG8wMUeqf3DwTRqqCFqgw0IFnPKYZtePlFG5eyESHw+FwOFZD7NFUVLa0hy5Kx7Y26ymFKQEzQQ7RHPEPE3rwcDit4HBOjsZkpkdbLd5viqzn6a4fx6wLXs/j7YzPzoqZRebNLrG2OAM2I47NiMk5MdMSzY7o9ETcE0lPpF2RdkTSFnEmc9bD1LinKi1Tb0M1MR5vwNhwPhG2qyzmtjxpGadQX0KIbRCT5zLJkl7W72a9OI8TGcd5givWsjhZyWI8/xzY4HmSOI3jJMb/WZohuZVyqphix1YVEUIpUIZQRm1toMPhcDgcawzbd0jKPE37/X437s70ZwbWm5npWpvtzc7OzM61m51uF89p99uzPdx51m0mnZlJZmbj4kk6MzPtmWa32ezOWevNNftz7V673+tjIp1lqbbVX6viFISLIipXaT/p97pxrxl3Z+OkLeO2TNsZWtJOsnaatbKTW35OTLZU3kSTeUvijyadJO1maS+VsQRpu1txzcGX0kskZLouTU1mQZJ6fSVitEz0U9HPRVfxdi7afb/bCfutSlxaN+wlXkfytmFtzdOTm6Fy4HwOh8PhcDw+bLN21tc0tZMTgZ0UmRUDzGJSpuI876VpJzZT1EwRM230jFazUs7myWyStVLVzSHRTDLao2bGnAODaUqm8bdAz2o9p2Qzy5tp3pq3Zpp04m6v2+32ULvkeb7KRtOnIFwkSXLIlEaI0FFEGr6qBqrq6UgYj4PgxvO0f3ILzomFMqjklUhFvvI943PDiQaqqdDct42DosBUgMqMSQ2GRoyEdh5N6xiFGWqnBaAgPWO7J9khh72iB3VpwnoTToywIwAVDWVOYg6Hw+FwnCEMzTE7rXgPSAKguS7TJQbUC4Rf9cNqFG1l27awHZvZtk1804Q3NuEPbwqGRsKh4aBR9+tVrzbijW7xtp4D28F2beM7toptW7wt48H4eDg6JOoNUcflMG+M8KGaqAohGGMoWVBdGL20V/ajcipVRZgO2+oUQoEJ5ns8YuBR4JSgkxHbNIhpYycJOqnRc2GElbVA+FRguEFDoYFmd1phwvBzg+JUMXwF34RoNOVMcopSVDLb4lp6fs78HLyccKthOEhRGrEnUDxUGD+5sbPUF97hcDgcGxGlaWZscYu0Y+cebyqJ/xklgnKPMhCYuaaY4FnDNNuO5YJL217Xts7FBWGUnwMT4AniMYLr9l+RNOPD2JkRi2mIiMe5j2pCcIpPOj8w7oqcmnCx6T4qPg1aEpMzlVGVGyl1LvNMJ5lOM52dFybzXEr7VCpPVZrqrJhhEWwxlCrmPsgIahciOQchtM+VR63IQOFiDVWLFS6SBShNJAoXZrtQK1EaXuVZ4ULs0Vyc3LhaNNiOw+FwOBynD9Ga5kUjBEzMMJ9eluxrOzBSnmZ5GmexlphGo2mt0HKlMD1MlcqUkfZ0OwQcsUfPvhmUCqivlNH2WZQyORTdnCiarecqRrjXeNiKKatdVjde3GOehGk83qlsslqKoBRi1Gv4y6CYR2tGCR5E4DFaYz2vo0fSTr3dHF7BOo2l1h/untyWnL8a6w5304m8N5ZMV2ZajXaz2p4Rc4fSw32ez/Q7vX6atiTMAu8GyazxmtWwWa91hhqdkaHusLX2yEh7JGrWR7LNm+WO2uTw+MzmiebOsdntw1ObJ+Y2j/e21rojUWeo3hw5uYk4UMpWr5UOihRjJtnGwFZfljNaOhwOh8OxCuyI8CwpOhMXtSpFG5d+3geW9Wgnr6ue32tGvWal3aw0W5VmszLXjmanxaQe1y3RbokuHRFzuFJpLbROvXM2rFvtdaq9dq3TrrXb9Wa71poLpmUjgSGT8T5EOs0Tq1YowfTQJpC2hAHfyUodu5OhMHsU7KnlmvgzXzJpa3yK60TqjbVHf+rlP/GT1/5EzVRF35+rTKNISmcTkqFWqaGYkjSTYZ7w+M79d/Z5LyPSrJQMLz9uE/WTgin8YG3VcBWalM+0ph7a92Av6WRJGolQdeWFoxeL2PPzwMuCKBnORT5dm96bPPLRW/+pNd7sm659c3SUnHm5QHFKfdSnJE8N45HObBWcvTvNSTmnuB2Q1+44CXa+7SpABegw80Kh7Ui+ZXndYMWes9qW1CfDjZzrOGe4kXMdTxQ2osJUYwOPnMsUfdrEVW976vd/9443k87mrMYTAZlujZj+oaPfbprk0AgbavmYuChbz2AnH8R11AAe8bJ+0mv2PvS3H7rmmU977oueP7hjgdJnJTwyVTFES5ZqKpWt4dLcEF8JkrJQBjs274AWEdqTPCHC+IEf8KoBjo97y/TX3/nhd3w1vyWrpUtaXCwa8n9F4dIshEs2m0LGq6yKwqUj23ktnUyO/PUn//LBqfvTAKXMCr6hGFJ/EWyloiG1bA6FFREmYjpo9ZoHj+7P8kSmssqiQIaveuarLxl5UkXVKrLWSMdynh2rTO7tP/z3X/v79mh7Ts4CsXLPz7wg9zKeZjSmkvsm4rnfnu5ElarveRlLYuiaAONdSXU4+MnHQAW5bkjwgUeCcqqNIpw44eJY0zjh4niicMIFU/GnTzzlbU/9vu/e8d3Q2ZTWWY9j+GtW4qP//vmPfuvg/QfGaNjFAGa0nXnQahe8CtPugIYqUVyLL93wpR2X79x+6fbyhiXokoO1MwoKFyueWKqoRPkAxAhJMIXlmbh8y+XXvei6WtLw8rMpXFqVGaJoOpvTjAciUlLHfq8/1DqSHviDD733zv23doZ1wlfwDWz58RX9Dz7PKWIy7tEKcMhlIoQgCeE9Ps4nfu7Nb3/pRa+IslqYBphIK18eFkfvmr7rDz76+3vNw23dtJ/XgJ/bCZ/iUHdFHqViqB/Jfb3WvubOndtGhke69ewIne03ZEf2aytNPGmEVjxTSuUqJxRQu9j2wk64ONYyTrg4niiccOGKPWP0mT/3tLe8eef3QGcsHoIuw/A3Z+K9//df/vA/vvWlR0aV5j2ULJicYeyOlzBDMdWukobuQ402vnXL3Y3LamLnWVEqSyAqwiexwoVJTJls8pqJaoyKQrz4yS/+gTf/4Pb+zlpSPVXhcgqPjh6m8DO2kS56G4yzEpM0ZbPLO52g3fV73XrcbSQnt1Z9mdVWsiXnr8Laje50Y3q6NtmqtKar07PVZq+edKNEBYQSj3keqTM9AlklMZ5Um9L+ULsZTfer3X6l3632u5VmtzLbqzazervTiFtk9uDh6c4+efjgvnbrYAKtXtjrDcem3mvXmie3RPSLujD0OLa99KAdlcPhcDgcpwGm6poTLWz3WJsDQNVipyqUnlY106skcTWdGp+bHmtNj3VmxnrNkV57qNNutLv1bifqzIm28VWr3p0ZmV1oU0NnxSaHJ6dGjs0Oz7SGWs1Gb7bea9U63Vq3FbT7YZwLqdjpZGAel+YKgsAOO8s4LyeqRidc0TARX2J46cltyfmrMdsNS1iNhZn/IneHj4hLqW2bakNsU5zM5ApkDDGSpmme59YxCrNtgvA/vpHtQE2lktAB6MHcDHQ6nSzPjNG2ZzWejLL9pIbgzTgXnvDwVsrlMh0Oh8Nx5tBgMsil7b1TpjnGzkuY2Q41aCqDNMN0TqVplmE6JyUoMNLoFBbaogT0TFo5WP2JPRI38QnB2MQVE9FTr1FBTkG4VPKQGyJ5Pwnmcq+taRLG4UhnvJGO6j43Y5ChSohXMnTNJbbkhOW25PxVGEuAtRVLtB0sDr8l0XmeMWMqIBoghmIW9mAoDUbU8FbYPJaNht2wroc85Re1JqAMV6jGYn+o3dh1aFP9luHgLu4dA7gfDu5J+10Zcd+0FJHBia/xGCZZ1ue9Hu32aT/jmfFNXviwoneYMeiBnJJxOBwOx2qxg5LlPJO8A36fEKgB2Qpba9mQ0FE7jzvVDqoBP2fVJKr3q9UkFIRi4tevd/vVrm0Nkvt1WY2kF2RcpJSjZYyljKbMNjjIj1sxdMjjNKqIISzzWOITvCeBzDdzlW7i5Toh9XisktYGr3USjCiM20KmopzpFITLxsJQ4Kan2sfaR47MHU5ymaEGopD1zZGZ2XbaAm5H2xuc7HA4HA6H45zghMtjY4cKNkYb7nPegLBK+HjRt7kojrMFXHKltqwOh8PhcDjOKE64PCa2+1akvHG+9crNO67dXntS/cLnbZt4Wi3YyaEOdo4r12DF4XA4HI5zixMuj4mdRDEEMqTDnWF4YSg3KXFBEF1QCbYJqIChRQMah8PhcDgc5xAnXE5QDsyPK7bzk507weBaDllGsoSlMUl70E9oKqmSppgX2jYScjgcDofj/IaAna4HUzdjhBArDlh/nuOEywlQqgzW7Mc1WlvhIomULE9ZljGV8CylWQq5nV0Tzz1+usPhcDgc5ysEhYsdts822/Q8b0FityZxwmUFNFE5l4mXKU/3vSwWec6saiGaUumKXBwOh8PhOKc44XJSClWKOkUTq1VxaacyQvVqCNWUaSdcHA6Hw+E4pzjh8tjMl6XhXytcKGi0eeGCqoVpXhx3OBwOh8NxjnDC5aRoO3UckGLOaFviUgoXQgzliqOVZzkcDofD4Tg3bGDhgiqEagVSsYEZpnAnIkFqqmwPI9whfZGHoQxBEi+hoeQe4BGZsVj5SXEjh2PtUEhw+9fYOWNRfPvS9/MgyMIorURpNZABZQCoyX2AECACCAAYA1WBbNjvb6/Eu3NKFfENiYBUAWqg61RVPdMIoeIpRlO5u79rqD8U9iPoYhRD8WYx9Dq03eO9lCVAJUTE3hZ/QgDxwPdoQGmgIJJQzaCeQgPDlq4XVgVTATsNO4Y8vNNgpldrGHuVQ4CfxByODQgBRUGVy2LFUDAaAxDD9cwoKObiW7u4EheHw3FSbBRX/ifFBPGEcUE4K+I+A1qDVloqiSiU+0AZ1YiSxRX2BrroyOAJxANRiIlEDqbzMna6LinxBngXm1kglPBiVlJ7msPhcCzDCReHYyNhCsOFndFCa6oky9FynmUizURCNK/1xqKkxlPfzrimCtEiJAQ9E84m1WPd2hFFu4Z2gfWAo/Wpn/FQMZGjHlGqb3QyW5mdEtNZEEPFgA8J6pQ845IGsailka+q0PNA2lZjBBghVDEiPcgjiCvQicxsKKfDnJt0YDoVOhcqF1p62ngK0Hw0N+WGw7EhccLF4dhAUEOKHnIW29icGsW04koJJYWUngRKuQq4DIT0PekRKy+KszGqsFVIOfCkUtTphBkECQQxjTq00mL1jjfSr0ykQ5vS4XQsbwa9Do8llZLkxFDWZaPpyPjs6Njk6M65bbubu8ZaW8a7W8fizY10PEwbNPMBhUipk7g1CmlhObMaR9mKH2OntuWF4Qqaw+HYgDjh4nBsYFAlLDbJ80T0M55qijrCcEUDKYLMixKvkni1JGjE0WhnZFM8sU1uu4BeeKn/pKcMXfO8bc972cUvf/1T3vDGZ7zpjc9480RjiwCfGkY1pfYO4SWjT3rVta9+4/Pe9OqnvObll77ypRe/7Kn1K6+MLn+SuGi73DzarQ+3a/V+oxLXgqziqVDoAPVVYYM6JVthX5hEowNzOBwbEBf0HY4NhG2nYhXKAo6rFowMUA2gcPH6uRUuKBJQuLBA+lHqRalfSYNaHAzFlaeNXvnCXc997ZXX/dBLvv+t3/nWt3/X29/2XW9/+3f+/Ftf8bafeuVP//Dzf3S4OibAoyAK7cJ8HV1Sv/T1z3nDT7/4p/7bdT/9k6/5yZ949U+8/Tvf+jOv/a8//soffcvzvud1T/uOZ+x85s7K7s3+tppqsK6Qc8aWDVmztVplhz60QWPDeXM4HBsQF/QfmyI2txk+XcxbhBH+hse6Q9FEglJiG2qu8XGjNyL44RihFlzaj8ko8TxuSzYyW7JBhVZRArWUezowbDhtbO9uv7Rz+VPb1z4vfuF/Hvn+X7zynT97+c//96e9821X/9L3bf+R76h/18v9V7+Av+JaeO7O5NLts5eOT+2+gFwUQlhJQ5gDmAXe596cfyG7pKJqI/nYBfTiq8OnvHLoRdfVXvD6sVf80EXf/ZOX/9Dbnvpf33rFf/3hbW/5rui1r9Yve2HrWSId5smQl49WxZaKt4mxIQWhMkxRqgRXwgor6xmJfR3GmBACVwav6XA41i8unDscGwhN7BRcdtIKWw1DPSZITrO2ZBkPeeirAHKgqGbaRLR4Pa/truy+cuKqVz3t+p/8rp966/f9/I+8/sde//zvvObyp1+47ZItQ1sb4YhggTYklVmc5YnMMip1QIxUwqAiIjaCYTaaYaFIIclorpiOdRqbWOmMejQIw5HG6K7NO6+5+JpXPeu6//zy7/nx1//YD1//w//5Bd/ziquue84Fz9vm7RDtgHe9MI/8PCSZBxmHnNquzmUfp8Gblara4XCsf5xwcTg2EIYYtEFJhaFGAgoXYURAwxCiQAe0w3QHttXHn3/ls1///Nd9/6u+/5e/95d/4JU/9KLLX3LVlmu2+buG1GhdDHETEMVVZtJEZZnsp+lMq/nIoQPffmTPnkce7Lc6RGoUQMXv2N9Nk+69e+6568G79xx7cO/sw5PZFGqXHHJppDZaEC80YUVVRsjwRdULX3TxC7/3xf/fW176vd9/3Q9+36t+8PpnvGZHbVc+o1kiuAmFV/W8GhgOqbEFR2VRqJVjFrvucDjWNU64OBwbCWaHotJFUYUd/Tn1qroxAuNRt8an/Xo88pzwmT+76YffedU73/nUd/7UZT/1hm1v2KF21mWDKU6AZl42K5rfUt/64tznP3b0Yx946IP/5+4/ec/X3vPLX/zlX/zSL779pre9/ea3vv2Wt+7vfDvvtmwXJGHHr8vCzlfnvvRnX33fr3/mV9792Xf+90+97R2f/+W3f+FXf+u2P/yje//iH/d//Kap2/b0D81CEnOiqQ86ZKbyKnjh6/yX/+DWN/3c1f/ll1/0s+961c/9pwuvu7Zy2fCs8I5klRaNSMVWWFrlgnLMDKp0HQ7HescJF4djI0EGRgxQwyJW8aSv2iZStWt2Pf26Z17/sy/6uXc949d+YOePPjd42WXq6vHe5mEzSgydkTMPdvd87sEbP/CNv/vD2//gd29673u/9Fu/+9X3/M6t7/2je//XXx37i39o/s0n5cdu5Dd8KvjEbHKwL2YUb+nqDFRabf/o5NDBO7JvfE197Wv6pi/M3fgvk//85/s/+L77//J3vvEn77zhvb/wid94z2f+8C9v+Yd//tanbj5w597OkabOGocqI4fqO+Ymnupd8V0XXvfj177lJ1/6vd/33Ddc/+TnP2frFReIsdFUFE2trAorC1wG7+hwONY1Trg4HBuU/N+yzp+0erd1e71eEARPvuKK5z7nuVdfcPXY2BjnHPIclKKM9vv9g4cO3X77HV/5yle+8IXPf+Hzn//Gbbfdfc89ex/eOzfXVEra5rGE2mkBhB3Cnxcj51o9gfGLnT7AyiSZSyWV77NKtUo8PNe2UFFKxXE8Ozt77NixPQ/uueWWr33xi1/8/Oc+d9tttx04dBByDQrlFcUzU5W28872oe1XP/kpz3/+8699xrUjIyOdTsc2c1mIky4OxwbACZcT2AwbRoMYTxZjmdsMXDFU16AefUPm5/DdF0KIBpJbR8EVO1hY4SalwxgORlhznCUWTsHzqIa+FHWCLYCwDWzt/KB2+DjchYcYoBYRDIVEgGf9E8C7dP4fOT0KW9Lxi779pF/Y/evvuPC3X5+8ZavelYhey5/bJx76Wn7T3x54/y999WffedvPvvuut/3OA7/yD8mf3zL6hT3+4cmx1tx4p1VvJ2FsvEznKU1UlFcq3dpYf2szJ9XKjkyHoId0UhMwXoEtQjZABZ12YjyWqyTIYi9ve7xNG3PN+kN7arfcVPm3f6V/8afpb77j2I//wD2veccDv/R7R9/7if5Hvp3cEqvpCRgalaPX6Oe8qvajP/Sk9/zCCz/040/529fEr7vk0MVbWxMRvlhdwSYFo7bvEdNqpB9tmx0HHoIIgQZgfKGEL3kgmS8JKwO7HVJv4LobB08yNKEY17azeuEKhQ9BN0RByQtb4rWW25qimMz/hOGLLzHPAEcvgekh+gevmEULrZgdC0MVHkVznD844eJwrBcwbkVhWcSwxYj+xUCz1E5xXgR0K8N1Csm7iPoPkFMmHAtf/CPP/YOf+P0b/u/Hvvc1r/J4R6tmP+jdKw58duorf3Pnh//0i3/9h598/7/c8R9feOjr97cPHtGtlq+SsFBGZ4JyjBY0xLZQwfSQc8wgzMzNPrBnz/tv/sAffeEvf/czf/YnX//gp4/d8iA/dIhPZTSpcT3E1PN27HjH69/8/a/5/569+9k7YdfY3PjQdOQ37SQEVNlx6lqi0260SzexS1yUy/J37epGxWY8FrjAQrewrrN4z8bAyyman1OeUVhguIk7y6ODUx3nAe5jOBzrF6sJUGcUUsMuCfwcgYM2XQo2BR/6/Ac//Osfe91L37BlbIs2JvTCSqWy79j+u++/+6abbvrKzTffe++9rVZLacUotbMkeh6hVClV3PoMYxvWFmWelFGO+oXZMpEkSQ4ePHjnnXfe/JWbv/ilLx45criZNXPIlZKZzAzonbt2XXfddc973vOqlSpKH4oXU/A8EJ59Y9wzuLvD4VhHOOHicKwTqLGT+JCifhMxGLhxjWr8Sw1hhpIfVdC1qqW2rfH5r335dVd+ZzWs4qYySVPuuf3wx/7t1j/845t/+33f+LOPHPr3W/Ud94V7Dw1NTzfac7U4qcoskpopZc7M3Ia6yPSXhuuoVtCU0WmW5UoSRlvbO81trX3jx25h93z42A3vv/tDv/e5P/nzz//FNw/cHOeHGtCuqeYWM/HiTS/6/mt+8G3P/++vrb9x94FLa/vHxJGqyZmsQ28oKSYLsIUu6DjoGIMynsEjzP/8BmPJS9s0oNxVFk3hcuPpPaoFQytGNhRS8MI8XCq7E4+iDU51nAc44eJwrBOIIVQTO3pKoVhQwXACvuah9PmHqf7R3Eh77Kkvu/a2O+949q5r7XkAcd69Y+prNxy68fe++vu/+/Xf/Nej/3p762tHw33JeDsd6aSiZaoZCxX1gApqx/H3yuseLyggylH8rYIhgEqFMIZL3JRGZ0qqrKt0T4cd1WhNV499O9j/6akv/+3dH/m/t/zt3932oZuOfnmGHfOp8MDb7u944xVv+a/P/rk37vy+p3nPmejv4N3ANlYIgcvCVDEjYyFZ8P6q+NFBal0414aiVG+lvC39CTPzNYoofAvbaPT9FC21E6SnkqeSWcu53Uw8ewhtcKrjPMAJF8cpUHQVKSK8ovvpxmywfN5iB76n3I6AX3TzYYT41CcpTX8zy/4jKypi4CP3/tPf/cVfXTJ2QXlJJrPP3v+5T95x459/+u++PnPvoTCOuaQcpJa5TI2WzKdESZJLmuQ0lqKvRb9ouF7eDpn3EacK+h5ttLJtW+wALFJJNNzJBReeYJwHBgJlNUehLTJlesGIN8e7X3ro1g/d/G//74v/+De3fnh/c38GeVronCsufvJ3vfKN1z37+mt2P3WUj9GYQQrCEAGUGcIA3cVWP1lb+MCD19hADBzh+KsXXwI/qhUuVsQQtCWUJ64vyjcbDGCouW3Frqktp7RFlah62WDd7sejtpXuIsq7OJ4QnHBxnCIYYo+HWSdczicKJWkjVEaLihfC8n6e/nIuDxWVOwRuNF+4Qlx6xa4ri9Ot/virj3/w72740Ee/+vFvNvcc5O2pQKZcG6Ix7TJgdQVoTZXmyggN1ozt8jyf4hWcbgSO90C9UqoW++DFJuoYqVCEKNwfAoS6EC4I1cDSvmknNdmqJAfozJeP3vkPX/23D3/6wwfnDmpbHUa5Ci8avei6Z13/uhd951MvfFqoQtBAMkWlIkrj3TGNYoLb8obilg4Evx6aVbrGFrRQ1HmEetRO17DQ1l86XbxT2VMSE0GiRdEtEs1uFb6z6F5k0OyAiNYWOggaMriX45zjhIvDsU5QRZJv42SbTyRC8vytxvRsMo2R7Ece+veL492XXXx1eTLy6//+ax89/NGvyFv31A90xhKo2C6ghA+qDFhhQlnzJPgSArQcDY+fAcpKopMYShY0Lwc/B4LSC1WU7GveT4bi7nDvcHT0dvHAv+3794888NHPH/vifn4gDvp9Hu/wtj1/1/NedeGrnsOec8HBXVXNfEMjyjkh6Dqo6/DOg+QaF0UZw0ajlG6D90YXKDtDG8K04ShMizKq8uDGwZZQMuYzFlAaaOvhWQ94DDwDmgOkhTnOG5xwcTjWCwSYoIxzbXvd5N3/mpaNWpDv+W9vudp/8o5gZ7mJ/NQ//sQnHvjUna07u5U21JVtv9ID6IDJbDkFmppfKqCKLLQzk9Es086TWI8ztIwyYyhTlEvKcgJZbhWMT6HuQ92bFFN/89m/+d8f/d+fvPMTj8R726oZQ68CwQsvfcH3vvB7nzHyjJB7zIDHeOgHWqs8zwY/X2AbMuMvbTCWvnHRbLkoRUC9a1QuZbrIlTYCohv53SjsV6O4Vk1qtaRajauVuBb1a0GvGnarXhd1veN8wQkXh2OdgHlGLlC52IFr1U/bmqBy/66Ld/3Zb//pJVsvPF64/cN///2ffuCzD8Lezli3HczFrKllCpi5zAjVmOumtpkv2Ja+2hZRsHnJgvqBKjs845kAb3NS63OOZoULMKYYVzQSIZUakj5kfYAEaNyutuVmvV/t/+CNH/jnmz7S6s8x20kqHyOj33HJa3/0xf9l89g4JzTu9YpaNFqMw1vcf8EjbDSst1jsAlppFC7odYwy/a7qNc9Kj/fzmboZq6YNrxOKVuC3w6hXqSeVqB+G/aia1RpmpMHGB6c6zgOccHE41gmYW5ZGSi3VzxRtRgq2XrT13rvvbUT1wTbAZf/rWR/Zf+P+LdPN7dNJrQUViUIlNHRH3rioNdqII6DFULPU19RXzE+ZSLiIOY8563OGy3OU2EcVNO1FOQ2p9sKMR31TT0ykSIVQrjXkeTaaTgeTk7Vjj/C9n7zn43/7ub+6e/9dqFzqeXUkGXnR8Ivfcv2bn/vMZ1XDyCjblmZJu4SNWeKCLHlpVUzlzRkDBaYDMDvYv3EwD4nkLtm5udf6Qmfuxs7sjZ2ZL3XmvtRp3dTp3pHqBznbFw5OdZwHbGDhUjaht6NBD8zWdhdjGNh1vUFjNMf5C7OVNkAUNUagptAiNF5gPN9wD5hHGOeQ5ln206heBldcdMGuA/fti/yo3MSU+2W/8LzKZHtHX2w+Qrc+MnbB/h0X7r1w99GLwrmJIzrdMzI9V+mA7oLugekXFoPug46NTrRBS5V5/LX9pXrAbP1JrT9rTTaBtGO/Nxclx/y4GZk+N71cyljZZgcz+IAyV/1Ofebu8BsfPPIX//Ou3/nggb99KHi4HcR6nP/I8E/9zoW/8pbad488XB9P6gKDvUZntG2MCaFMeZ6OFo1k/6i2zhDKCCVABDrgwKWv1Ch0orwD/boe8R70/cMBySKS+0RSohTROTOSg7Jm0Ay3TVjPX2zD8nlwDU3IGr5zxmVWybNantdlznK/G1wwt/uKg5eP3jDc+vft7Y8NxbdEye0q/lLMPtev35COfA4qX2L9z81O3jHZmpqOurWgH7FMoN9URhtMIdBrFH0VmKHWRc8J+INpmlYqFZmnIMTxEX0ZY0GA39I24np0UJcWo0fimceLY9corsTF4Vgn2HFi340J+SBK2rJ7256H9lKUMwVJkjz59S974P77Z2ZmMOKzY8xSSige56zYWNBbbK0iZX7o0KG77777kaOP5IAiLmPARkZGrrzyyt27dw9eENMXdBJbZUQMQUdzGZQFrPH0bLXgW2IGlbI8y6empmamp/MOyrYeJDH6IeZBo+4LsLNPKCkBswG5ZXDtEw6xORCUIISxNj4mQJzanEqh04r2ShsAJ1wcjjUCxrZFvIRZPU20ohjF5orlkknFpKS5/qCGycG5z77++YcePnC8ZuTw5P6Ln37BfV+/6eAjM/sfmNp7+9EDd8wce3j66OGpuXYzzmPb0dkrcpD2Z9YOdqiNwSNjTjMj2SNTj3z5m1/65C2fuGPytjk+SxVU6cTzrnzRa1/w+t31i/xuWJFVmjM8VRMleZayuLjRxqZwQxS+g7IKs95GoMNvbcph9YoydVuil3AvDToHe0dvn5QPmPDot3xz1J9I/MuY9/Jq5w31zncO9V4Ryef55BIK9VTSZnGnJ56iCzdRCxR36HMFRhYU8cP6Fy9OuDgcawOmGC3SaRQuimGiK3NmDdcV1baRwpcGEdYP/Oibb/r454+rlnfd9Btvet/3mXEFcb5pfKJaC7UEMwX5Qd3f05/aPznbnrWVTyGxRRFrCjuPgZ3SoIBALpQZNt1q93MPfvYDt/7dt9N7PDpEsmCIjr/0iutefMnLJvqb6s0GbwroYxIN2gMdDK7e0JTizw6nU6Tux5PE9YKh0hBUK/ajo2phyq/JmpmEuW+35B4pOrQK2e4d+bZnkaEXk+x63nyJaV7nyVeNeK8eD14QiMugatvmnheCwI4WSAhjjLKFlZi2j/uv/sj/Ofz+Hh4d7Fu/OOHicKwNCOakzHyUhH+Pmz0E5EdtATKuR7Xo//7xXzM60CBv++av/8udn5nzOtVNIRuCIIiuuOrqJz/n0pFnN8JLAxgGGtg4UNvGq7b+u7zhWmHQurY0TJKMVkJBBJPJ1E333vSRWz98dOpojvqEBWN07AVXv/BFT3nxuBivmSrXnAEj6675ymlSOGAxfK4pahwK+bKOQK2PL1es2Q0iSUSj/kw/359ATrgK5BDwi4Jwe80b90SEIiAmMuZKRYyPD41uHm9snkDlUtzhiUYqzHYYDLS2l9wCOJvPdmyA+j4nXByOtQE1thmKbaixULWUOuO/DCIrQumDD9/v+4MeELfN3PGvt3/m3v6+Xl2yug6HIMlyOwGz8IaGh7fs3jJx6aZNuzY3hoe00bnM7N3WVJRQOkjpBrhhKPRVr6u7bIT1/O6nvvGpT97w6UOTRykRUurLR5/8+he9fntl+5g/HrHIZ569cv1H8qvAJufF33Wa5tmSluO9LQzRmQlISHsE5oCBR3Lu7QCzw09ruidiSWIw/UooiMxlr5v3M6q5mM8JPOGgZBFCoM+VaRJOzpQ7UbIzelyGDwLEOsYJlxMMxqcosh0EYcQ6D+Zyi0yIi+AcTyx2BsKCoi8cACoQzGYZBj9+Iov1+T1f3TK2vVzXRv3i537lCNkLo63m0FxvqBPXoZk0Z5IWq3ldGc+05sJqhQthe8MqGrDARu/K/sxCK+92vqJtQoSvX7oAA+VBIrI2784Gzdlo7uN7PvGFvV+eMbMKHSk3l/iXfv8LfmBzvilohTVVg5QUzXo2GOhmtqvNAIWb+JGLMW7sbFelH1vLoB4t3wIp3gqjdk3LMhc0DQHxdaxUbNu08oyFOji2O3hoe216qIKyxT+cbt5jRr40PXZzZ/gO7d1DzAN+dqiWZ1kRWBSGFzta43ygO7MsDHqlDQ6cgNgxsqUinDE+8L74yqosMbU8xpPZeS80fmLU+pimDXauTda2B3U4Ng5FrFvGvnaNCDvkhvo5bXs9FPzsF95xQbRlsAHmvZ9850OTD6TJLJBEk5gN8/GLo6ybTHWme7InqWrPtY4dOpqleeiHoYhsN+dCDK0hihaX89F04UBg5wokmhhFjKT6Yf3wJ2/7+Jcf+LLgPBLRhDf+jEue8dwnP2+Ej+i2oYqhUBtc7li/2GK5gfewm0W1WDFHloJc57Y8plLRfpTkIHg0IurxITh4W37otua+rx3a/7Wj+792+KGbH9a51Xm2iA+FEAoGl3g+cTi3dzjWCGUKuyCdpX9CTdvGxISQV/3L67Y0x3Zu3lEe+sCn/+xz93ylpedMkIGXparTYX0xGmJa3ezNtNIO8akhJmn1Z2ZmO60ulTSkIUbua6tDiRUuJ6oA8D+6DsZpdkIiRY1kuj3cvnf27htuv+GR7l4OnAIZ46MvuPoFl2691JcBUyz0XOvc9Q/6kYX6FJWKbS9WlFZojcJfQ5pq5iUKssx4GdczwOfAbwKdBDID0KIw46FwMVa4UFvOwWwhh+OJwgkXh2NtoImdt7morbdRL72J6vutyqAefcnvvdY8HPz8636mPPP/PvCRz4uH7yJ742A2IDrQwFTW8uOp0Ry2AoSqw7u6YtioDyGVrbh5pC3bug5DQ9monc5w7aAoKILyxTYAopoz5XPlMeURO6svB2CHJw7uv3jvbb1bvvzgF2PTM5lWqbq8cfm1O565K7wgbFVIvNZ6UjlOHaYp6vSBxCVakUzxHAIDPoBvUq8Pe7sTTbJZCaFM09P97aAvArmJS4/ThFfalaGjtiIVKaeGLm7keMJwwsXhWBuU9UQ27sX/BljE6A4WXlm55JeufvjuvR/6ifeXnWS+OnvHjd/8yg23fTGpGokZxBwwimYodHwKVRFePEZGPBBgqI5qUW1s2PMjneStmVbWy+yUQGRtJuS2e5HNRRNDrWm7xJdMMY8ckWPx5Jdu/eLd998VCF8YPhqNvuAZL3j+M57f8IfS7nkzsJjjrLGoRx7qXa2AgV/jULUzomsUvC1g+yZr2oQhT0ITXdrY9vzLhi7fSUZqhNFAU5ZZ2WLbPqIEwgCo11jZ5DrDCReHY41QlncX0S8u+NVi6y/vqL9xpHW0/bfv+IuhqGFT7/jYzbff8sV7vnFMJF2Ig4qdR9lTwG3ViU5MMjQxFA5XGcbOKk3yNIyisfHN1epQ0ktb021Iwedrqupk3kHwjy10saqFUWuUYN4YtUsNMmFMVR2Y2nfzrTcRTSIvzNP8guqFz3nacy/eeUkjGiqvd6xjrHCZ9ygIZgAIM14oIALwQFPF2tC761g+PYt+qEfTToM2h9hcYGJIUKRUiFejvp0+uxj8zd4AVUtZfuN4IjjnwqVs04RWdNnhxsaqviSBZGHOokx4yraiHjwW+hBcw0vQMB8o5u1MgfEa3tcsMMS2SPc48ynjeFCSLIdMEoz7MeoniqBxTezsRgq9vMNxrhhqD3NMhHFN2Plz8gTq8cjTR57x9tf8zOXbL5CQHdL7/ym78auTN3D+QF0fqPGsl0BTkVnwW7pq5GhgKjH7/9l7DwA7zus89K/TbtuK3UVvJNg7KTaRImkVqhdLrrLlGjmSZceJ/eJYiV/iOHmxk7jLcSxbLpKtZqtLpApFFaqwU+wkQLQFtu/tU//yzpl7AS6WNEgQIIhdzIcPs3Pnzsyd+cs539/nuQeFx66moa6GC9X9rXVT5MxI1Ex6MDOPsqHd42P1DSOtiWoy5KsStsT0MiQ2x1CppaPcU8hiaw7lZWu5oSSfji/RPARaHlIaMhq5DULnyYLt/KD22KezL/3twx9vKFPRAxvjtVfLS96w9YqxiAWqAjciQpOaJmVcEMpTTjkpBakHtyby8GCN1QtwwwyHVRqNk7kwzpRvrCS+ZaVMeCmD4FGMKMmU62jhMINL8zwnXeuecDoGWwPx/srpMTB+asUksQ1QrIb4bVIJSSrUAcfOlbhMXSdzu5TH6G0gtRCi4A+F/OKNeaVzXbqeJAMmJKS+QOZuC8WnyNlfHT3/1oGNd4fB1BR1omxQ7Rua2zM2o1hKHJXEkWtkLSi7ifBi6aXSzeBhOPy0l8njJ9dIkb+akwHh5uBycPk8cI1UED+LK6q9WO16yVbm9mX3QJeZQ0UON8WHwZX4gPnSe7CDzWSGwH36H3unrlj0FcLJQ0+o5lv8S/P8wG3GdQoUGQQptisqsI8S4szJhJNwJ+VOwpy4x5Ue5gUKvBAoEVuWD/vJc5CXujIW52485x2vfpsXyHo42yDN7z5+18OTj5qAWg+ylcaTsZ5GwdXg2SnNtMD1AZDUYA9WQhIbG6H9IV/WeEPVZ+YO6shIKm1qdQxewsWfA4JXw3E6SjOcVnylgKaMKcI4Lne9L9z7xXs/973Z7yR+kggS8NJVG64/q3qOTKWwLtpCCKcUrzrcKodvCn9OQziZYbGCtEFT8HUcymjgFqWBALU8Nk6Syew5mcjkxWAqU7h56qSxE8dOyCwkzENJ8sikCWkf/DdQi4jICLUplHsdUGB2gS9GA53SWZ57ASWbCUsDMi+7j9Lpu7JdX2889pX5fd8Omw8Ju5eTJnOz2qAZtwGJRGhcG8soEt3EUbGTnXCmbpI6SYKvFicyzmSiIN9BJsaSA3EoCajwspKrjlytmkH27Dd6ZkJB1l5BmfQF4KQLlwIFChwnwCYx4khnYnx8w4b1juN0ok4cx7Ozszuf3NntdqUUWutnnaoBK7oPm7TcM9scrueUy2XXAWOZNOqNMIyEEHBns8Lne8gr9lHngXZRWXrgwIH77r0vDMMkSaIsrpVqa9euhYBQmcLSFOg42K5uk38sgCK+4EyKfO6PXsUbpBlQLys9iDDZY8ovV8qjI6NyDa3Vqo7nwdupLEviOIvj5uxM1u0SY7jnVauVarVGBM6D0rv2ZK7N6bhMUE4tJ7gmGQ7GZpQumW4O0TpSxqx6nGzhwoygwHyxeBCRIAwNw+pepAQhDB8hXcC3cI6k1mHa5SbgqiSyssgqMqvKtNa/V4ECpxMS0dECF+ZhhpQzf40afPV5N77ynBuhfFV2Sp7v3fnEnQ/MPRzVsshP27SbQgkMHAz6GM1oCrQ0yZxUCaDCG8FX4M4lSVicOrEYof5Gx605Sb3bnGkwxUuybGMopkJ+zD0W9nbFZZJ6z7Mi4BrPNdJkWOMU1aKDpX2f2fWxO+t3h26TKDLCNv7Yxp/cUtkiO4K08xoXABpFME5I+J8fOv2QKlezwEhfCy/lvEtZmKs6IPhOOAET4ktNrAXEhg9he58wkeIf8CH538PNJfhN7xAexdoj7ZO6bDUri+n6yD9fjly5buCysfL5Nf+swNnm8i3SPbtavnikdsXE0JVra5eNVS8ZgasU3EqgvlWH73bC2Xu1vE9FbxkunS8DWmMl2FLNy60BP6yW4trB0uwMpto+NMtrCyGKeIrhgP9XLfKAOYmgRoJwyXuTwDbvvdIrAsKD5FstVOpEwAQo41imkUzzrYqlwq1zGjQ5FyjwDMTS4LhfSkqZGIkGzvS3Xjp+0WZvHYdjXO2b2f3tnd+qO42wFHdYl1Y4Lrt42BriUOrEskQ7qZZG97IbAKxbXmZIRBy6XTWQVMarwVBVJ8nC9EJ3sVtiZalcqaEgkZ/cu9vKgUrA1jho5ijRjp6pHXxCPvrlyc83RN3zg4Fw6OrxV163/eUjZqgU+yKvYc9Pxq4eua87TVFpDY22hocWh/z9AdvJ2JOkNB0MtgYroe+HrNxhbuQ+J/3IfzHoxb4be27k+XFQisuOYtz0dfjTiTP3KqBapMYGrnJU9aOKE7o8YiQmFOU4eCCqiNXCOoNuevOceUPdvLVjfzjSb+/qt4XZ2zrw0by5Fb96evHap6avfDxQnhc6pcTzQ9frSj92gtg94XQiz4k9L3/NclSqhAOE41s1Tbf3ZrsH5x6Id/3sf3735h/dOEYq1S4BRqThdDb3TkC9tqIy6QsAZtKTCghQHFLWA/w6EMpzoJzzetqeJul1xQUVLUyevpQFysz62vrKiCQ/qcBLhNyeW9gCnmU66gIvFlA5aGKwg6AjI3H5WVfsWHem0ZpTPt2dueexu6c6U0aY1CSpTvLhD71rcuLGWmp0vrjs08jL0CCGNNWpiVObMN/W1tTcaqAbSXOqoRMtqUMVZ5pLIkEkkfTpHJxn5yXe4qUGJEtzJJVR2oIegdIrvikc0SV1z+6797R2JySBj2BqLj/zsrHSGI9ZwF30ar0Enofa0qBaPcijrB+FiP7hp2FJJan4UUlPm8YT7flHk/YuwxdFJavV7OAAHfBVqaQqy+hn5WV0k2ApvRRYOlYGWXkp4Yib+F4S+PAt3ta3qbFKWZwMFxs9Mc60hUwBR0B/6iSVlPup76eBn5SCnKB44GF8A6LcY0oK44ThojGR65FSWQwM+EOjQW3ALZWE51MJwockWod+VsIfTUu484yXBR5+5n+JcM6yQAvU8psECRJPTgM3Ay5vBNoys112fTNFs4eTyo3elb9wPhxs1BtPJ1bYeUbCxQPYxocWG+f/PXUy7QvCSXc8OH1Pv5UuByMazAnFAT5cMOlSKbD/VH8MEQjmfPgO9q/LrJNaF7f9WxV4aYBZAP9DygePV+CkAVtqsPTFU16jtbPWnVXlVchM4Hge3fvoXY/etZgtZjTVHHKUzrJD1cX4JwdkMgq+/OkDiDwC81KDwQuFjm1spSkNlUmJkMw0p+pZqCRxHOJid93EMH4o72Im7t/h1AH6riWgghlcbexQOAiSONG+1p77d98/k81wUGIx2T68fcvIZlc7jsFxhfhC+XvlPT5Psdc7Icjfrh+HGIv9w0tA0xk19eDs3rtnFx7UySPE7CF0nts5ks1rUye6YbLF5VTPYDqvjqTOFo6Z0Wx6BGeSeCaNZ9NkLgPCvsfdVr3+8JMP3fmD79/93bseuueBRx565P4f3P/Aww/UFxbjbgjaJZ5Nkpk0Z5ZOZ8lsAnfozkSd2bA9F7YWuov1TrMVtlpRo9EFNpthqx0tNtqL9TYcb7ZD2MJPwy/iA+S/Hk0n3YPRMbE92W3say9lezIMp+IjeABuG3cPho3fWVj83bmZ/29K/0e9lDv/9PGH//wBiCAyS8LJ5PtffeicN5911qYtazZiWxICUvuzwkJJEz0+5otnkasrCSdbuGgea5ZamgHBnghNWcZl6ripH8RBKQpKoVvqiiAUXshlwnA8xGGjgx2j8m7hBQqcfrASe5hi203X3xRs31Y6gxPJudOm4T2z994f31fnCxSH6GkO6sIwoXi/tynOOkEhqylwUr1xFnlO6tdxwj6cg73NjGYmdDuh2zZl5Qz5qF06JJoLoVxbVlXZdWXoDoqhZeLnVEaUj85gVvDEJQknGckyvcAX7pu5+9HGw7EfgxhbRyfOGjhzjI+KmHseBg7a9v4kxatRuBwdaHNldyZuP9nKdhMyD8V5QhZJNJXN72vO7JmZ2bs4M9Vt719cxs5kfRnDyeZSdicby054Plx2k/hgO5nqAKOpVjjVBE4+OnnXHd///Gc++4mPffyTn/zkZz772Y/840c+9KEP/dMn/+mBu+9VT0WLu2ba0/Pd6Xp8sJNOxmoy1fu12q/SSRUfSKODCcgF/0G6jOWHxTKGBztLGU1146lwKZOZ6OhM5+JsIVnKZC6KZrpLmU5F2cEwmwn70fEvQIUKErOFUnxEHv3+4/2jOVjmQB4/PNBqVeKk17ig4cSZy8Fe5l39iMccj7iedWUqSNe6bbfarlValVKnXI7KlbTim8AjvqAOjpxOwTL371SgwOkFUAtWMuNw5Z6z7by1I+uzBBXHdGvm3t3371cHNFPc4JQmSA3ahXMjmMGO8HlfeJz0nFrKTJ94Dp6G+9iFpQdpExlrR5cGgtJwlZclmTed+baNacDLFVGl4P5XEPK3BysuletkHtPYtTKx6QNP3XfvznvbrJ04cVVUz9923tZ1W3WkHCGshpBe0lS0YkTaCQLObqVJibrjAR2iOFkVzotPiE9lTcohVwxxViN8QC6jGHKWkQ/JpRTI5ec8J+UabynFqCtGHdjKEU+O+M6oPzxePfesHddfd91rXvOam1/32lfjn5tf/4Y33HTjjWft2OGsEbU1FX9t4I8DS8BgTQD0R/v01gD9ytjgMvojtWX0JoKl9NeVShvKS1nZVHsObqxVNhzB6saB2qbBpRzcMFrbOFreOOS9t+r9cgnYj5cjkU12SIArrdbGSje/49X9ozmEXv2F+5PfVJT31cel0QyU8TgYFMM94vjG9bTjpEI0BJ9mdIqSKUtmKV2ktEFZxKV1mQXtkk89UaDAaQgNOYer2A5X1lx8zmWBKOvUKmKfPLhzT31vPJQQyEs4hoIKw4ThwohcuAiKfeE5ydtoQbzkzKtkch6xjAuUJ7gBX56QCHbcwB0cGYGyRdqIWrNtlvKAlkx3RXnyfBgAJcxRHnZoyG06d/l058Aj+x6a6h4QA8wxcsfGMy8592JuQbVgfQuWr3CLm9MPkE706OaxMy7dsem8CTlGSI3IYWdw3eDopjUjW4GDg5v9oc0jy7lpOQc3DR/J5Sc8H9bW1ZayurZamcAtsAbbiVoQeNs3b3vFFde9+uWvuv6G6y+74vJrrr325ptec/3Lr187MeF4slIqD6yrDK6rDa2rDk0MDE0MD44ND43BdmhgfGhwbBC21YmRZaysGVxGuMNS1sYr5TWlpSyN+EdnMOz5Q+5SwpFl51SGy5XhUnkkKI36/qjrr3HW/Kc1/Hf4MmJETZDBDeXGA50v/tEts83G9IFWHn0gXJxVn3JPunDJBxL1GlmZtcIQ1woa2nQxbjxVX3xgoX5HvX5bp/n1bvvrYecb3c4d3ezRTO+2/qJf7dZK8YCfDvZvVaDAaQUmBPVMwtePbjln/fk4p63hYRw/tO+Rg+l0OJAqYhzNpKYStxwKXgJHA0ngoYzHmQEKrkX+rcx3QN/wfHEf/BHsustJJrNIh3EaQQF8w/otLi+nB7v13QvJYlaB4vYKQi5ciKVuWvKSspsGJCOci46bPFXf+eDiA4ZqkYl1pfUX7riw4laIggAC89QTZ/bpiqjTDI1gsVVuVXdUd1y/bfPLx8s7vGw4W/QWpvnUjDNfL0cNb24ZF+T0i8G6O7eUTX+xXQI22qV6j57LHS4pNn5qdGguJGCMNkaY73oVP6gGpXl3Zt6ZWpCzDTEPbLLFJq03aQO3rNGg9cfXPbGMT27auYxw+VIuwvN480u57IRnofNMzizII1jn83WBt1oEeouLXn02mO1FymGUY8/ssfZ2O39bfzi0IjrO8mHTOHcgBMEqxzEIl3whcA2EUGIk5VY7hFRFOVk0FbJGT5fk8+h+smF6a2Wuhg3qZRKXjebRxMy6s757weCHh/wPlYLPB+k9WXdfFO1O0sdVdr/S39XZV1L3Hj0+WxoNeRCGIqn3qr6PyufxXjafMxRehEGCT0kW4w7Ydng3mTVllsBHeFXqMOp6VjBFXK0lFHFpRqQ2bpZ6kSTe0eloz8t8r9enPaebeVI7rNetGx4TfnHlQPMMq445JAZGjUtUyU3LbuY6GSdacRu7NsRuAYdfrec28lCFjWOJi3NOw9fwCWMKV5bBaTmla6VnpG9k0KfwDHNwnqX+TSgnknI4p6y8GgSjco6M8Wfj6oLkmVxUYkZcOX6THw6FLDO1+QftN2478JlGUM+6JBJmUaZNL2t6SdMNm7IZup1MdgzvEBpiY7iNE5nh5AJOErpx141gGzpJLLNMGMjVOL+/ITLGrvAKjpfjRqU9E8y7G3xnTaDiJNpX92ZNVQ94dVpqaKzlSXMv7xFIDhlznLg82KpxIyG6GAgmcCVYoyOoEsw4wro4Ry1O2XSCYgfM0dHZCYCUxe3q7lZtb7e0QAxhssL1SDOjd00/skjmZJoMkoEhs/3MiZvb+4KYcOURHSTUSaHoKtM1/d9aKViWC57BWkKAnMaZ001lgu1oqai2K9XWsJt4Wigjk9hJZ6rNJ9cd3H3OwYUr6vqabrpuVvH5EhUl5btR2TCzjP3MvoTMYUtJQV0sO4fzZczXVDmCyy4x3GimFc001UimdteSOS+uGFU1YCZY6JO2y2ycjSWMJ8nUqHpEzOESBUJmksWuiTzVDZJOEHWDKPTj0ItjL+GpXM5kOUH2H525PTuCVPKlZFJwRy4lFaK/uNYhJn4ncyMKecYKnDsengSs6xIIXd5Su+yf6h/qf85RokPlYL633xiYhYx8dM2tqEyYk2IxB+Ifu7yxHvstGmB2Zb4MDvx07kyXmXQgePv8m5cEx/XLxlgpheOgXmEQ0r0hskcFnIL9mXuhwPBjo9GYnJyErclHAaARhG8d4gSEQ+jkPVrguFLaaAxTdqJGslBIaZgg0jQ7tHRWgQKnMPIU6rpuqVR2JC5aBLmlXq+naYqDBSBDvThJGLKGEKJUKgWVMuSTZrOptQ6CwHGcFIdGE7qy1uwSRIHLozTLVL2+iF0csaHMwgtWKhXiOvCy/TMLFDiFkbr7u/XZVokATzccp3AxlDLI/yA7hBTPZ3bwiHeNUKhOMhzj7C2U5x5e2Pvg7oXGYsdppiNR+WWl4VePrHvdxvWvP2vi1Vtr142STTwct3NlkNVJ3detoH+rE4K5ztxjjz+m1L+w/Eo+kU/uIQCwi+oUlSwQuxeDQM2OTsXTTCSZSNN8m/FUcwXXYR304fusHOByu73Hhg3odCj6cJUTK6tAnWsOxxykkiwTPGUCVH3CvZS7qYASLJCb5y5tZ1zndQAWCgQ9WFzfGH5Op0LFEgJ2RQXciQD2vlBkpDa8YWzCc6Hsxg4kM4/ufqIZdYSD/ThOCCBhLimrWUMVkUa7mTssqhvKdshMJ/PRNBTMS2VaExlzDHGgAACXUGvAGMg4lRGkcEMgkUMKwYiDHcOUZRpoGK5iiHUhJwmYXvsv1PsjSBrHVNBEx7v3757KpiDpamvWBKNb1m7wREkQnG0PzsVZGo7TRJ6SgKCHbNUnFLGZzZiBHAeZKxMZhE8mcFGqXr7OOH6V4XJycNDi+Vj13r9VgRUKqWkppaWMetiSgJSmT8doAXFuUqykAiqJU1BmDjKVMhF9xvwlXLXseHNlkiTz83N79uyRUvbGiB8dodNOvQxUi4xJrV2R+0vxTqUTw5lrhgy9yMqbHH2NjC8nnQuy+BJGriyRKzx9TtAa1a1ypnxtT9zatEmaPPbYY7fffnu73X72GpdeT2IwfHleRTNM8rXyMeszjsNO0RAfjRxTgZYaqKRC4ip3YNPR0eDIjt6szisE/XfHGACXBuGRoRoT8JqYlOBVwK5hp2ssw3JmpNC+UIFUPlcB0z41LrXA5y7RgpXEW+X7vSEwQPhZxQwIl8TJVtbE8ycEJiFSifXDExtqo5xQbulUvPjE3L6uTajgWDd5QnIGpHmIP7gV3g2kBs6c1GGNtttIByOzXpO1JJ6KW/sj02CDfMhXno5wHA7AcBDoYex0QMEYojSF0gmkCtjPQLjkUl7BR0g2qF1ODhikUkxHmN3gT++9FBggSqWthwt7Fp+y4LOt9oizpbp2hJZppOH1e349z6erTSKj6TokXHKThqF0SKDg0slINHyQBy2UEFJuE9wC8zVxUbv0b1VghQIECogVB/QKFDkhR/QiFLY580SBhhx38uGIUNoUWggUMZ6T+UA3KwnzktW1Yl5+wbDWGmPCMJyfXQDh0j96VGQc1xoFI2szytuiezAiLcq5ZJS542z0LIeN2NjrdEWzzeux2yFV5a8vu8MuhrHNetb0xAAMGmX1ev3JJ57QWuMcmsvQP4BfHCIYNHDJjBrGDAqX/tDTf5noAHropYmemejto4fAW/VPWAno+7P8pbDSCFcYxnlJ+6+TTxCCNWkc/JMCZXOIYAENFOBSniUiU8/HaWHVDo7mzfV+jwICvF/WyzenHSyt+tWNY+uGg6o1WG93cHEGGFGtlMIJbfvnHS8Op1mAJVaZDH4rJklIIutbd4x5pVq70ZmfWUw6Kc0YUyKvnej9vsm7wS1JKIjDHw/zpAF/DitQ8p/FBAxPJ3imUtDPiU3uffieLpSc8Euztrpmw/BalvVzLbwQ7IAHzz+tHsDLojQ9IrlgyazHXkCJfKg8WiecswK/AWOGrgzzO7J/XYGVCUgDiiIzRlLssgquGfd7qjSvV4Ot7le84RbsNhYXcR8JOxrLri8RjstrGqNd15HSAb8vxPNqKoJQsCBcDLGp5V0nW9A0knB5lmb+qOeuoy3WiEU7dttpKUqDKHFD7adKJNqEONs5ZKkTNc08SE7pAjKlYIvda54NvdwNWTffBbK8LqE3mpQLHHp6NIJWXXLpEuIB+Ba7Y+W/sFJw2D/lwgWn5MmrpPJjeABCEWc6xkYB2//WGqxhzstzQqUCUv/zSe7Ytw2Fi4bk5QBhRxjBQNAcDs/TDIyLwdLA+NCaivQgdGIdTtdn5zr1iGSgvMEf8xO6AkM/gCH6tLbSEk+nIg1Zlnhm7cQGybywkdVn2jTjHvP6wgViHxLB0zU2h/PU4Y9LD54U4PNg9sUkA+kzP8YhTWVxZrPExA8+8YOOTuCLjKRrykNbxjZ42P8c37+XsPPG0VWFXJ9AESMPFAT8YfABeagtODduYJ0gwPozAPVUTT+eT7/ct8oAMZi3EmIveZQsOXHGSmCv4hy2XB+i6pNhc0GfDEuk/duddByXpev1ac2yVDg8SZ7XEkKyzLMMB635TsBCTtvC1Z5LfMgI2tFRKTG9ihsLoiiytklYQ7DQoaHLjcOkSxw3FWCglzG/5hghSWayOEm63a5SynEclC6YhWELEZKX0rADL2U4yzrDudYZLk/HrQhYEBB/gJQHW4N9tpFD7aFqozoajY5GawaaA5XFSiWuOFZir47ezZ/+CXiC3nQaK0m4oKlDWwYARQL6w1pNBMUVpUgq3KzEF/J6Zo5zvArsaA/RQ3EQlp+BADVVZQfy1tQjAcoV/0Beymu+HOmUk+pwOipnnKHmUHWqtKY+PLw4IA9yr+k5sU868Asrq0foCQBP+bA3dP7Gs5wUdWDG0m8+9P39umFLwq1gzy/sWHLcyMvWGMU9Nw9ei4o8akDqQ6KF7OmQlm1XJ2qlIT/s2MZ0m0fSzco8DiqmWrNV1mE1r9JqN1wqSaq4kHBHKL6rMIMjLnVwPSDpLM2/wBerd3zepQbyMr4OEEJICA3GymcZT5SXTicHDsQN8OIl4pY1O29ku+gyc6hOUFlD9Wqb8hKKjUBc/QFeG8oGNqiKwSAJyJwd1cN+JAfTykRndCweLbfKQRSUTUX2JjtD7QLF00zjjK3LocFmHzf791qCZ5yAqgmshMmXr4BkA9YbzQzDBmgof6J9xYUweutRgOkGS/TcbdPLfuVZ+Zzo32sJ+l8cH/r3OoRcYML7wQtCin5aOjxd9H762L+IjJuOi0xdHA+I1hSCC0w35Hm4XINRhxg/dFCg1ceKc6G1kyk3VX6SlSIjX7Ks0XNCJw8aVAuEC/wstVDiyWyK1U2CCCmpthlYNCj8pGCjscEhb1EyVmUEh78pmiobK9s9iYEFj5onB/wPLhv+QFqBCAR7lui4EZM5ameImSZmysKOnaV8QdI5zue51w6G1HA5rYJZF7EEr9MbIfV8UtWpjf4L9P4IC35NOMolsePEQVkN+KGD7Hpe6Lrg0iIpU0HB0EEGRLPzvBLdqDN21shZF6276LL1l16+7tJLJy6+aPzCl2254rItl06UJpzQN7Hu5eCnudphjCg5uO6bR9BIR1nUNXEkjMJxobgm6Qkp/4AphATeu1PP2fNeL5Fe3OWMnFD72hvy/AGeRKQ90+WJqNAKaVPaZudvOH+oMhzIABsaFEoecB0uc8/auqPslrNuClIGW31PEnoP3d9gpQHuYGDlkiRLSDzbXlTECMIqzB92qz73c+fYA1Ya9ndXDzAu0SthczZ3lNBNtX1022VbLzlr9MxhPTjO1pw3fPa5Q2dduO78syfOHhCDJLQcZ/qB0MuTwsnrW13gaDDrx/p7x4i8Lhx1az9jACBBYIZ1WBbINHBD19PcNdzVzDFQDqUUS6RgaXMDDvtQhoHtS4STLVywtQfeHOwuKjhtOZgPCBXmuR6HYNA41QcuRA4SEArqEDJoOg0Hm41z7FJQeCyFsD55yA0YmDnM5tqAwGc4I3iGwqU915r+/vzMdxZmv7Uw+43Fma8vTN8+N33v3OS9Bw/cP1V/vJEeUGyRywRSQIDTMINwOWwD8/uuVOR1xbn9p1AmZZrzVJBQuklliI44EQex4seuH3le7LqJ6xtfGsE5RDmK0acD4V/Gq6+8+Wfe+DPv/ZH3vO8d7/3VH/mV9/0wbN/3b3/yV3/hLT9/5VkvGymtAbWEJY4l7F+5emGJGK4MDQRVl0koArW6rVYaJtJqSJgUWxzRrxw34B695gBM8T3hkm8x1g5FXOqnysucmjM0VpMeUQtpONu1bVKx1R3jZ73xujeNDY2BRsHaRKCG7C63j2177Stfu3F8g02tw13SfpYi+4sCeAdk73XyphAoqMMHMCvMZCRNbDzTWqRYRQjCxRvxBwIeYAETL0D2UvpqAlYoo+eCMEDh4iq5YXDdW29688+/7ed+5KZ3XLHl8uvPue7Xf/zXfvnt7/mlt7/7R2/+kct2XOrTEpyZByRci31d+vcqsFLREy55XsBP4GsdYhySSqkCX+NC3G7MZUQ5MGYiw64Rea5A4Uqg4AF86eTryRYu8LYo8uCVmUqC0Aykyg0tfKLMib3B5khJu64lLmEuF0JAUQ09nWaMcEGFS7nLmJff6KQgz6iYy+EvFB3xyUXe9wK7WOuWZrsE2UXIEzmfzHkvsXcTdbfJ7jH6PsJ2uUG9OtAZrqVDXur33TYQN1jVubSu79QHPm3eOA47mIQN9zWuvS4WXbKbZo9b9Rit3T0ArN5dq9xbLd1X8u73+Q+Es8upLVZJB2dBez7JfSvZdpm89GXlK650r3h5cOU1/suuLV1xlbziMnbxJrNhrDksUxfrS5egf+XqBafeYGloUJahYESVaoXNuulq1xCGCVP25MXxAwKS5RXuebFBQFlCMTdjXsZlxhkoVCWyocVGab4VtGiVDAxUJRdkgagpW20OnCHPOleeP8SHXTCCSqJ1S4nIRI0MbKlsgbI7j4Sf+bje4ckBWLjcyMELgXDBThvYHR4yNK6GnbIkZJ2GhkQpJKG+FcOkHBAPB77BWXkSh8DA61cRMIbzyJWaBqmsRH657Z3jnHlp5aKL3Qu3tDeelZ5xtXfFVd4VlzuXnF86d62Z8LqOm0koOkJJE2LuRM2lVeB4EPF1/b1jhzS6nCoogPDU0pixyB3Sw0PRwMhCbd3c4Ob5NVvnxrbOnLNlZsfG2TM2zG5bX9+6tr1luDFR7a7x42EWV0jXx269LxFO9g+D4cgHW4Hz0qIsqqNVsBJaqySNm/Pt9kxXJ2BUHEpdUDKW5atHQ7FImRREPuegGYC9W73oWGKvertKq9xDUk654NLExC5Y0mCky3kqA1auuYNlW/XTsmx58YF06vGZAw/tn9s9Gy7GuAi2lXAh3iu/XW+zsoTLEYGCYA53uObRQkgeaczeufvB7z45ecfU/jsO7r1jcs939u39zr793903863p5qMt1uJ+inPsSuw08RygXVohlbIui0wyDYV6l2W+p90SCQIbwNbnHkTEUvavXL1wHW9kcLjqV9AFZ1m9Ue8mYa5WUAFj78r+iceN3o3gxnmhPB+LjhMcA7HYrQU6PU5Smiqqg1JQGx52RSlqxAv7FrtzIU+FQxxsFM5Q40JWp4pGOjLwmIroVFNNOT/ps5Jjyu3VF+RpGHapUValOmt22jheACcK5UPVgZIfHAqCHvLzVxfg9bCw3VvZChRcJ6vQcskEFVuhHVJSgWkbJ3N8Damt4lmPZpAGGKQ1vLB/jwIvPdjkTH/vGCGMdbVxlXUVAfoZUwthe//C/P0Hd9/x1BPffuzJbz+y/87JPd+f3P29fXvu3LfvnskD9012DyS0CQWPoEoHPFtlL11Hw5MtXHivlQwL7FBap+WhgPtCax0ncTyrFg9GcQvlAc7knA+oTbUFfYAz8iudWmwZz056xjn0exQtL6GMMsGEw3E6c0f7Hgmq3sBobWzLxPZzNp93xqYdm8a3jA2Ow3HTJGpfpp+KWjO4uK4kDrj5/s0AaDpXmhk4/MC9raUq0ToxtgsCjpg60S1CZwgDzjI2y+ksI3P4FQ3ZABkIlCcjwtRzpzo3dQLrecrhsSCxQ2LJlMsTHMxl2pqFWMWd17M8jf6VqxdSOJVyJSA+9ktUqhuFseqNgcY6gROWk3tRnMsgVIQW3BUGOwR4b8lGIJ7mEiV1ouNMZWW/PFQdcYjXnm13Z0Jfl0CpQMIgKnd0IAkUDThO7OYKz2GOSQ022ZxMYCgd+guhlb8bjncjoF1sK+woKJUYxRgfqgyUvNLTwblKFTG8FLwhNhVB6RAkacqE5RbECuSyDnETj2vhWdfRkmeMJVB8xDOxrS2/dlWGyWkFbkG4AImngNTLWNV6bkjJJLGP6/jhuPlgOP/AfPv+ZnJ/mD4QZT+I1MNx+OhCe7KrFiwPHTf26IlauOPYcQzmw7AY20UBuPJIhekq1ZV217ilUsbTRWfWJdbPp+ETOLciWDegy0hJmrKvq6WsVklrgamWklo1GgzaQ1R7YqtDrjBmIgGR7x8Y2/C5y0Y+ttX/klu71Ru+tVr7XMn/tEtuIeR+8Hw6C7rpYEet7VRjfxkH09JSSsaTUqb9vLM0ToTZKzVahmu/psTJG6sU4QlXXaUTsM0iUilO6Ju/n7AmsGkpdYNulfB0YXCyPja7adoz3rCmkM0X50Znm1403hgTrGNMp2MX5sUkfzmbe9XCzE8cXPzJqfaPT5srO3Y0YZkRd4vkO41kssldsNgJ+gAwCpnnWUllqrwYf/LUQG9k/1LiaP4ljLGVk4P4cHDOuZhn8YGBrDkktRbb7iYD8wHRNbc8Mbxjm3t12bzK6jca8ipKrmR8nRtbHoixEltrrcyL7Dj5kRVQHrdlUt4ktrxj+0/81OjPv2/o13+j/DuXDl/pqIrrVhNPqkGS1UhWIjrwmJLXrL/iR69+678Z+5nfdt7z06M/vkFvhmK/ci08E4WQJVpay41LzQmdYvlFBifMIfLonIgHNtV2CDJmTFVVhya7e6mcItle4mRGh25pKNMnQg2gzkDnnnISStvydN3PGkHS9qLQDROnq0XHny+VIscuQP4yWnWv23zhu89763+97ld+4Yq380V196P3pCGOVklL2lSNGlCZpwNdO0dd8Bb25l9Z98vvW/tzv7Xjfe+p/LqzsF2nIzoAB2kGIzsagkGS+K6OU07zzAuvbXg1HCyHNRmXKGO9YU1gtwJFa/CIvR6C+XtDUgIrDCYIrZCiUguuHSeRQDgvcWXqMuXgYDcBuTJWAvQTZXHAF+K7LOkkDDIzmLJ1A86GwQR0WR4UkoTeSnPTvUWaDhGry/pV1X1ax0+te/36N/7ixn/3q8P//hdGfulnNr9rm9gqAyf04u4Ynw5a6YBteB0oZ9W0+7KBC375zJ/7leFfevfGd18/ceOQM6ROVN468lGfnScEy+75gtibvOQlZ2ZTSqAMp32915h+L3dlINMekhHPYw0Oa2odUW153mKNNIZ0twLFkWqQjpEpQiNBQ+JaWR5jlQlWHiWBT+QiYY8Q5zuOe6fL9/sdnjU379WD3f7tTjqOwdL1xvLntQRYWEEnD5+xMhnLZG7qK2YTSRIBRTHwTYoA3cS43cztRG4r9NrAjt/sBI1OUG8Hi83SwmJlzjmXkQsIOYNEwzNPsbv37dm58M3W5G31fV9dmP5mJ/xeQh4kZKezZXbHtrntozOj1Zlyy28dnalI0OgAQYjAYxoqcLU+rrFLfI7nbqx4XhCgfqDUxrA1v+u1GqXFVqWZDafeOnfNjhFvnDAjpfJJSKJ6bGMrscDKMSTx6rwnwaorvIRnTPEro4EbA/8aVrpGlF/hlq7zxGW2vn3//oknZjfuT0udfDxmHkEG1AuvsNK2NVvectUb3/uOf/2v3/Gvf+ZN79y+eaLkCciIvkDHZBWUBxknvOoMXH7Oy95y89ve+cPv+rm3/6sfvukd6wbW2y6hWd7zt6er0e0a7Hq2usA5lwIcNaYZeEOlMgPB2EtCmBvzlz8pwHZeRxKXUMYHqoNXXnb1O9/xrnf/9Lt//T3//kdf/+PfuPXbu/bumpmfZowppVr1llXERHbQG37F5Te88y0//bM//As/cvOP3nzDjevXjOFoVYvVL3lOhXfBWh4gDr3GjyCXpXIc43m67FpfEiiNeKhdQGdEkI0zCc/CNRMGbVnPPmHf0fzy51ldorXKUKfAz+L5z2cG8BUN3U0rtnzVBVf85Bt+/Kfe8VM/+aPvfOsbf3i4ssaRvlKEcS8oD2ABxeIMEOP+uusvf8VPvPmdP/u2n/up177r2nOuW+dtJK3+rQqcfHCwi5RmaWqMBuXdP3rcsMbgnQW1mbKaBCUvvXE7v/ns2qvPLV2z2U44xhDdSsSBhdr+xY2z8cABwl4y3XIswuVFQrlcKq+ruevKfE0JQgutDdiQxJg4AduMD1gmpVJJSmkgouDI8zNGyxAnSZZlYNxBZujDszS8CFBapVlqtC6VAt8HKwvAN8q6qcrQOJ4O8Fy3FJRc13Uc18vhOtiXtq8tnhGB3W5Xa+2LoEwqLnXAc1SDKhjNniuG65ZO8yGJ8IlfEpCzSh73NBQ6ksSkz2saoRUNzpmUqLgxWKyF9IxzPPSCBeflyHdOEkCxMBCSkB8Z5xW/UnEqDnMHagMXXXTR1i1bPvKRjzz2+ONwHkSr63rwnNZabRTkiMHaYJmVITsHTgCvQOIYMiUXGMvLkR+Ba0H9ACDzw+366Qf9Ks5kQWLsAacVTv8DNvxZbvI8oOAGPeGS32DVCxeT4VTLLnerpOI7HkTKcHUIbCO8eJyhnQzDELsicp6SNCWJQ2QlqAZuqUzKQogUjhWjoV864IT1WmM+4NxuWNs/etyA2+LYTEj8cGuDk2mB3a7VaqNrRodHhr0Ax8RAquhNMY+FKInnvlQ4hl+mKMDhzfCfxWUCsUsgHrFcaIlDS/LeW/ywAQUbAITyct5qZEW+ao+rjGuMS4xHlG86le5CbZ5foPyrWOUmWbqZ+Fd5pYsqwUWV0vm16oVgCNdsuHrH+FnriM+TTOuU0VRolxyd8Fq4BMNhWsENd7gLfo7BA524orhQVWZdfEeHtILWfG0mHoq7pXhedHSFekNVKdyAlEhMTIPwVArt9Do5YsiBwT5UNFxViEg4327vrqePKH2/ye7V0b2x3atJN/c6eeMd7uTjkxxF3ExUlF/V5QFTqZLSgKoNmxqUqHXWoAoCzoKVFOCTcLofyCwOxSHz3LXlih4s6eowGx1y1ri0CtHab8mkkAX7K9SsJgiBMz3jHpoPE8cxaPB+LsM5xcwLc9svAEYYKJRZRjJlslgzKyBepHb9tHzW2rN/6vU/u2Z8zVdu//KnPvPP4Oc815NUgrjxTFBWtaodLJHakB5xjXIzDcIEnh8iDiwx5gU0MEA0JNKWmQ6krljjaGxepCCUDmVebmzAs9KQXTNghqq64iqcbgDCozfvJ2QvzGHPD1B4BfeMe/mvi5PW/f8lwoBTHk7LZQWmyZVKQMFQQEbMrEvLvj+wcfOZA0PjOsNmOte4TAvHehU7AHFXI0PDyZqhaM0YGe/fq8BJBygHkJggHSwW408kcPr4XgEIsprWVDs6pVFXxSFW7+IJnHglV5a4ZlkEWQxPfWlwDMIFu0PmxgAeF2wVzukO9gb7KgipXHDGA52B0WZtuFUbbFfLnbLXCUToIyNHxtJJhJtyluHc2li8AYJsh3uB0ikbVU34RjtwUZm8Wnd/vB3+GLAVv6Obva2zeP2ByQt3PrH+Bwc37G1uWGiO1LH5/ajkmXAyXN1GALUjlCy7ZShhZKlqpa0sOiGlc3h0sHM+JR56Dk4SmaBLBc9SIzbARg7ulxgTDnFR3GREWIlz/C8pGR6TeV0pkA/46sus+bE4/GSWfYIlHyPurZUND5yxY99549PDZIqwNp6Grgm0iGGOYhLXjpaecmQmRMS5hlDKZN42jx2zIX9CrsnJsQeE6xCPK4/EnqM9GnEbUpJSnCct73YJyKcoWG2lQhABjtMbjIMWJk0z3a9xwaqsvr05KYDgjXVCJHg2BwvqVtp8yROuGOmQtbWN73nfv77o0gu/8/3vfOUrX5k6MIWDkENCQ+pkDo8kDXmNDJYZBV2Pc1Lja2AO6gsXsI4o7sXA/mBwf1CZciuLvBRJlCYQpfn4atZx3EXhTDsD87VqvVJql93E51rC72DfLNQuaIPzTPrcyFSWgqPGH8eMCT6hd3y1wkko7WqRUpfkfW+x5AzR4EKRYHBozc2ve9OrXvVaHARhqceCMq/4tCQgS3a5q4OaHiolNbe9kjqQrT6AagHtYpTiB6b6h44bkOxxBnNlIFFAZuyG0cg90863dobfeDj83hP2QAcyk606Zttoc/vgnnHbmSC60r/25ONY6np6fVz6xgBsjWWQ2iGza0oVBWdTyqrlVo3POuqApbPCb5fKUdWPSn4ceLHv9pgEXhqAlXESz0kcIIh6mnKqwPxRIYVTkjQgrERZiVGfGMfgorIEW3nQLMMPWhKkpWX0k2ApXeWBUZUWCuhgGqWAQhQV1LDF+cXPf/Zz9993f9wKdaxAVHa7XTBW+Xz/8Hq53c9FZ6498dMRsHBHiZIU8rqlcDk4VZxQEOwpJdJInOM8Rtvqc1AqrNMMsyxT+RxtVODU6cZqKCvnRPT98eqCISazWZh2IXhiE8ZpGKvIMEwwkH4YlLGfoSg4xA+GroUMibGQYiRgT0w8iMsM906DoxB0GkIPkh82I1LBhFIqTRK379FXKnpJbin6XywBHKSHpAnsZ1mKYQUn5mkVykQnrY0DnkMlGrI/l8L1PchiEFm9Clh4HOFQV3pvffNbr7rq6i8APv+F+fl57I6iFWgdLqkxBh4V1YLKcOraDOu9Gc/jGW8Bb8lNxyzev7B452Lj/vnWwwusmchIC5yun3lQDkkdPRW1H6xPfn/f9F3TC7sWoKxiNdaXwNUQSL0nwUd9BvLDR0ArndfoYabkQkAexzpzuA8IGKzKepZLVjSwtC6EK1wwY7DbCynYAfUmJT377HWbNlcgOtJE5dlNAeAEMHdwJjb99qr9CrxEAJMI2Qc8C3fc0uAQHGl3Qo5zcNL3/5+fW/uLpX7Sf17oW5SeQ8Km57w6B46lSbZ79+TuJ2f2767PzkS4oo9L/CCoVWrloCwcD3NHT+svAR46KTgGS4erIuNb4sNhOxHWy6Ozd4QbgNywUi/a5qOdqe/Ptb/dbj/ZdpvBkBkpJ9VSUimllVJWLoHCyEo+bgMv83FkTea6ypVKBqIkeb7SIacWZ/Cz1jEGR6soIzToAbTJ4ONzF1ZS5WUcoINLGdgSN0IYyY3Mlwrj9bk6RG0SJ7//e//zve9973/8f97/5c/d0pxrBL4POTFTcJcyRD3eHV1I/ueZWCpcoESPJUWwdHlBEPYig/oKkBEooHSbUbvRYQYK/riuJC9xZUDBYPo4hPxHnu13VjSEy0fHR9ZuWju6ec3arWtHNo2OrltTrpXQu4JH6p91BBzpgCmFtASusOd9QaKorF8I7k93BbGPuwyzKAS/4LCBQIQTwPqCCMVzVjB6SeJp9A8vAXgOEL69/d45OBnxoVQE3vekGQ5cGzSPzhjsGQVbYFAxQPxArnDABUIssyRLrr/+uhtuuOHxxx//7Kc+B3EnpUhDlcW4Llgcx47M9SqO+MEZ9HCZSHw5UBxwF2G7Vj+h7cPGPJqqJyPZ1k5sRWpFTJyMlRJJZ5V6NE6fStInk3Qqda1nM0wjfROVE/71Amop8jdYDpyWCfOwxVkv81Vg4CBu8NizX7Jygb38tM7yASm9blL4jpQ4HKIIJE1+Uq78ICCyNG9Js1jhB0GUxBDniQYNWuClA6hMMI9gDCEuIeGWSoHI6/Eh5T7/5IriHIH7IFowx+ChXL/nUW8ksSXCagR7xAMUgWy7uFiH8n+v5QiHrMGPLmF+3snAMQgXYgTFWRNRteB6S72mIkKkdUUqu9PR4iON7g9i8ighuwmZFGxKOvOu1/Kdtic7juxI0ZW8LXnLEQ3XqXtOPXAagax7rOnQFrcdokJdmR3cuPOMjbvO2PDUGet2b123e8v63Vs2PLVl065tW5/cuvWJrVsf3ywbfBnpnFlKWzdZ26i2ztoKmHayWmnQ5Z5OTdgJdz751Ne++rWPfvSjn/vcZ/dPToJ0hWwsnXy8xjGB2kREiQhBuLhJsKaxZtv8to3zE+vnxytTVT2pSRMkWdYWDVI2dJR0RTuTMa4PzsFCQ+AxprGgt8qQnB/Ovmzf4isn5944O/XWffNvmz7w2p2PXX7vY5sfnBqby9YQklczQ0aBcq5iJhUmZHHipLFIW6QTi1j74AmdDFd6AIni4BDZnitiENJZSuKUREYmRMYhbWs3s75JaQx3g9N7uRanCVlhy24/H9j+apS5hcml3qH8m1ud/v6LD/hxgtWHJFFYZ5JRlUChgMeZY8HGxbiIJpNUDg8MX3XVVVdcecVjux799h3fiW3MKzRknViGLdYArQLXEqqIsEr0Iy5PFlwm3ElpbYqwKULmCGmScsj8hHgZ81IWhDLoOG5LkDqhCxS+FV3hZSVBPNCwaNKA2HusXwR5ToDFhctQieVBCL4cpRhc+ryuXnmIpUodyHRJh0QpzcASgUmn2LQKvhCLCSofWssdkkLkQtleJEqo1E1i0W3yeks2Qj9v7i2wigCqJ69qgQyAo14dzyHXlcgrR811a8jLamQbJyVCGwnbtTD0aHvHHrZpN5UvXSo4FuFyCHkOxzwNJSawpCrN2o321M6Z+qPN7kwIiR37eSg1Nze7Z+/uyf27D0zuOzg5eXDywMHJg3P7DszvOzi/bwq5d3p+z8zMbuT0npmpPTMH984ceOrg5M7JyV2Tk0/t2//U3n279+zbDdu9+/AjcnLX/oN7Dizn3smlnNs719rTae/phnvCcG/Y2tuYmZr+3je/98XPf7HdagvOn9r/1C1fu+UP/uAPP/+5z9Xrdd/3u50XMrRLsTRREdhxT7nOghPMBdmTWffxcOHhhdlHp9VcV2ml3JSMkuGNg9rRyuJkMlhfdSgU84BcXSiT8ppqdVMt2CT9ra63TbhbPFXOy8NHOgN7SLs0k3ZbdSMcYZJELEl4qrErqm+oIIzhBPegLZmJVayIik2U2UTbNCEhqkCRQSxYnhcc+/fNbw1cXQB3CqVf2MFkQ6jruv3ln+B9obgFX5y0ugFIxRwK5lj9xR2hqNJEG2FSnnVt0jbtTKdlt5wmWaVSefNb33TTK2/667/94Fe+8ZWubrslJzKh4/LEZKnVBOefwL5L/Y4lEI2GOpo6ilKcdTDvqoQvmLf64nBNnAjJUoGzARkiQ0FiIlIhdN4cnBcZEccS+VB+hfuavI8NhGGGI5h69S/516stHYE8MSYgVkLQQgjSBJIVdh0ymqTWQojjG4MkBkGjiZJSOA6UEnDeGwXFBjfWpSx2TqHZpwqcEGDW6RWEDJaOAt8jOzawLWNDW9duumDH+Jlb8QxLGwtRfaaRdcDoOlDwfqlwrMIlz8ToITBP5/XzqNcd7g0MDYhRTqEwDbeEw1LUatXB4cHSUDUYCtwhxx2SzrBgIy4f9uQQMHAHS/5gyRvwvUHXG3C8QekOimqtMloZHa2MDFeGh6uDQ7WBoVoVOAysVkeQA/4QW8ZgWB7BIbib5ww6fEiwIeEM+tVSdesZ2y695NJKpYoNQ25549qN111/3bnnnhsEQYpj4l9I1Yf1sTuTzXS8EB+45+Du2/dMfWu+/p1WcneG42g6YINpsFmMbR/xh10aYDkO6wJ6nid3N1DQW21gRDsmcqNQZl0viUsqLMUgR9BKAiBtwF80jSgtQLhobpyaF9NkX7x/d3v3ntbePSA8G02LPScEnsmJhvKg1QYFn+mm7fnW7MHG/j2zuw5GB0LTAfmiaT6jcj95Pj3h0GoCJNHDzWeUUc8D4dLvoABBBEdOXlLSeccPi8UyQ/VUZ2qyMXmwcfCpmd37Ficzlnrci+NEcFGtVj3Pu+a6a17xylfcdsfXPvaZjz124JHp7tQTc4/NNeeFJ3BpIEqzXNMioLDXEy6autZ1cSgZNhNT0Emc57MgMssEZQ5jDsS0k2K1QL4uBHbuxZscSgb57vNKAxCMIIvyR8DzlVI4Y0JPEfZz6qpCbNIuiafbc7vDvQcXDh6YPbBzz5OpjsCUqbyTci5KIaeCTcRGvLlwdtfUk/sW9uzqPjndORjyTsSj3q0KrBqAecFKWwaWEzsWYqovUetZLbUsy9JACY4LITBZRFaHmqcOFCD6F590HItwyV1uby8v9BmtFRRKrGa+8LZt2HbxZRefdckZAzuqfEIEa9zShFdZ6wcTrj/h+Gsdb63014ryOq+8LqisK1fXlmtrK7WJam28WhurwbY6XqmNV8QWk5xTj89ejM+dD8+dC8+b7Z4/3z1/IQSet5hzobrWXcbyuFzK2nBlpDoyXOtxeHhgWHJnZGhkw4YNY6Nrrr7y6ve9732/+19/9zd/8zcvvOhCMFsQUz0p9vxBLTNUkRKO7y0JvxqX7H5tH7TyCU72EDJLXFlaO7ph45YNW6/aOnH2WJe3FZhhD31MzxKif8X5fPPbrSK404MTs2cML2xgTYpdlRXhDe43qmPzmzcePGvtzjOC+SEs0GEmQWZcd2302IEn/vFLH/+zf/jA//2nv/zgP//NY0/ua0VQwiMJhA/WWjPLCZTvu6rznbu//eGP//3/+bsP/PHf/sFHPvP3k/X9vEKpzO92OGAh/0FyXV2ARNrvypP7ZyEklpBy54rv3Hv5kwROMiifa2PtYqt+27dv+9DH/vqD//DBv/jwBz5126cOtCcTUC1UQs4CEZCZzC97b377m86/4tzP3faZ//h77//DD/3vv/zoX3zys5/aOzWJShZtZf4KOEKeCkM9RV0FOsQ3xNdYF0JCSlpUt03atmnLmg4kDBC11glI4CoplWQZM1ifmediCIljCQyGU9IwsNa9sNS61/+7F86rELwkO7b1jbu/9Zcf/uAHPvTnf/5XH/jybbccnD8AKpj1xuJpHJ1uwcITPR0evP2u2//6Yx/807//kz/7yB/fetcX97R3koH8RgVWEUC0Yu7heWZUJMuy6mOT2+ai4QN18+hTyd4pOBgZRVzSrPCdZbZzrBSWev2hXgIcg3GfLnVTGg5Fak2XuIp1Jet4NCC6YpqJM3vfxvl7L3rk0dc82XhbS79NhVe39m7ZuWvgsdnq5GJpvum1Wm7YcpKWbDSdhUV3bsGbnQ2mp0tTM9WZmersTGV+trI4W64vBM2G1256XTi5I3WXky5DtjlpCdIUpCHJTKm7jLPl8AhW63O1mdmBg7MD03MDMzMDU+F4Z8Gbz8r6t//7f/nd3/nvv/Ebv/mqt9w8vGXE+qxjQuKyFPvP99UL+DxhA+VlYbWltRhaGB+eru2d6FS9ZqpmTMlz41In6DSuamF3jTHS3RTNnTm/eF598bxGdqEmlxByJUluDA++dWH/j808csWuBzc8sVANSSJ5LHFdXFCr3ETCxIKmYDNXDjxlwWNlAakHJOV0vEMmmno4NrqkD1RIx8sIbSdr6nvGdnWCrkv8UlIiXaIdHQ21Zkf2Tg3tXBjdl5Tb+QoC4Pw4rnZhacyjOWf2tsaXv2A+9ffmL//K/cNd8ePUh4Jv5ijCQiJiSHLStVwJ+2S8/9u77/779HMfGPj4p9LP7+O7E9O0MfhRbjUHmZRRqlli4bKVAywUCCjRPM0Ue/McwXkxHdpFQ9o0Y37TDpGRTpuSoQqRjDgsUyAST5IKltYEhgcgM3QyV2t+xfn6n/sf/4Pqxz4mbv9m94FOmra9qOsm1lIRCRlJJ3QoV5e/5sKBK8q37L31k3d/6vbd3/0E+2bXbcoo9SJs9GkxElZAjnU5DxM3OzjC5tbPRSMRFA+c/UHly7XNf79t81+dse4j68Y+UfG+GPv3tUkzbVOeVLJ6LVkcarerbeyElzgidDlkLWJSL1FM5iTYJ49pmpMBuabY699SKaq1LYokAzQLzIyf7ldqNvU56c30z4lccf2+QeMvoTUMp+RYQnhZUrZ3h9/7fPSZz9jP3KZu/+rsNxdINwExqPIV7DVxOqSS+qDmFsT8/fbeT6Yf/8fgw58hn74/+0EbclZntZUKVjT6XVPyiXSxFvZ5KO5EhMaCF9LlyKmGzkDi+i7o1CaBwgIjniiJRnXNV2rsHzX/tMy+IBrf7WJzYsmQ9YRsTEuj3YppsxM9kczzx4lMfxBkjutQn2IvHp/CPk4hfGpACOzJWK1Vzz777DN3nNnrH3qswIoZnAAUUojGUr0k67ZvXrt909j2DaPb19W2j/nbh2tnTwRnrfF3jNW2bJhYu7ZUKvUvXqWASMeWi7zAb1Veu+xBRsKcBLkHG+CeOxM9O/LAXlJ0TkyapRZviX0n89rM0wsgq1U++zMGNmP9zAVJMa8pyIP5WOoZTiAwunGQszI4xUBmQN72EkT+bb5NU9CTRDrS9x0wrY1GQ2vlB4HjOPAVPvgzO8fndwETpYxu1OsHDx48MHngwOTkvn37Jicnm80TNt94bzhEnoaphjc4PPz+tAEUrzEGpMR6yiQXwLCNIHFhhAIwIxdY1UghH4IQgbQPwjZOojSayTE3N7e4uBh1I0wVYHKqhAwy13OxK29u518SnEjhgl3x89TveA5sYR9rXE8NpEkahqHgfP3Q+upQFXsQHzvQk6J5VlmaYh/ssutd7nlXeP7lXnC5V77Ur17i8zO0c6Z1tmk90WlWpyOx6lb1wMqB/h6U5TKhEhbpETJ0ljN4/kDlgmEyTqhLDQ6XwikgsACXnw9pHJxu3r+nf/1R0K0059j0LDvYdOod2eg6zXa5UXcai2Q+rnWzwVi52Bh/WiGzSb3TiG1KJEgAUSlVpeEkzHARZpx5tjcZ3cnAofg89IMQoTayukN4xP1E8WZKwnwqOIuxD+dzTQOSsFRXSGldlQyJhVY9nk08kC62LBLpGqfESmA0cQFqixIC7umGBKet09SwZCGbW1D7MwE/gVJY51NIDgZlB97aEJw5wRied3zHgdo5nm5/P5Tc4O/hlJc3S8HNcOHrEvcZhikux1pPOu2kmw/2y8+FNztZoXqSgS1BPEtlHLndKAibvN5mjZZbXywtJJU4rsaz/lxdNOuy2RZh6ukMiuc4rA8npT6xjqPAyQd29cirHyGXZswmQndYmAQpWUPIBGETVI0k3WrWrsbtajcZTPh6Lje5pQsqg5eMjm0f165t40xdL5l/P5HpD4Q5OCqDTS7g33EfjvS/e6nBOfN9L3Cx/gML8i+oba5f7ACDpg2zTPpy7+jevSN79w8D9x0Y2jczMLlYm20MzLUH5zvVxTBoKHFCZuk9VYDLQ4JwOeQicTCzq0K3a9eT0ZeVxq4bGX3lWrHeM65WLAMfgiEGHuKQVgEfYCi2nudXHw0Pxffctnjrl2e/+OXFL31++rNfnPn8Zw9++vOzn/ly45ZHkh8cDPbEzkpqCTohSFQ4tTjdNF1IvVay4drIAMgBCAYQB4Yq0JMny5uAycNYhQIX/IHP8IfCc7QVbzSzfY/Nfa+ZThkDhYMUE4ogyskW9MKd++5+qrs3HTJmrSDriJpOW/s7ZtEO0uFyVmNdKVNHqrw3E8oFO9JZ63VdkTjEYf6ZLruakwsJuYiQCwjfRmiJJqH2iOK4Ir1yjAZya4EgmPpFQdiijoHb9f4gMQ/naRKnetLCUXLcH5W4qj2LqJmOG4tJ09J8eQogbF66YuWLBXghyIlMpzIB1dIKGvP+zLfr3/z01D/90/6P/9Pej3126lOfOvDZz+7//K2zX/32ge8+Ge3uukkiDKQxrF3DyZhOlar0Ai8MkKoVA9XCMk5TTiKp0poh6wS7WMqXe8EN5cpNA8FrHO+HhHuD493glW6s1G4crF05VD6zatfQDusaULAvWReXEypccHIwnIoY5xDL11LoTyZ2KiBJEux8RCxOc2XARvWPHxPQ+uUDOmC/V72Uv2kfOG8VTgCL9i4/Mc/dq87oLQOOyAUIEQSBxPmreKVSAdsGYYUhBaHwgoL6zrvu+spXv/KFL3zhS4AvfunWW2+95ZZbvvSlW26//eu7du1qNJunZ31+s9nE2cDytqFyqex5uPIZhjDOAtfzsy8FMJZxxVooq8zOzN5///2tVhtbH9DJYS6AB5uamoI4nZqahtMdR5YnRoigcauNbUZ5r0Ao6vRudhjwQr2GRul5Y+Nj27Ztq24vjW4d3LR9/Iwzto2ODOMpJwKVaoVjTY5RWoVRCLai/8Vpg06n88ADD3wlB+Q0yHO3fOmW2772tW984xt33333gQOTz4ydAqsMkFs91xsZHp6YWLt27br169dPTEyMA8fHx9aMjYzAN8OO44Ljw9ngIWt7OMl0/+KTjhMpLNBO5dUSuFprXjnRO3IqAHRF78FgH8fKvqBORUbj5KQ4tSSUVzSusZr6YQb0YuUm2lFWWFxEEMq+udF96TzJiwVwRL3x23kNCgXRnVDTgEKs12kMNmdq0wcHDvIBGsswZQlOwkKZ5DhvIa5Wg+FhcEhzr/rlqNilHv/u4je/Nv3lL8/eeuvirV9tfPX21u1fnr71tsmvPZk+0Smn1s9rv04nxKoz152rq3bGbULogD8wyquV1OUgGw2O0srnITkZMDgXEUYnbDA9QIlAayIzUcm6fPbJ2fvqjdk4aROmiYNztGQiTbzkwcmH6qKpR8i8bKYjZt34ZqKknkk6B7pO7FbsgJN5jnK5kbneIU6rVCI1wV1SsXo8iza37dlZvLlLN9ry1qA0VrFcC7i3JdxCkKj8oXAOQkhfh1MYs/CweVbEL7BTOH6F7URSaOko6WdynTcmiRMSukDSKd1umtBSUId5/oU3O1Vs2IlDL3QY1lZFbtj2W/Pu7F0L37tt+qvfCb/1jc7tX23eenv3G99of/u2g7ffMfm9fekBVcZpC3KJDP97LLCCYfJpb3Ve6YLDJKRu6XbdqbeGOo3xxvzE3Mza6YNj07Pr5uY3LC5sXFhYu7gwOt8cbtS9etttg7MjFkocL8iPnggcQ/pj2OcS7CO6HQu6C4d9ozCBohXWNwhucHQ0Zvc8p2N7UV5Be0pAIDhnHIpWWGWSV3bCO8BDgnMF9JTWEUCr3Nde+CKWgMBU2BYGthgu7g1ql0hcmVaSDJeQ5BmVKXFipBcTrrAz71L27r1CkXuE3gbnSgFvAB7TuoR4tul1OuV2p9pu2YZyU1yxgaHOw5p/TOQY2HmX2jwolwE8FY5gRsApkB+yalZ3W+mabK48tzjSOFiZnirPhSNZp5SlHiGD4Dv7l64OQAJ7znTCHTLTmds1vz8SpBFFw5WhEV51F1XZCFXPSMVV5iTZEWMzZfNG4bwrXy9RgHxJaZqKuE1bzW57oDqUkgwXGNWZ4aqtOsa3ylOxjLWMU9axrlm7eZ0/UosXOgsH6zRiFVGzMbUxCB5cwyHjcGuqpclEFJa6raDZlmlUSZOBqOt36mwxollCwgRMEC7LqHF5RZzsBw1QvmQRPlWv10v+Ic/RIG0U4UzqCFKopCEZ90fXuWsEcTJCW4zcN71Tebgy9WHTePIW3T5p6MVXLj9SprosTMtqni+GQ9GMN9ccas+UZ2drs/PluUbQyspKe8rYfJ7AXuCiWWTLkiuwf/MCpyQwEXPsbY1/OQd7jFYZYg2KHNhVxRAXl9mJ3U7LbyyU5meDqa6fdLy4FbQbQWPRm5/3FppOM5RdBR4O5ygAU/2SpYFCOL9AQMYHv81xWGWfQkNyAPkmmJZQnuOw1bK3SMIqAlbq9/bAN1Cbz3oGBLeFreZQJjOaa50PwESBkn+bn3nI+j9vLwBGEtQJlAY0DnO2EJBYawOXwz0x1/RPO30AL93oNmab8wnVXDqu460fnhjyqlJR6lEqOUi//qkvNjBy82SAkQvbvB4DhSxqVUwJOD8RzUvoh75E9hJPnwmPjKuDQZ8PulkU1ecWSWZLTkkymSWgImyLNkLW0TLBXjIESgyKBVi5003DmMQ2MMQnCnyoSzScIKwRaJoPD2Prpczc0/Z+/xDwExVUgKTmhlec8mh5OJ/p3umqdLq10FERnIEds/KT8/dcVYCI6TMPmF7oQHaDiMPutzlxUkembK+Tch5imBvz6MYVAvBQgRUOLELm8YjxiZHbj1XMx1jszD/kgJyA+cFYCronz79wZp40XioUwuWFA8p1HMUKF6ZHAQS9wvPFHUG7AFfZNGh5JUvPosOGsZ5wyT+AsbP5OA0ULlxDuoeT85oUinV1PacK/3t8TuQOB0wl6BVwSEAL7InAwxnsdAMj862FPQf3tdIIR+4R78zN28drozTRQkqMmpOGntODqIVdjI6eI8vnU8ROfz3hgr13e/HYPxXRizxk5mbayZyKrI0MMFdGzXZ9oRl3E8kcT3o0o0kQJzzUHAdLU4fiMtQOXpkQlQmVyQwCJLIaUkVMSWSSDLIahzSHjwLo/X06xfUeIN9aywST3HKXuWtHJoaDIUa4JWIx7h5szCXYpzgXyXlih+dfZcgLEvnb5eGBEXQ4u+XMhYuCXIw5Gl+/dwbkcKx9AuZersBKxuGi5OHo70Upxm5eUclzxd6L7zzKQc1gp/XDWhar3/JLXgoUwuU4gAYgpjQhNLU0NSzLl85RqVCJ0InUsdQZ2MNVBCiBgV3DdIxNhpyhUOMCS2oQGLwvLqDgC1KD2XxEdK9WBpgn/14eeB6QCtkX9YevAiuqqZPxIBFSnX7jGhhpZ52p5txiGlvw0IRuHVy3vrxGxHn1lkrz8DopQBeGfyFaUZ0blxifWM8SL6O4EqKivQjEvnvGwhYSBq4wJA0S54rQpFOpN73FjtskVVMaCoR0EtAu83WQDRW3xpVIx2IySnByanCl1jrKZ7FAySSJctLMz+CrpJyf4JEWT+E0JbBlqBcKOKwa1dPTA6T7qYjBYzNc9EiLsgg2jawPjK/yRXpm0zZQuXiiABGeu/bcWa8qSBC6WuLi+bDV+TJPWjDD82UTDomX3DmBDoUMLpVwkNzBemUrjOEQWgVWNnoCFY001wyiWGSSK45VKpA9c8PLE84TxqCAAGWHXLFAjpCG5EuJQSbPu9a9RCiEywsHik6sUjO6z7yJhGuDVD3mda2rB+gBcjOOO1hoQ0WCpdO+OsEdPKFHOOOQy3h65/kALSaoImDuIZ8mHsT2OC3wt04zgLNVVs3Mzc41FowhxtjtG7du27RFUI4zIqb5pIgnC4fiM49p1KxInPEXh+dgN868SP90yTxPJ0j4AhQMbEFQKKoSkiiSeSW3PFITjmu6SWO+niap9B1/uxQ7qHumw9dzR7hxO1YxSGPKKNPEiCHmnSvX79jqbAnkmEvdp4dm9n6zV6mQfzr0ED1IeE40zfBtpVw9+8yzBTjlDHRftm/mwEx9XjjwFoiTF5onF708m7O/g1WnBnZ6mQ6ZxxRWoB0iw20epPRwE0OBFQzMFxCVefUKWBCMZdjmBPOLMuWwqOW5KcZKVEwDSMzCBrNz/2YnHYVweYGAGMOY7w1aAPmCTSS4zVWLNqJPTAKrCmC3+hadPl2bgk4Lt5iclgiXQ+0DeGZ/9/kC63Igt+CdD2kX9IKQf7A9TmAvotMu6fbGc3SibrPd0tjJ2U54Y+vH1nqO0w/ekzb7QB65h5A/FnZ3xz4mluSjfNDHoZvrn4JJBdm3emABISWB9pI4B1qsokQnlWplZHyMeG40316cW6xWa1sv2rztis3nXnPu1ou3jQyN2hQ77XKwqNqCgBsYq+64bPuZF5y94YxNI+vGnJKPN8WfQvY2cKD3pIefA8AljlpCz2tJyQvWD64nXIAYUsTMLMzV2w2aj/DHq5a8wGrCYbGSN/XCFgf95VugOMReZDF+BPtjiiBD9u9VYGUizxRoVYEY0aBXelGMa69j1gVitRzWzKEp7q3JDif0Ewae/1JWRfby+vPCGpVJZlsuabpQ6vVGOsFQ6PHB4SdFvFAy65QxKlFMH539e50KwP5/EB+y4lVNYj3hc6wpxaIYx6gSFHup4Yn5qKNnD6in69VyO4h7eTU4ftEjfIG1bEflygEUhAlzK3VSTnkq5VSg/CQd6aTEZDOVOCKJiBLSxQlPSUq0MRGPIh7GMkpFitUv8K64fj6EVB5MVFuKvWGgsJvQLGZZxLIQyLOOSEKeKpsRpXGhRaQmKs1o3JbduteOZXxEGD4rVxcyztrD4W770GPdLwhvbiD2B5pnXMl+eLt4eRZpMkKIo3vD5ZC5e0Ee+gtuGCxOfqfjhYxROKacdF0T49i5FrFNrpu+CqXNNDO+SjySeqA1UMtg4xBzaEpVl2aRsKlHlSBBVHZCx2qbVpLWmvr+4afm1k7KcwwZp+3pendf0hjoRmN6fmymtXnmQPBIVm1xluJgRe10PDo7oB/dMHPHVV+dvPypxa0zoW273HUyxzESvS4GAqgcGQ1ZILFypDkw1ArKMTE0jmS35detCc6tvO687I26pRyZMDL51OznKhunMlZXRpjUJ8oTxuF8pU11uCwXPIMRjzFjsihmcQKkUUJjyFkZidQhaqMg96U0iVkU8rAruki4kKWQSRO4T4FTBmhQIdopeCrQ5JTko3uw0yGn4McUI6k1vaIf7KNbowSnbcyYq/EKJXQo08jNIkcl2L0BFQ0Il47X6XrdyIljmaZCpdzGkHioDpnqiqwtkvSlc+jHIFwOG0DYwzomStI0wRpfTrVKUxWjGl9BADsOxSyVGWtc132W4dAFCpxS0IaYNDXd3VO7DkYHiDSszMbWTmwc3+JlAcGhMIfUM0rp/JJ82zuc7/T+nhLA9obDOgqeSxOtcIYFf6DEK26rMd+Yb6WhElYaHPHMSp6f1xDAP9S7mmeKp3jhMi4DCOUMDttI6kjaSGBND5VEdvgwr1y0bvuo4NwTMYkfnXl0pj6T5VN+oxfoi728WFqgQIFTCcelNXAqNsziWO8KxZve+kQrCNroNM3AUMH+qTPlTIECzw7woDhAi83Pzy0sLPSOVSqVNWvGcApLTMUrGfB2OEEhlCKcSrnCBO/WO/X6YreLS4wJIaCM0T9zCSDbLsWzKZdnQPcKpaZUKo9PTMC+5TbRyd59e8MwzJ+iQIECpzSOrcblcKtWXhDByWu6UTszMcVe5vEpVZ57bjCcFW1kZHhsbBw+5QWsAgVOYUBmFcSp2P2NPQ8e+EGDtGOSgRc+c8N5Wytnka5HuhSbArD75CH2r0TYXpv2KQMcapsbkvxD7xDBSbe58Qa92oZBkpJkIV6catBMeDRI2yrvlJ13UGFwWmJEghNhLmGuXY5EggRj1XVV5GkNZSsIopSv4+suHNtxQWWChWEswicWdt7/1ANdEmXMMFy4A8IaK11OsTArUKAA4liEC2VgFQylODMYtUBlMyisDAxXB8erVuaLYq8gcOK73jXXXHPdddeVSqX+mjsFCpyy0NgGJMpkJjl4/8H7Zu3Mgq13SHTm2NmXjF+xNdnhRCWpHexPp2V/gCu2rfSvRpxKThiX28QVlnLVAhoG3g6UFieKZZmTyCFenRgVtVIWZvNTddU1g95Q/naC44AgOFURio1AR/AZCFIkDox2IhygLSTxykF36JzB86/ceMkap0I7nRk2e++B+x6ZeTRxwIZZy7FBKifcoKiJLVDglMMxeOt8vvZDredYGrHC4SBmxifWbNy8AYcKrCwwwrnYPLrlqquuoliTlBv13PxB4Q3wLKW3AgVeQoCnNsRwm/Jsf33yYP2AAt9vybA/dNb6HZtKG50Ml1bG8VaaQuoG1UKwjvSQWnnRVEvu359ubH2elZe5askvyTMdWha4Egdd6kTHsY39gWBgzaBTCdJm1lrsSOo4xOn1WZH5PMEkzl9qCfFORwJHQ/QGoPWejrsur5Z0+ZwN5569+RzJBXHofLr48N6HZ9o49RyVrL8yBRqAHvILCxRYaTicfNHBQQZhuANHYPsvDTdZKTgm4dK3MKha4LqccRpJVwRlL9UrrXMuAAw7sWNjY7ji7mHkJjjXLYXFKnAKgWNyJcpm2tFT7YMPTz8S2Rgyo0fdi7ZdeMmmiyu8IpkDzOezP6RalqZiMF4vBpb8BNhEQP/DUdHr4P/0I+WGFYpDmmrFMsXSSMegKkqDFRKQuJNN7ZtSkeJGCCtsakyKg6px+bQlhHtgvl0CUC3ScvwCfwgeVKqWXldaf/H2SzcNb2JaE0Enu5NPTO3s0lBxhdOrYebP7QCW0gC95ytQYOUgz1a9ZIwZC7JG7q/xDxzJkZ+3UnEMWiMfv40VqL2mIiwwAZmyLLM0w6UNVnZQFChwSsMxPjEk1SyU+oCefnDmwcVsnuLYRnVe+Ywr1l+4jo8LLV3iOdRlGqtesEdIL1se+ntqAB8Fm4qwmgVta78iFz5TC6olFXHsRF2v2/E6tmKC4TKokmSBtOdCL3HLuixCISNRFRW8/Kig2mHWpSIva2nrtWhwwF5QOf/cgXPKZKgrTeyFDzUe3h3uiYNEeRr7OONURGDpcGhp3/AXKFDgVMKxVZLktgWZ7+faBVVdrmCK7F2gwIsJqiVO1QwFCJfHNH1o58P7Z/YaoqzNSsQ9b+uOHRu3MUOzWGHXFkI5E1Da6F986uFpYwLa4LBZgb/YITaf0dO3SmRamNJAqTpUcX0nnlet+Y6NbYmXKrxC0+d+O+wPAyHBUbjgLRMywquXbb1ozeA4lLRiSqZN855H751tzhrHUsFIirKq9yxHdA8qUKDAKYNjEi44TCEvgMAWVAsKF9iFHVIIlwIFXmSYjBMmLORZh9MSn23NPvj4D/Y39+UjbfSwX738vEsGa0NpnFLLJJOcgrvOW4sO41TKpGgx8ufJ/x6quc4/YDMXs9pRSiYJTUCtVSqV8bFR12NhPW3NtmnCfBro8Ln71YECystVYLEIyJIh6l919iUXbTifaRllqqWS7+956InJJ5RrrGOUUTh3X96wlIdb/6EKFChwSuEYhAuIFPyD5aH8cw6s7M21S15O6h8sUKDAiUfmCFYCN6yyNKEqYcndD931/Xu/wzPDrXY1vXDL+Vs3bRVUCsollxbX5+5feiriaWGAe0doFzBLQJMQXLU0jXWc6JQTuWX91kB60VS2sGcxrScV+txNRZrigmFaWZKRgLBRVrrh7JedMbTZiYU14mDY/tRdX12IF4LhIOPKaENcfIC8ia2HotalQIFTDscgXDCjGwuUsIXiCy7CxHMKgWuHYk3sigYWy3KjSXEMad4rr1eiY13COjiiwwpiykRXiZU4FJN38q9PJ+A8IVnuaCCy8+G5gF6849LQElngxUFcnVW2LlTqpoSreLFU/zb5wcdnvnJH5xFDgwE1fhm94ic3/vDLggtpqDMZdwfayWiiBzTxsGNvLfaGu2VO5VJSXLe5v0TiIR722S8yINnkKQfklaEGu831DkKaUjh0iGnGEkZMFnvderU+NTC7vzLjbK7I0XLW1p1dtjI7JqmXplnKsmwAwiUjCRNdzwkDl5SUp1VVd8ca7Uqd1spEDZUXz3zLpT/96jNePkA6NdkQpH1g387b731ovjof8cgoy1MJpClTPA4dnOw8ZZxojk9ZoMBqAlryNCdkNtjvGXHI+0tMwSmMY2oqKlCgwKkCLgSlpNlsTM9OaxSRYIL05s2b106sjePYGstW3jC/5wAlVAheKpW8apUy1mw2tdYsYAQEc4LFDOm60nF6M3pjkEAA5H1WTBiTOFq3Yf2FF10UBAGRMiJlkdXimTDLjpiQF5uUChQocGqjEC4FCqwQGJx7oVc00pRYoVMn29fcd/uDX3+i9VjHXQx5uIOd94rzb1zvbvQ7JS/zcd7Y3C9bSlKZJBI+rxgwXEmfUYs2ylKjmbKuVm7mjIjqhjIdNDPxAbufDoQjA8kQbwivXSp1KqLueJ2gmg2wkONELxkJpHSy8pDYcOP2688IdoiO143LaSYWW/Pv+/CvkW7DfNXYxzFYTT4PQl7tU6BAgVMXhXApUGCFwPYceW+XxCZK/bhban/3wHdu3f2l+9g9hpAyqV696brXnvf6iXBteaZSaVVEzJhCV5xIG7nPstzPKYveIu3wyrCvmUlFCqqlzRttt54ORmRtRiZsts/Eu1M+64ya8UpYC/fF9ccXu/ujclap6BqL2LApDbVqY/XBV615+as2varcLXE6RqmTZNG579sRxeHiP++xH9e2YrTGuZuwsjz/X6BAgVMWhXApUGBlAnQKJa7jhmH46KOP7dmzh0iirR7wB84777wNGzfmfUZWFfIaEaOUBkjHqVWrnIuw1QaA5mCM6iQh81k4t6iUytd8xfO73Q5jbOvWLRPDa6X1NfZeM7/8//38SDyafbZLGpb8b2bH+6OI+KprXytQYPWhyKUFCqwQ9KaAzCsENPz3COFh5HXn/PnbJ7/+6ae+uLe9m2rhWO+qiavf9Yp3XTt6zZrG6FBn0Eul0MRwgksMrhxww4G5oMjfmZPMZta3WZB0nWbbbcTV7rq1uLxz2uy26w3QHEGpRCJCZkjY6UjKpBD+YrAx2vTWc17/4zveOtwqs9ziPbTzwe89+sDkl6ZsasmfMhL0f6JQLQUKrAgUGfVpMDCBUEjNlynJB2fm5uz0hjZmKQFo3zlsrNGaFIb+pMKgeMknU8IRfBj2mqQdUkrTYXXvzP2fufszs2Y6Ml1PuFdtuPLVO141Uh+eSCYqnYqfep7LV1bnDZy7Nl+4IP+QUxAC2sshRhIllJaZLsXjO9aQYRJmXeIpv+riRCwRibshiLxAeGviDZeNXv368167wRmXDAdKJFnyjp/+kf2f3w/ZHFWLKFRLgdUP9Ge4gBlOC51b8pVdH1vk1QIFVgjyiapxJ9cuuYzJczCjiUm7SfeBPfd/77E7YhYK9MHmmouues2Vr/ESz1dBldeyhllZExbglASHpRb8PUwQz4ayvMcPDqditlotV4ZK8NGlbrC2DCfoKWUaltTZVefecNNVr948vCUN8TbGmmtf9/KpBw9id5ZCtRQosDJRZNcCBVYI8omq8S8w99/oxaEIxWmi01bcfeTgI1++85Yn5x9DB03UWGnN21/99ivPunJQDLKYk4w4fEVNSdKrZcmlxdPItQuzFGQKs7zVaUzNTLfbHcG4yxyhxXhtHVwS7Y3d2L9g84U/dMXrr73oOrdTlkKAarn5x1/15HchfAj5/UOqBY3gst8oUKDAKY1CuBQosELAiMk9LLWMG4E9VoxLrAM0htOUzjsL3wm/fsfBbzTJgiSMpmZTZcONO27cIDfJhldOKyR08hutDOQroOXqzPbbcJkmXHFXeU7meZnvpSU1q8ljxD5IGj9otx+OgoPVM5JzNtFzvIPVs1oXvGH0bVdvvZEvuuWgbK19+8+8/vufvxNv/WuMVPpiBf6s9JVyCxQ43VAIlwIFVgywviX/g3PSU05oPu9tPtmJIJy6bCqd++Y9t3//ye8thPOCcWHF+Weef9O1N11y3qUDwaBKcJ66lYJeU9HS1iJ4TaxoyTvtci2AZVIRRrCE27129r7pPffve/J7u0TDDeLaBeMX33DWDz3xwMMlRxpr3/1LP/+1f/o23udllJz5tFLZ2C5US4ECKwyFcClQYIUAKweQec9xhrP194UL5VQ4zGE+1QPJEwceu+VrX7jnobuyJHWoM+gMvvHSN731dW8dH5yo+M+9uM+pg3wFtL5q6f3Fqiabq5Z8iheQLBtGNp15zo7zLjtvYsu6kj9YVtWFJxpsQfAFyRecffceGPKwkun//e3/9LGPfAJvcRElP3LI6FGyrksDUyxSUaDACkMhXI4EOAZGGOdCcMZ7YycJMSVcosgyXNaBdQhv4Xo9VhJdzr9eRcAFLI5GVxmiSaOMlfalFId4RDlx1aaASEGClTTD2UqDwm4tMScdV0cysaRDsiZRLWLbKWsuOo2GjCEuGuPJd6I7/+y7H/jirs8u6gMeJaNh9bXqpv995u+9r/XegWyNmwXg/q2rdJBZX5GyJr6mnHt6sJxMBMmwn5a8NHAz31GeUI7E1agFZgeOYgnI+si7tAJPRJ0FpZTDHZfQsgyomdFYoyQJcxQTsaCRa0JfxaW0W+v+4Oy7H9n88M5ND3QumHJuSJzXpOf/+pbrf/vyV73vpoeffGTz2Lp1a9d0dff/fvAv8DeuouTdDBJq/nuEGzrnOrsDrm22lBYCelnKL1BghcMYLOtIKbVSrutSKABQjxDHaqbN4RWSoXywMpJ9IVwKFFhFwA4htkPau5o7P/ztv79l962zbLbpNLOSuujii1/76tfeuPHG4fqwd9AdCYf8kJFuviaAAVmuYyfG2fCdMBVJJhLFU4ULTyuDVgxbbPIusTiXTP+3XmT0+rjk4781YVBmUIRnhKeaw7PFGY8yFuHMNJSozAvM2Cb/rKs2v/znbv6Z3/3V337/e//N//j939q0bS28wrlnnx23Y1QtP33I3OEbgF2m1CJ7xwoUKLBSUAiXAgVWFSihUKJyHKfZbH7rm9+cmp9yhBPHcaqzM84449JLL924YQMUvLqdDp5WXoFLH+PUt/kcuvmsQqLsSOkwzgcGBs8777xzzjmHNNiakTVjE+NW2c0TmxpTjeWq5dQuTRYoUODoKIRLgQKrBFK5buIbZTpOpz3Q3Fvd8930jj+740/vXLwzDtKMKcdxXzdy869e9ys/f+nPn63OLe2r1OplL5FccZzSzgmJ3zZerKXSUgMN14YZy7TNp+qFUxgOaDpJWqffObc3CBzIesOK8toXohRVGclI05WdoVJnzYW1q3762l9827k/upVvc4ULwma2vmdsbDRshctVC9wB+wn17lrUuBQosPJQCJcCBVYJWMJKaYlT3mZpw8tmgnDv0P4v7r/lr+740Ff2fWWGznZJtN6sv2njTe+6+l0/c9XPXl6+fLQ5NtgZKkdVljkoFVAZgD7IDQP69pz5BlQL+HjULr0x2ScL/R+z2J6FW90ny4hMyfr6+MvseW9c96p/ddXP3rj+pmE2IIXQWv3ib/7CWZsvUpnGHi1vf1q1sBKqFty1DP4ebtsvUKDACkIhXAoUWCWwWhsFsoJin1mBU+O3ujbz9V1P3P33n/vwLffecqA7KQQj1laDyo1X3PAjr/3Ry8+4fJAMOV0ZpJ7UHskkySjKAkJ4fhuUC31aXAvD4EKH/aE+h7HE+feacfofjg8WG4Iop4waSjVlhnvEYzH1lVO1fpDJcuZcOXLej1/zpnfe9LYrN15cpZLn9uziKy75xJ99AlUO4L8e6o0Lj0mJyefPxa/6zwjPCu9WoECBlYRCuBQosErAKWeGaK3A5eefCSmRUGZN0tpd3/Plu778qa9/anpxinMhqRz2hq8585q3vOKtr7z0lRdsOH+ADWRtS2ImhXQEsYrozIKCkazXpJK7eFQkwOWeHnULyqW+fsF+vCcCoJwkF65wJJPMcmFl3IydTHiZMI101Km98vLrf/6GH339+TdcUr3Q1wE8APzw2nVr9z2xp3+LwwsoAiixQqOe63/Kj/ffrUCBAisJhXApUGCVwDJteIq6AXxxr0nFEMVsGCSNUvOh+IHP7f7UZ3Z+5imys83bKU3LpHzx6MWvP+t1b9nxpmurV53R2bx2ZmxwsVYJqwNpuZaVysr3Ms9VQhgGlgKVCbj/kzWsyMTWxIaCloplEJVqnepINDrendjU3Xwhv/D1G97wk+e888qRyyvhsE6wnStT6cTEWNjq9q//wNOT+qNK4biuEVEYLFiFg4espkqzYgR/gQIrDIVwKVBglcBQrdANW1waQDGSAQXJqBWMl0XiJQf15Ce//4l//OY/3r7r9plkJiFpQP1zx8/5oYtv+ombfuxHX/7267ddM2yHeSTdzPe052QOSQi3guPS6XmNCuqX3q+96PCk63AHp5tT3DNemVRH5Og6f921O17+rtf+zDtveueZpbOIM6RNCU5OsmT9+rVxJ8YrGaF/jo+M+wD4C49tODGCGsEMp7joNP6z1OJg7wIFCqwoFMKlQIFVAvDBmmeWEmoY0Qy0C8WVjIS2OiRRh7eb3uLu7KmPfuMf//bzf/PN+761GC4KIqqkMsHHLxu/5Cde/mPvfv0v/PD1b7t4+yU1NpDVle6YEi9JFC6cUYZL4gNP1gBqSSW8iI61jWxAS2v8NeeuO/edr/2pd7/5l1539uvPcnesMZuI9ay18425zZs3Jt0UrqIOJR9YUikEO/DEuWoBMhBxuO2/g83HTPX2CxQosFJQCJcCBVYJwDsrgR1QpHacLJBJVXR9bkqECxAAqdCJT2ZHZmeqs7vSXd948Pbv3H3H5K5JXVd+6A5G1a1k46UDF77q3Ffd/LLXXXPuy3dMnD1RXuvbQBrJLUclgCLg5I3DyWJlEu1Sb2JwLWipGy++6Y1Xv+mGbTduJlvXkDG/VSOhTLL0s9/78sXXXxa1sK6FjRDyx/lTHob1CNxDu1y7QjtcO8xIZhg2FWF1iwGNV6BAgZWF0zzX9noaLiUes1Ybo3C4gSVaw37/+OoHOKWjc6lLKHCKod+zhVqNM+UnmkeZyTvcYhfUfmIPYlYruTZI7l347ofu/Ys/u+cPPr3/k/ck98zx+Y6NMmJ3iLPfPPDmX7jk59937XveecGPXRFcvE1vHIkG/Y7rRq7UklquiNLWgNe3AgWABSvCMLcokhqaUhE6mhKTwTFrEyp0RsJMRMqJlUgVVTheSBrKiZC4TAQOtM4IS4iTeSVdCZKqF9aq2ei5ydaXORf+yPY3/vLVv/jea37hXee/89UTr6yk1Qz1jJnuNmKVfuHBW9/zgXe3n6qjJdtC7H/Bm/WDg5AReASSEppYmhiGxGBhqWZKU21ov7NxgQIFVhZOb+GCAwoMwRmuDjEHChere+MkQbWAic6P4ma1I3dBR2MhXE5dYGoGwcBAuCjNE8MjIlNjY6My7JQKzIiXkSxpR2yxNTj3ePDQp+c++X/v/Yu/ufuvb9v79X3NAzFRQ3Z4k910KbvkTRte93OX/vS/f92v/atXvOu157/yjMHtg3zIRiRtaeNTI/LJ+A0u7IOEX+eWyYzyVJO2BAWkUgGPQ1VPuESklfBQO5mWighDOGYnzpGSk0CwgHqu8ty0VFKDG0rbrth23X+4+df+/Wt+9Veuffc7z3nHy6sv2yo2j/E1Q3TQpHxqfmGx1fjQJ//+Z7//E92di8QjdAul/5blk7P0ISxpwA+BJqIpYakF4cJBzAFTzZVhILwsqvH+6QUKFFgxAFdUoECB0wVdh3UkbUvSckhDqnkeP7D45Ocf+vr/+erf/d9v/P1H7vvkbdMPPJouLFRIUgl4dWDtmm2vvvj1777mF3/nVe//bz/0/t+64H3/euOP36AvuDQ68+z25i3tDRPh2oHOaNAarEZrqnqDb8ekWa8li5UGeUKIT4zjaH8gGxqJR4YXh4frQ7XGYHl6qNIerTTWDtQ3jDW3bo3Ov5xf+YaRm39q6zvef/X7/ver3/8/r/33rzj3tZdvun59bbvLqwk1C3Th8fbjX5n9yh99/3++/yu/+VP/9JN/OPn7/D5Opglbz8h7KFb/HAKolgIFCqxWFMKlQIHTCLHgmWRKUMOJFkRVbGcwO+DO3d39wSd2fvYD3/3L/3nHn1YiRyYAAFPaSURBVH541z/fkdy3i0zNkHbGOVXutuCMm9a96ke3/9i/u+B9//Wy3/rfN/6/v33Fv/s35/yrnxh/+83lV7/cecVF5Moz4gtHF7bX5rYMLG4XtQErqSES+whrVk4H+EF3ZHHN+NTEugMbzm2ee2n4skvJzdeV3/a68Xe+69z3/ZuX/9Z/+KHf/q0bf/PXr/3VXzjvJ28evO48vcV3hj1nyHC3TsP7mg99ft8X//j7f/I/7vgff/iD//XRhX94YMP9rXMXaELptdT+HLGH5muBP4VqKVBgdaMQLgUKnE4Ax45+PZ/rxRCSWpJmhFLHceCbMAx37dr17TvuuO3rt939yN17Z/dqq8sClxEgWarjWLrO4Pj4GZvOuOjCC1/2spfdeOMNr3nNa179qldf/4pXXHXVVRdeeOFZZ+0444zt1WrVkU7vBwGMsnKpvG3b9otyXHnVlddff/0b3vD6m2+++Yd+6Ieuvuaaiy+66OztZ60dW1upVHDYNVDm6z4TuthafHLnk3fdddftt3/97rvv3rd3r7U2CDxGSZJp8ipiXmXtYF+1wMG8DapAgQKrGYVwKVDgNALHXjDYgxc7psAOGADXECeMgma7Mtcsz86WH38w/cZnHv+7D377j/78a3/0R7f84ace+fz3DjxwMG43jY40T1PK08FBsnFL+bzLRq69Ye2r37T1LT97/k+/97J3/4drf+0/3fgb77/218Zq44pIa0VvzjehvCs2vexdN/3cr7/213/lle/7+St/8acv/em3bH7N6yZuumHkmvNLO8btGke7SltFaCLIou3sb05+bO8n/+zu//Nfb/nv/+O23/uHxz9628LXd/q75ocXO8Pd0I9xNFC+vFKvlwpIHWEpyQrZUqDA6kchXAocDZyxpTw8rXuBFQovUX5ivcTKDNcpJDmxY7qOlWlo2zDOtK3sCYMn9qg7v7dwy0cf+7vf+9b/+t07/vB37vqT//nI33ws+vr3y3sf5o0px9aZaBASoWigw7K00RvcURq5srLp0tKGIWdYgThiedfdOJ+sloj1o+uHB0Zq1YHRykTZ9UrJokinBZkTrBWKuSl+4HG++w5y719P/fP77/2j93zjv7z3i+/+z3f9x39c/PA3yNcf8R+cHwZd1YhobFNOQN1EgnQlyBbBmLC4NCTss3zUdoECpztyAY8GG4cUEm3yEbIKx5pwAGMaFzbDgzQ37Pk1KwmFcClQ4LRCPpjGWhAV4Ox7ZMDDw4jzP3BSynUs0q7bfar11N3T93zx4Vs++t2P/uFn/+Q/f/x3/u6b//gP9338n3d+9ptz336g9cDO7pP7k70Hk/3z8VQzm0t03dpMEpxvFw0MqAtpiTQd2g5JGIpwgcxNxpPz+sDe1hMPTd/3rd1f/8IPPvtXX//g73369//XJ//gL7/y159/8Avfm/5+7CbAFChTJZXi2sCDEiK0cJT0Ut9PfXzWAgUKnGYohEuBAqcRDk/IAxqAWxyYjNUVuWpB9sULNiVlIFxk2nHD7mC8WGoedGb3sAOPJI/fXb/3w9/62P+99UN/+pk//4NP/Mkff+KPP/iZD370Sx/55Fc++sVvfOabd371rh98K+w27eFFjcDGcNtUjTsf+/5XH/nqLffc+vFvffyjX/nYn3/sD//8Y3/0fz7xx3/56Q/89Rc/+Jk7P3XH3m/fOXP3o8mT+/2ZuaF24ibA1MkyJ1NCGa4tM/DwwoBwcUC1BOmhdZ8LFChwOqEQLgUKnEboeLrrmlCSSNKUcSRlSEYSjswIUYakhCSUwEHNiZVKybZyF23QMP5c6k62RnfPVB7d7dz/gL7jjui2z89++m93f/ivdv3dB5780B89+dfATrPpNQ0zuL40IBbdB+fv//SD//w39/3N3z74t3/z8If+Yc8/fqp1+xeib38tu/Nu/sgTwe59weRsMNOuLOpqk7gNQuZ4yIHY0gTPBPexuexixrAYp2OBLctXJipQoMBphkK4FChwOoEfIgMRQC1jQILk+ZZqKjLrauMYK3ARAZuP8clblLDNRxETKuES7hHmW+tmqROFXrfuNqfY/M503/2tx+9cfKTbaOksw86/VsMPaZpFJNw5/eSuxV1T8cEZNdNwmg0/brtx100iN9OewZ62zOQLNhuaGtArflQCerEvEkFVrl2wGwtoKZNxlckkFYVwKVDgdEQhXAoUOJ0gDpFTXICoL1l6qgVpidDW0VYSZC5cMtvrwOsSUqLEpyTVOHG+kan2UuXGqRNGXqvjt5qlTn0gbg4nNtUCbAtl8CtoY5hhZRrxMA0SVc26vNEl852SDoMsdNNQpolIjdC4FEBqbGhslk+nG1eAbuLLTFKVz3GbN2hpbpVQmUgyWQiXAgVORxTC5agAq0udnGCHwWqC7bQESn9U58TVaE8rpEIQKisNohmLfIekxM+Ir4guExKpTGehk/VPLXBqIsqH+SSEZIaojOikT9jPFMm0IbESbcK6xEbEpNhulDfTwN+OJouENEDkKElSZuEmQMgNcFtFuCYB87yE+Yncw6btiBvxLvGZMUYTmcWM2yBLTZKkxBXE4yQOidbEwGMoHHwEv2JyacLx57KMzA4cADbLi5ETGXpogBL8ImS7DJ8HBJVi+ujsvXSBAqc7cHARiZOYgumOIlxjbCWjEC4FChQoUKBAgRWDQrgUKFCgQIECBVYMCuFSoECBAgUKFFgxKIRLgQIFChQoUGDFoBAuBQoUOC7Y/L+1+Bew0vv9FShQ4BRHIVwKFChwfOgrFgTN0f9QoECBAi8CCuFSoECBAgUKFFgxKIRLgQIFChQoUGDFoBAuBQoUKFCgQIEVg0K4FChQoECBAgVWDI5BuKS4HGtmqCGWCuU4medkLmyFktxwXB8NTqKnBgm31jHWIZQTSi0jKbcZkJqMWAMvndMQZgknljHDhWZCUVzlH5f7h2ssEF6JWoqzkmtNieVwJ9rviAjfwM0FBMWR5PlydIeJpz/9VIf3cIG7fCEYXDCmd8NTE8bapewdxL/I/scCBQoUKHByAGY35lSjf9KEZMJox2SSZI5R3BiGZhkH9hn8kBqWGJahv8vXVUWvxxIN5Bl4c6BluIINBbeer4kKF4JrAhepwXMu8VgvmEKDSwV/Cp4Ql3TtPYniNMP1XOEgfH4+gDftrQnS4/O9DJHyRFFlqYFQkdpxlY/CRXmwz40ACYCPmQfN0bj0nV4wl93zmSSCWNcSF4ULrn9LM06QzCqInEOnGZoLF8K5YdKwPIiJyA/lIUqZIJ50JeOcEi5ovmAcCDT8DsWQMdKyZYRIWkp8lqeffOmj4y1xmTsr8tA9RWGPBB7Kx4z0RUsxfqRAgQIFTiKgWJ0IqtG1gAvPhNWuUQ5REoSLNRwtMzoqy6CInqF24eqwagHmR1IQLnAcv2KgH6BYjuKi5/bwWo4Lw4N1P35KTbhGH4y3BuGC/haEC8s4M7ikKzrb/LWOCtBVfeYPmb/K8wUngqOjxZ8x1CjQa1xnMs0EMAndvPoCguiodLITwGX3fBYaJWwsbUx1hpUlygQZQWoagOrKKMkw0lG6EIgzbak2VGuQNYwAQd9kEP8ZlS0u5nm2U2U/0PJx1z4o7MOS7/fcsCpVhSQCUsrRCT+QV6702IuhfJ1bdP0YByAE84MFChQoUKDAcwEXcIcyN3gTpKVcMVzyN+M5UXmgg3MT7qVlL616SSATwvLVSUVKvLTiJRUnLcnMz+nKzJGZkBl3MibAveZkGckPHi/BkXKrpTGOAR9rcKlUdOKmlLOagqfuFYKPDccgXISRLBcu4HEVV5lMEhknMkxkBDuxhPDkTLvPQXMiuOyezyC1hvCQYiSi0nMVkLoZ8zQDfYX6UmP0U1wsH1QM1pVZlgsXFINYNxMJPMVraT2TLN6/MP/NenqPaXy13f1uRz1FZdvnxCcQ49wso+ZYyXaYIDOpOURsgcq1ChxGGpuzH74FChQoUKDAUUEJdbAOg2K9CmFQ0k45TQmNOU04SzkDP8zzvhx9aaI8qXymuEBpEsARR/lce8T4h0lzHtqHr8CHugR3jpcaC+zg7MC7avCx6FYV8ZXxlHaVLmUKm7yOHccgXE43UMocR7quix+STGcpaSmS4HFsNTFGiFO6ladAgQIFChRYfTgG4YJ9WSxn2EME5JPKeIaNRNhapgwDHUUMthwlR2dyIrjsns9k6uhYklRinYfB5jtuiTRUZJSDMjUc+8CgcAUN2Psee67kL9kDZYSK1GjjZ7XRYO34mkow6NsKl0EwODw2Ns48lrCWEh1sQFvOI8AtlZoLoGEc+9Rgt5q8xsUQrN7TJA+6AgUKFChQ4DlBwZlpxgx2wgQqylJs2GEKjlEknKJFmook6xO7cxihldBpvg/bVKaxkyBhB/fTRKapkyqJ1E6qwdXCweNmJAkwFiQFX4yPhuw5XcXw+Aupbzkm4cIM/EivUc0apjQzmVbY8VVRzwZ0jnBJiPMctPIEcNk9kd4RhHMgXHq1UvC1dAYgNjopaRnbJLrOMngVlA/YzcSoRKWR4ka41HOIC3RtKTAl13c6VRKVusFWd/j8Slbr2vVJZbskw3Hqt9mwISr2WdmjJZcEQGl8aTxu/KVkygHV4ljhECmJoLrXMtlrNOrHYoECBQoUKPB8ACVuYTjD4ajgvkGpYAkYe7lmRHdTCXJACyiZJ0KFrBWxZsI7mdRGEm+EKKkS2e6YBRKkmneBRoSWR4QnxEmJzIijiWOItOhVJRw5bmIxHZ6Qa8stDqQlzGfUK7W17TDWLZXTZ3hAkDLwjhxEmLFGoyd/Jo5BuPQAN+0Re+lq4nPfI4Gng7LhnpIy5Ueng81sx8tl9wTyiC2liJmTSdc6HvHcxDFN7Vo/4CWfeRjrLtcQ6RjbOGwo8MqBU2Ka29iSiAApMKQ6JklKYqUg1smAZWtpdXPgroErFKWQALDPSu/k/lUx7rOILqU0nFuQeCaLM6O05CD+euGXo1AtBQoUKFDgmNAr//YIusCgpw+Y61kO2gNbFvLhsdLSHmEf/B0OdMViPucZjjeSBtwTaKB8IC0QxIUBHZS3BOTbw5N6HBexwcFxtHS1lFpwLUzT6NhwIhl1cGDuC/KCxyhcemGFsNg5SFtJHJowHgsnpiymXD0Hca6U4+ayez6TImUy4TzmIpGuCcqsLJRwLASTMcRgpEMEaqs1DUkUhSkz3KQWTnAN0tOer12J1TI40wov88r60ujZg7WtJTFoUxZmWaK6iU0tnOzA+cZ1tQOEfde6S5n3aAZ5xDlBofMs+vGFxFqBAgUKFDg90XPDh0msxnYjh3KfCB+0i2YgRHLhwoThqFd69fuZpRlxCXeYBPnSn78jlzUoXHqq5dAWeIT+eKFkmoNYcZQE7QJb0DFSSJe6nixx5hgrKVvev+L54JiES6+eAMIAK1yYJY52ReS4rdJINj5GN25obdy4sOno3DR/ArjsnsAt9S1LeXa09dxo3eaFwdpTzHs0kY8n/p6U7m5N3/PkQ9+748Fvf+uur3/nm9/6/h3fuus7377nofufqM+0VcN0D4TJJDDK9kdqX2T2ZWQPaR/Q9YXOvGo0nca8nZ7pHlicbuvdhD1M3Ed4sj9KJ6PeVUDYTw/ES9mdbDfnWnE75pBKKM+lcR5+gKcTXoECBQoUKPB8AA4k7yqJxLlQfOo4sBfpILTVkJRaamjRG10ojywMji7mXCiPN5yhucrgrDs8PwjH18wPTswPAdfidnjt3OD4XG1irjoxW56YK03MBTnhyPFy3by3fl6uW3DWzjsTC874ojPe8oabzmDXq3TcoONILbB65xhB+7OKESL/3FX5FCgYGiDWEmekNfyeH3r3L1327ooty9A1Ikl4XG/XtTE+L8nY5bFjXNswjVt3fm6P+6QBbWXzMTj/MuD2x4987p0jsGwlfZ9pE7cWGvUDB2caja5JuUgli/j5Gy6o6HKgPIaz6fm2ROr+/Gw29cX7Pj/vzplcUGBroeJcCfheu5bGzFMCdGtiOrpm4PEhwLApEF7fiG4lzlt+8EJr8suPfBJs1wssLRF/wBW+UDSDQDbU4CAxeIte2sOOOMeLgQx7P4UQ/IwS5ZSjYHs6/p/e/h9eseEVg2RtHFIPjjPTdJqf2v3Ff/uR9yfDzZjV4dch3RuczYZiV6/nSj9uuD75wkz5/th/Y7V+dU2ZxQ3NLtxk/1pCYoJD8SxTPOufXWCVQmppIIvRvPKylxkVJCTq0YCmrObX/vvl//mNF77ZNa5PSiY1Ha/99dmv/fZH/9NOuUd5OsmngSSq6JZe4JiBhiqfSQJHA+fIFoKfPPfNf3rzb9XMmMrKmcsVmOi0a+jcr3/mtz/Q+Dycykm9f30Og+NC+45vxUFk1auqN7z7qte/Y+vrRDgYBR6OgAYzvvDEF+7+6Jeeun3v5szX3M1cqVwwyIbqFAesJAEvpYvZcGf8oU89PnBBeeSyKtzNgvfCjGw1/MvnFetPMJZn894vHhdojLU+eCuqmU5kEtk44DU3rF5cueodl/ysTy3lieaKSut6rifKhgjK2J0Ld//GR/+f76bf1QMZO9Llq5/HeYP78ff8hEtUbzdAuAS8LCNPJB5xrCnZvWxnVGmDLJHYOfZoeCG1Qs/AMw2ePnI2FMd2hWlnxiTKWOzH5Dg2yFrpGneMtMygqEoaaGc0cuO94VM7Fx//0C1/+XjzkYQlKCQsk5nrKi/2bCiVjEWghcN4yutx0EyzxFhd1UOlzoBrgrmhBgRfngsQ8NOQkXrP0EPmppmfwBcaJAtRoC6sY/Rh4XLI6B8/CuFS4KShEC4FXioUwgWFS+3Gd195WLi44P24UU48dbD7gwfjJxa3uC5x/cQX2jksXELaGRGjOrPyYHDLn3xt3ZWj5732TLhbLlYgLIwmGiQLZOpctWCFjlAnQLhQ3pCKc9MXLrGTRCyrsEEWlWoLYxc4V4ZJi3gJ2JMXKFzKf+JlIsu4QYdqia8dfyb4t2/6tz970buqpBokZXBuIFlazabW2vd97C+CFRBPA6fde672KgbJ7bjhP8MzLkuFGQcvDkYV3HGGY55pBmeA+PDcwBU+9nCBLwWJsrDpN7859a3/8enf20l3tkXb5jVCQjFXOQrn3D3mCqJlwiUf9nzEsy0LNIA6AUFygoQLpN6jwgk3pF+ac++Py2+oLl5Vs2ZxY6MLx/eBcImImwuXSBbCZZWjEC4FXioUwqUUDr689LofvvHNb9z2+sGOm/fERJ+W0iQJM5tC9vTyJXiOAEiBbrdbCoJmq/Xf/9t/u/ZV1wLzYLCUwpc4OVn/1MPQ5f7OcUA+I5cv84CMGkpTxbWQBoSLyytYv8HIDxbv/38+8ht3Rd8NR5P0yElDQLg87WUVaDZ4eDgA6QK7KgtKJDMOIzgXLdEscTup24Ft7LRD0eyyOuwvpRVNyRpHJ7ULx89QLGfiNZbSioZD8ecEbXLe4KxpzIIiC9rWDWsSDuwSDekZEjSnEHLGgBrrB0SBAgUKFChwaoImREwTsWDJouUdwhSRbSLrRixkfC5jsxmdaXv15XQXu349LDXjciupdtKgkzmdTPaZyvaz0K0fPxPvORg7jdjppk47cbuZH1k3zNyuklFHdtp+p1mOIvdZSsLLqgeOBpRmKHhRncGHnmhdDjh6dJ4I5ArzCD7jV/D/oR0cDY47sIEzkTmwTQzrOvAbrfPbFihQoECBAqcu0GkBsDkHnRsB4qBVzhjnsGEMXDSUw58VUETveTpGmeD4r0f49yyAgy8+QVGA/4UHwyfDZ3tejvhp4ZJwgytLwoG80sXiJG4ONS4nPtcuUSRjoRYJ8TLq4WIDxE2NTJaS8dBl7aOzJMLjJ/GX07jtpeS845GOR4Fdl3YlixyZSCdhErRqbESU8RDeESLPEJumSaYU7PcDokCBAgUKFDg1wWIqFghftGRRswVL5zN1MNVTiZnJ7GxC51I2n1djPJPNUDZCWQ9FPeatlITZYdIl+4fJFo+fyXNRsw5hqWFJxqKYdEMSJiSOSBLyuOvGytXk2Qb8LPHWPdWStxMRnNiV5Z8FIbJXryEy6Ri3RMsVUamKWkXUas4RrLiVklc6OoMTwapczppzBCtuqeyVy14l8Ko5a55Xc92akBVKy9YGuJqUwNoj0GNxkoAUlc6J6EFdoECBAgUKvGjA3ohW0LxXB1a4WKoMyXCwLTNCEsehvldygmcykH4gPJfCGdKzXtmWy6bSY8nA/jNoneNnQJ+DFV4ekENVPlAmFd+UpA0k8QXxhPG59vPFivsvvhTHVM2AvXjyyqh+LY9zJKTj8uciXHr8fCYcx11K4eSx4zjwiPCdhC08LlxLOcQ6Vif1GoYohXjXSsMBbP8qUKBAgQIFVgjAj4EvQ58nXZd5vu8HQVAqleQzAF4Qtj13Cc4O/DWcfCrA9Vz00PhskgOe3/CdJd7aYo/cQ7CEGemL2ESWmN4iRb6uicT37WBAh3hW8emwyMpLSW3ZsspzUNSOn45eTpFVlpLZqmU1JAUOajpI+agUE8QM6azGyIBWFVzZgYFmMUoreO8kSfqvfnzAtrqjon9egQIFChQocIyg1mdqiOpBRoYcMSa8ccbXEDtkyKAg45KvtWS48gz6ZmCQrynTYS+tyMiXccXJBlw96Jkh2MK+owafQTh43NTL6dmhpZRmgJGqR0fLZNRXgzwpuUngG69qB4f0iJ8OssjJ++bkE8wcwtPCRSiRL6aMogWgaaxEHLFWSOod3sw8RRyekxEJpDl7+30qgZPsnwQS+RxMhQiFDLmMuBMzN6Nukk8aZ4g0BNekgpdYEggFChQoUKDASoDlVFeoCQgpG+z2wLTxCK1aUomI6BpuuGtw9egjSLkwnBPKNWVEOFRyHDf8HBQngM/wzsuJA5eJdamVHEg4/C565yyKhSYly0n2LG1FTwsXrhk3eaVLT7io1PKMuTojsSZJSuMuD7ss7NJul3a6pNMhnXz/aUYkikl8Eth9LoYkiQ6djOskkoQyo0lmCPZf1nkv7AIFChQoUGClATy0Ahedb3H2UpAi4OMSEmmjLNGpViGJlrFl2m3SwX0ZtWmnA/6ahc/F+Pi5zDU/kx2adFjSoSE8UpfAU0UJBb2RaidNWCfhofCepfFoSY2LOSRceuAWLkhsOE+m6ma2qRam7fSUmZoyBw/qgwfUgYNqEnaWclpPzeqZk8CDz8UpMz1tZ6ZNfr6anUtn58PZZrRgmXI8pjROC4gsUKBAgQIFVhIsjiqhOG8owR0cSwOOHJiRtJO0F1sL09nsMtZJcy5dmAFvmMw3bHPBLk6rmedgdgK4zDU/Kw/ouUkzPWmmDpipmWz6YHtyOjzYyOZAuKQ8SnG+yuV4eubcoT+oJjIF6nwpSWbJgCpfu+GaqyeuLIVBNassjkTYqTVHr6/Gsg6tUnNcMOnFR/hcA4AgHrlhlBhhrDTwYCRtJqPV0cvPu3Jtbb1KrSPKJCGJjKfE9Bce/MIffemPp8pTXad7/DPnPgPLZ859JoqZcwusLBQz5xZ4qVDMnFuL/RvKV7z5xre/dvPrK2nV40FkWkzyhm0/9ORjByZnbMza40e8L0A6TrPR8HxfZepv/uZDV1515Xnnn9f/7l/ECfBM2REa4VmAy1FTcNcJ+C1prZc6NLZa60m791OPf2JPMJ2BE07yeAfkj3TElP/+n/qaacW1zWcL5ozJjNdsbYDUeMwc7XTdJJ/zpjcmJ+8oc+R7McM4Kr8XHc8ZFuiE4TWowiHdlriKshbdOrzt3W95z9Wbr3VSV1CcmSZ24oMchcsff+mPD5anQrcL7wCXc8UcEC5U6WNftfIZeO7sAbrh+FEIlwInDYVwKfBSoRAufhJcU73mp17+1jdvfqMfDxDPCVUoHbnQ2fN3t/zNl+67rV2zsd8CLcA0JxbKzUZzZTiN2qHLnSE2+vC3Hh3ZNhCsxwlSwPgDMSMfRq9BAv3CCfBMz+nd4Nfwh9DVGmat1NwXntIqltEcmY4qqQJ/kk9+i34dH+1I4UL/4ojKEhA3z7mukD5Vx8jA6wEN63tQN+NuU24rnfFbb//tGyZuqqYVYSBGSeTFB+n0Fx7q17hEh4QLCB6scaEK2LvDqY9CuBQ4aSiES4GXCmioTm/hwtPyFQPXv+fKN/3IljeJcCQuM5076nb7kT+99ff/+p6PTu2Aor12Mi4yF7ygJiqVsZbEpkQkZDRc174vtuu6ZBsaajw1Zy4Jch3Rm8PNPncFwYsE/sypSY6sQThiraICBQoUKFCgwMpCT4IxyjjDpfcOaZDVjEK4FChQoECBAisbHGQLzg97WoyYLYRLgQIFChQosFLRq3HB1Y9xhcXVX90CKIRLgQIFChQosLKBmiVH//Oqxr8oXKy12pijs39qgQIFChQoUOClQK/GRfdmVwW/vGL7HfewVGM8K+GcosalQIECBQoUKLBiUAiXAgUKFChQoMCKQSFcChQoUKBAgQIrBoVwKVCgQIECBQqsGBTCpUCBAgUKFCiwYrBEuFC9ekiKEU8vCnCkncZFK5kh3GJ3dtz0pmpkOEX0SzVLdIECBQoU6MEwklqTWWMFI5IrSqhLiSCa4/oAhlHKHU49QhyrcfGOQ4sVgTl/hjM9FfgMFH6mQIECBQoUKLBiUAiXAgUKFChQoMCKQSFcChQoUKBAgQIrBoVwKVCgQIECBQqsGBTCpUCBAgUKFCiwYlAIlwIF/v/23jzIkqy+7z1bLnerqq6u6q5eZmFgGDASI9kSXmTLYjBCQgIGCXjSn++9sMJ2WGGH9YyFkRBoA4HCIdmWbGPZ4XBItgFZBmPJYDOMwn6SHohNBmtgZoCepaf3ruVumXm29/udzKquure7b1V1dVXlrd9nfnM7b97MrMw85/zO9+wEQRBHCFcu+uNxTWkp6icDSLgQBEEQBFEbSLgQBEEQBFEbSLgQBEEQBFEbSLgQBEEQBFEbjq5w0aoo2KBgQ62GRmVG5kx4fB9g3HtuPXc4k31NLJeRForx0gTcuuXcCKaZz5jLImPgmT0+mGfeewPGBeM8GPzEJWNKOgYGRyDlb0KycFnOIrBWIZTnRZsZ5mcKnmjWj3k3ZhxenhHSSeFIChMEsX9wlwibcK+YF5ULx0/DvZXecYdez/Ethl5wq/+sk4E7tuhpg6N2sCMsvgLmwXk7fAESe92GQ51z4O4FHOvwaLwAePVwWmm4E14XHL/u+eED9tvw06Hl6GYzRhU5H2gQLlGmVW5VgavvYKyH+A8xOwRj+FoLA+FiZMREFISL9KBdgnApULj4LLIYEUvhAjDrIWGDcCkN4ziqE+XxHVQxVoBqEUyWwiXiPBYsRuHCRNFhmvvZdeHSi7nImbRSeiE9CCCCIIh9gvtEuFSAB/OYl697RHB+VgSVAu4c/99kGwfV0TgXyioBD4tPf2NVvuDduUOHjk4Y9QkHLVMKF1EeCKqFC/zwYXmicoUifB/BULiU2gXXM8KNQ8vhvru7SSNrz7iFDjvWHs61hzOtbEbkmM+DxVolOo11FBWiLpa4XLqcWTAtjG1q19K+XbAO4zNMdLIoCTFyIjeOKrdCVK4kOSaEMvUAuC8IfEgq3IKTgAIO6PSjG6EIgjgQHGbBUBzDHNdDBg2OKMgWpiV3klvJk0JttriQI/6zRqYMlkiPOEfyBUAODLE7Z/EgadlOM+s08lZSNGKdKhuBSdSzUjpVfq2FhXQKT+WYN7HTibOpcQ3NWkYILVu5ZDdZYnMUFOBBg1esaxfU46EVKbQEoXQPla2iFPhY3wgbWMbxYOEcgiCI/QBrB7zFMhRz4MEMYwabznmmRC4FU1htPOIta23SybKJ5yhDBWSCIAiCIGrDkRQuPtQrCOaktdJYqQ2YKgqVGwUbOouzPBrmEXzmtTHFdMSYwo5ZhfRagHEjuMUmz6oT1kRCu1DV8InAF4e9XpRjkcPPZ048C7vTEy3uFPdqkBT4KkMfGRYakx2WewiCIPYLHIdgGSsrXUqnxcDvWSZCPz7FhAz+fLPVyrdvNS2Ngoc82hzVGhfIaFtskHRX2fVBo9tPu3zeu8gyyPsj5iXLpNbKuYjVxQzHFBsejTuu+kIWjTRLIi3TNWeKzrZ6n3CJJgTnEhK8wC1juXF6mMVcDASOTNrgmcY5+IxYJEErlQdzDh8yzCF9G4PDyisQBEHcIUJ66wvnDQoXgW4QvLgZFgmPEhazoWVaGPCQm8yO+c8aGU9VKhT2sBWCRVEYLYSEAUShiCqnf4TE0W0qcsyWltu8MIXWGtUMRILQFzX2Ut6oeagBwqXcpcynjDUYTyRPTOH6wyxnxjALj7KdpxnV8fidw0uKhMRXNUb7eho6vpSd0sMfCV3kCIIg9gccBswh+wYHhU4OfBHk4Ank3paxoWG5YznuH7H6YrXJtTbGWsiz8lzW+mF2y9EVLp5ZrB5gkitQ5hGA3bp0sILxQjDNq691MJ7HLI9YAYZtRc5wKZOQiqWXWFWyjb65yIjuwOoRkHFSoWcYozefKYdjr3H4ddmHt/qFIAhiX8BhwBtjeXE+BmFZJ242eNTgikUtpRocPOQmG3GeNTMohyoRJzEOcrbb9OvTBoR5lSHxD06PcuM4xl06AYGMJFomq9GLWw++860/8+pTr5kpOsph+4aO8mfYsx//7O/+i09+cLmz0vcDjvOfyLRIGrqhVWFUUV7h8BMVTS18P7FGuNiKTqZeIk79nR/8m697+Pu57kQy5hn2r1+OV//Tuf/8E7/1D/LjKyYZwolYQMFJXVKQH8r3Q+pHN4CihXFpmNQM0r8y/GqKiST5iIJPdU/S/wt92FjIkjzKDbgKOMNjb5cs2tKiNA5OLEAVM3UmspETNsztBdEk7DIQkXjKm6D4Zxuz7/3O97zx4UcTlzRYyxWul3Yfv/zYz/yHdz0dnTOpzT3EEIhzR9TnEndC2aEOXBZsQM4N2JX2j7709b/2A++YdUvezDoRecdUMWD26j/48Ht+bfm/wQmdrQW34IHq6oKMUS+679v+/qve8tYHXi96nWymkQvIzVh/+Ke/9t9/9Tc+9+ELDxrmeqoQUsfCCS+9SQorrddM5nJxcLr7hcycGfIX4Ttx8B9Oyhfm6cPB5PAV3nL4S4f1Dfkfw5s9ksLFSnC4Vurn3Pk/ePKPfufz/+lqej1jOQgX6VSjaICBrNFRbYRLnEstXT9xhbSx4e1CPihPv+1Vj/6FB/4SL1pR2mQ5zie3Y+GifcJUZHjsxOUEFcmIcDkxrIQL5GFY5mF8GE/IkEi41B0SLsRBMS5czErrRx56/a+//h1zQbh4HmPmu7Zs/fI//6N//ZvuM0brY6ZRnR8IHqiuLshGavbk6f/z/le/4fQjMp8fNuMCi+EkXOrPtoQLINkwzi+wS19c/lKvMzAKAlmAU07zRrNoonCJ83CBGhAXFiRLP7GFMJHjLc2PrUTfPv8t8/5E0ZVJaxaLHHK7wiXEXMiRULi0RMoy0+TRhRhl3IhwOTVIsqgwwmAehqfxPgmXaYeEC3FQ3ES4rLb+j4de/8++/yfn3CmmZxmPwbvwQZ81i6/2P/f4/HnLzGmzVJ0fCB6ori6oJ/WyGDzCX/KwfSkbznRj6WJBwmUaGBcuaTdB4fKWn/6epdd0snbkFJN97MvlIzwC+2LLEGAQ5b3lLky05iE0wwUqIJFUW9sG+35DCrstzu3FEOLyQTZRQFyVWGsC/8GNC3gbajAQ3Y9/4xN//9/8w6vz3eGxDHMdVC8VEYs0NqLiRrlnMybMAr1ZuBzPF7pRZqV2IgvzzzmQNjc9t6S8+DHTbOYiZ9anEgTk0Ouch5wM0kxIMmB78UaIuwUJF+KgAHcqtnrUzuVjb/rWt7zjDT99kp1ur3AFeThnOtEMvYory6gQWcuDS8bd8rhv3xO3PHLZbQmmMU/utiYULqyPc4tlRQPPELHEOyWFfMo8+48f+8cf+sMPD5f6/cYaNyIqpla4jIbW0cEpB+Yj4yOIB87H1knjpHXC4XoWoGBwApMwM8q64TJeOzQnvRXu9jZyynbMSTdqYtRk6lWDQ/EDozjLLaRDLbThBqKvjWaSTmLiRMepxErUY/nphcG9pbAAUtMsDfZsbC+K5svOv6Q8ALh/+X7IqFKXGr7mfNGwzWaoj904fsTgUh0zCwcsqwGk3qut4TXZs84C4XoEQRA7xgptRWFZYVgB/haUNHwGYR3ceJkNj3hyOGCr/xzxyWAjB4CNOOHt2Og1xy4LdzJyilewZ4vhJFqbDUqhVnEnQZJA+RxL6ZiPQxkVlAbIIixwV69mejm6wsVjRHRM2TC9moUIAV9xJw7wZahaJOeR2GzYkLhDwznZ1pXErWzklO1YuVTYFhuL7kOdWWZ5xPp5r3xkEGhts/DsN88P17JL8kpui9wUmcUql+XkhatNnFyupKtWS9u83V3prl3pJSsz2TN9v+YGq73n06dW4/PVKaK3ovBSN47fauVP4Vj2QhubmQApZZwm5TZBEMROsVKjMdQuoAPWnWSYOjNMR4U24slBH2z1nyM+GWzkALAN97t9G7km2Mg1N93wum3VWGA8hvLnJpNCuEh4XMsAjIN8qYRLqCcp5dq0c3SFS8EMWMZ0xvKcFTnDGQmN9BajgYBowTcWEVw3C4lkp7a+evhtbPSUbRiu3z5qxYg1msrwLDO92WRLx7TP/dH/vv5Mt/qyE4Yr5trT11YvLbMe639j5dKfVpLlTugNh4UO1TxlwQjTHRpBEMR28CJ3YCy3bGikcVhpAX4XmzGVlzjZnI1GPLnjI84TF1wbsZEDwEac8HZs5JoOK0e2XBNXqB09Cx5kizlWbDbvsECqbKJMQ9kmMzG3YSk6kC/Y6GNBxlWvZno5usIlsi1lG8In3MdhOntQrLFkSeRiZZUyUhol7RYTOtqpSR0rAzHsdjZyynYMbnLU/KhJLxOWNFUrc8Xzl16oHpux733k+x580curLzsCSjSrmehZnPBmmbHL1e47IWk3ZRKVkgUo1cv6N4IgiAmkRZrqOGYqYqqaD5PJyKdgwqZMS7ART67sqAsd8clgIweAjTjh7djoNe3oZaUZu6wRIyad3GwCnk+gDMK6GheW1g16B7uzMO+FtVunOJ9Kjq5w8Ti4xVWfwW7kl2ELiv0+tBlush0TLjOB6tCdUJ25mY08f8NCzcUwG3LGz54942UsY2yUOXlySSkVztkuSyv3gDVbPJ2JGlGKuyRrLNzoRHZi9Z5qaxNwSrU1xrxpw2fLt6y1RV6boVsEQdSDygdWG5t8ONruqJzvTqjOvB3VkTvg0Haa3UeOinBJ4phzrrgCseosdisR/TQ2rVg3hU4lSzlPcmZzbzPPtGPehkHCOFrihjnBd2qWY9f229vIKduxLVWHpVk/Yjo8iIgSmaQG1xsrctbrpYM+WxOzKFyaxQnp58r3Awg2k+iquwlsbLbl1mWwTqdxfLEVc8V6TCp25p4bIwzh11SnrWxLm9TFueeqra00ijS3NtFp7gxYOY4a/UtIj9RURBDE9kldW/YizqA0ljgOvtHl3g29AcOBQaE2YsTlgm8c8Z8jB4CNHAA24oS3YyPXvNnfHT3FCTlicMxmy5QfNNwwtl2W6TAMCPEsLAMH2Rbkb/ABDpULLgD0rM5zyOqDpwXlE1Y1qreTPSrDoWfyzj3RvT/1w+9+9anXNAeNWEa6z1SHXc/XVorrpm2KuCi8hsDmXikTKRtbYRzEmdoACfR2cGaEHPa5fuxr//M3PvFvz/MreUvj8GdpcS6X8pDh7Sbci0y0eK7R//211QuMvYid/u7TL5wOLVBR0BwbCWEkHm1+haGiR2p8w0Z4C38XRIqAlBfOd1jXKcM4gOLoVgXWABoOTRwUUP4cGQ59onviu+/7nh979G8tipNSR5CRD6O+Cc4/NY1m1oGNYVoNUKgDE9JFubZKJOVxPjfHZuNMof8W7Bn2/Acef99vfubfds90nYD8T8Y6EV44boso94lzBZOZXOifWvv80J7NxAMoeWo6HPrICJesfVqcfedbf+a1Z17XGjYjr4rIruq1xz7/qS9/809W5UrWGFpVTWtUS+FSVVzcEm+1FNo1xLn++S8+/+V+M8tVtq5asPYRRJvXt0sznXz29OUO+1L/+Wtr0ZnGyW+752uLT1S/bUTxbUQigZ2HIguJ5FbCBcolsjqYOISQcCEOinHh0sxaZ+XZ77z/L6puKr001phOocNqLUnRaObYKl3E9REukzw500IMo4Xjx7/3zz/y8OLDbdOMLE5C9g3z7Acef++/+8xv9u7p4ZI2JFxqx7hw6WTtJX/qnW971/fd8wPtrKWs7LeKC73z//Jj/+Lxz396Obqaz2S5KMp+LspG0sbgmj12JK8Jt52S5+K/utE59xDxkwmKFOzmH1qeS+ESRqPnJFwOMSRciINiXLjg4JxVtcBPuusibaTaFb1kDbJq+CnWlXBxqpp/oQZMmlwtLprxSrK0tPQ33vbX/9qLX9sxM02nQGo8nZ0D4fLvP/tb/fv6JFxqyU2Ey7B9wi+9860//fr73tDJ21KLZ9vnr7JL/+qx3/jU5z95Nb48mO1l5TB6ADwqhOlG+NWC20ey91T/Hi7esS5c8O49syhcVEg4JFwOMyRciINiXLjYBcf6LHUts+oarUZXr7KOZXH4DXKA0pXgoOOaMEkuzGcn2s/PLC4u/t23/vgjp14z5441HY6TeGrwzfd/+r0f+uPfGtw/sCRc6ohwQnhppS5r3ZSR7WHrpFv6qbf+9A/e98ZO1pZGXE2vXRVXfu1T/+STX/qvF9OLg1ZuUetiLMdBRmX41YhJFYyCKXwnHp7SYl8TjLQ4+xEIhQxbi8IxYVL/2xAmOyo1Rfn3UHPAFlaYhHgPu/jYnThsDNp8ce5K14OqBf6Bs8INhAuU92In3AhxkJBwIQ4Q0C7VVsCDRrFM+shlXihpi5y114ug4HhwWnx0OeF7Haic8S1pu5n4amupvfhTb3nH959+XSNrJRxl2pPm6Z//b7/w0S9/bHCqb2UxIlxc7DwIlxyFS5jyH4QLJsCaCpfpzB/gteOsieV7x2l/wkRwAjLbEOVBq3G24I43fMODE3VWS8cFHCREEaFpiWEGwVonw/u/jeGIb/gH1y2SAicDwGmxjRcZdjeHdwKPLDfP8HhTAy1oVBYs12haK2OkseVSCWXUHzsLrx/ky7rZqoM83DcKKYchEgQ0ZITl/RIEQdwUKGxvBgpeTAtrrFfOMs1igX37h8Fy8CbgU3Y1y+dBGfjL21ouhsP20EY6YVGTRYlV1VmRK7gVjdTzm81Fvq5CIA8MVF9rCmURRFAtBEEQBFEHSLgQBEEQBFEbSLgQBEEQBFEbSLgQBEEQBFEbSLgcFbz31uFs0BtW/UAQBEEQ9YGEC0EQBEEQtYGEC0EQBEEQtYGEC0EQBEEQtYGEC0EQBEEQtYGEC0EQBEEQteFoC5dy4nluw0oWYQZ6/Cz3rK/XUBfwnu/YCIIg6sWIE7upTRO4PEvMfBQWZNqY9DzkX5idacYLyLuUw3VvJHyGDVxHrtwOX6P1bcAKZgSzElfFgVwPzoX90eF+Z1TjQhAEQRBEbSDhQhAEQRBEbSDhQhAEQRBEbSDhQhAEQRBEbSDhQhAEQRBEbSDhQhAEQRDTjHc4qigsUod476sf6gkJF4IgCIIgagMJF4IgCIIgagMJF4IgCIIgagMJF4IgCIIgagMJF4IgCIIgagMJF4IgCIIgagMJF4IgCIIgagMJF4IgCIIgagMJF4IgCIIgagMJF4IgCIIgagMJF4IgCIIgagMJF4IgCIIgagMJF4IgCIIgagMJF4IgCIIgagMJF4IgCIIgagMJF4IgCIIgagMJF4IgCIKoB5zZ2BWCacasZRbzcDALu1miVauI0770jBkR9sFn2PAcD8Od4aurLlZXSLgQBEEQBFEbSLgQBEEQBFEbSLgQBEEQBFEbSLgQBEEQBFEbSLgQBEEQBFEbSLgQBHFHcI5DHTj+w7z3ztd9yAJBEIcaEi4EQRAEQdQGEi4EQRAEMdXIFktb1Xb9IeFCEARBEERtIOFCEARBEERt4N77auuD2LduOpBOKCeN1BaEGWfCytagddItvest73rjfW/o5G2hBbPsUnr+/Z/8pY995T8/N3veJMYxFplYOlBzFs5xHjZldUViOgndSokdopx34Dk4fHIvsFOu0156kfLEZ36m2fm5v/TuNz385sSlLddyhe+nvccvPfaeD7/7qeibRaJzXzDB41xVlyMIYvtwF/n4pD35/h/+5ded/N521sDu8c59jT313k/+4u/96e/2jncLKaTHdMqZN8IVkfWqCafGV9XCygnzFc0Xe+olRku2KvP8GNZfcD0UkOE5z1AR8NDBvuplDzvCPh42gsPED0z35S/7jP8x8D1HQ7jMFrOLZvEf/tA7H73vTShchoJl/nrjyvv++/s++sTHzh1/XquCKZ7oOLYssk5wbVhseFxdkZhOIH5QpeOOUb5wUObhzIIv44J57gqnmEiYYoWdabbf+Vfe9ejDP5TYtGNBuLBho//pC5/+uf/4s09FX8/iPPM5U7I9QE9KEMSOKHwmWiA8Tvzq2/7pq+dfM1c0WMZYg33Vff0Dj//i7/zJRwYn+9zMSlAsPPNCgzopoIwgbnRwEW/vw6d7/5YuL9IOFeR9hkGJBFJ3wXkMxZHwE6T0kN5B2DAH6R2ohIsNtt8cIeEyb+ePFws/+eaffPN9j3YyrHFxzr8Qnf/ZT/z87z31Xy+cvORYziRnJoYgkg4csnEQWpSpEcQYwoeyGDiM0sCFaPyMRMQyM9Nqf+Dbf+WN3/bmxCZt13Q5GzR7n77wqSBcvpFHIFygkABJy5RXIwhiBxh2jM12BnO/+iP/9K8uPnJs2LSQdzXZE+zJX/rUL/zOlz5SLOW5bwlvI5ZzbiEj01C4UBOFSyadlwYrUyFlWiGkrWpcgFIlhFS/kSlCyj+wGpejkjNba70HHYLiTEjBJLNNP4wL22QWtArnwQUrNKGskihgEsZisqm2iGw35uBz8zuElAKWMh1rnfo8yaWNJZPCh5ZWXJnWYSkOnKH3IHo4lCec3HxBMjKybVocRW3dEpn31qD+T5icxU+rTGazwmghJYu1i00B0gNSH2NqG9Ui3Cv4cMJjNwrYVA4+LWSUwSDvxGI86oWyRA+Ga06X5+4/R0i4OHCeG2rRs0F/IISIlMI2PRcWBycIYndgiaD6LDcJgrgbbMz0uCEbsIYkpDuc/tHdqCaZYo5KU1Gz31zySz/z1ne/4d4fbCynZsU+231KPiR//fF/9tHPf/RC+7poK6OlslCEhIJhUUQ5SE/qmjvleIjzpFh3jPI6lOR42cdFcMkMk54nPGKFmWm03/fKX3nDq94Y6aThpSvYoLX2+AuP/eJHfvZZdr5QpjCWKzWIsb6aIIgdkRbRqeFinCe//H/9o+9YepW+rHvDwfyp+WeTc7/8iQ/8x8/8tl9yeUsyUDDGxs5Jy4VX/RZmbbOXl1ZPXCybil7+t5cGsb/ayLqzJs5T6YeMGc9sJkMxHjI/Df+APFhXSGEz5KjVhg3VL/vPEerj4j6AlWX/7tP/4fvufV17ubV2LMPjrl/454998H8++T/O+ysiVW4oJbYPMS2zYTKIXAqGhxHTCjaVghE7Q/nCc+zBh7XGoXMu9lcxTjnRUkkzTt/+lnd969IrTzQX1YDxlPV59/fPPfbBT/76Vy58NW6nzkJqa9lNLegEQWwT7myb8Tm18BM/+v98933fE+UN2PmCOf+CeOEv/vCrYLv5/Z1u24NwSbRLLOSGTLjoWjrky43oWhSfixrflG6ur1+U2TZ3p5PhSTM76EgLwsUy7jPlc8lsxFUhQ2MQGiZ05rTOpQhLfICYAY0DwuUg3OeREy7//tMf+t57X9u61uwdL+CrufLc733tE1+5+uVLatlC2LqWDDUuhcqzpC91jF1diCmGhMuuKGtcXKVduBRKegnCBcp2DRE3ovjND//oy4//mWPxnBwwkbKB7H3h2h9/9Iu//Xx2MWomOneRaBhNnXMJYuc4k0IhIUvf9ld+5DtOf+ecW4B954bnep3ut7/hlbCNwiXOQbhw7ROLs3pA5jZoCPu8Z9/I2P8CmcP4LPMPMHaSiZd3+Ok0zu0m4cKMDP1pQum+FC5lP1yBPddIuNw1biVcPvT7H3nN2UfSK2m2iF9nrplr8eUuXy24zmze9rPKY41LJoZD1VO2FdnpmSOZuBkQ50m47JgbTUVhkKTgEhwaOErhfMRkxGUW82Ot+RnbweagmFlVrMrrX+8/DccqmRQFb/gmjq0kCGKHGJE5mffXeve0752xc3ONRdj5lctfLhaLP/9D3wHbxx85vdZ0yrkmChcXMnhxbaYoLgj75Br7rGXnGesw9lLG7meNly+YRTnb8y1fNftkSuaSD6BsMbTYSsRdN14Ov7BIKy49E95BavcWe+eScNlDbiVcPvz7v/3I2Vcnl6L8JB4WX0r8vOaRgeCxrJjVc0JjFYuLsl7UjX0c42AJYnqhGpddIXwBxS6cfQ4SCxecKYmTujheuHKoweWZgWKqbZsoXKDopnwm1oYikzwSLI6GaRIpJ6jGhSB2zJD3rw+unFUvqb5vInozZuL+jTfpnNnMOx29YJ7Nrv2/F/mTxreZ+7Ns4aEz0X3t61FXy0vVcbelOWy7CEcGGm5sqNJhB1H+OKo1Lpej7EQ47GpTzlsnrGEm8bylm9xgNuYjk0cF1rAdmeHiRxQSLrsChIvHbrmwiTUuIFyw/hg8GJTQIJ1Zdq0zhDLZjG0lWZiCQHib5IZjAY7bSOWR9MImJFwIYsc4oVez5ePydPV9E7cRLvPZYpy154rW8hcvXf6Di2JezL36xLGlhV6rKNr2OjtXHbdtvI89LyBzrb7vI0dPuDz+kb92z2vSK9FwEZ9aX260TyiD85XrWZ5g6bD0pRHLUyuZUcE3E1MLChcaOrZzfI5yBNu6OePCGRamueI4O4vFqpcrxwaG6Tkz0zAqzFrFcr/G44hzjh3eh4z1GDtZeR6CILbPMO8lzYgXOHCEF6AfbmRSpXCRj0ZmbFD0bH8+LTpzRbv3lWvLnz3PFpLZv3yyfXx2JRkMG0UvfqE67rbM9ObX2tfLbedTxnN2EPWmUytckLIgDZ7URamOs19dg28f+v8+/MqFV6SZ7KQoV/XF4eLSCe1tYXMjLedlHgYlSCyIO3C2DPvwHjjbyV335Eb3JAb4Q9S+llf/3gLOINFv6X/tymx234HwrZGAmnirYhv1WPqAXvU4Ex9nTwqVDsXaRCZkA5pNXuCpOekils1VW3eZ/XmxNQKed2Kkt0yDH4YUhGWCap5ayKTx1OCdXMbyNdaVTLSy9JSc965aOuOr4g+/9U3fBRsgXMo9wIaCOd5dTHi74Rru+X7x9LKciZsvnePNeFkMcjFcbt9oKqq6ugDcCshAYY+oNrjaUthwoB7W9cN+MtXCper6LJiPYh0Vv4Je4+c+/vMvbt83pztaYHYllm1rpm28gWDJTC5idAphESk0z7UXGi910AjsDlVt34rQxnU48DeSzQHDJwQfZxFY9SXgyq5s+852gvjwICfdalh4cQIaktrhYOLj2L1wjdtzJhM0hxGThUtqJgoXHEC7D+zPi60RYSxetX0rrNQcvUGYIgk/wU2F5YNAJ+AwPp/FZk0M0yJOu/FJPl+edbX/wtrc6v/9438LtjcLlxKQL5vzB/duVIzuPZOEJcfDNrQLfEqxJZsh4XI3ALWKTeqMKWWU+UcD2PVdP/FdrX56zHQ+NP9R+Pqmq28orBYKgsYP9FDFERxettyDeW7A8EoHTYjH1fat2JNhaXsSB3k50fthICS824G3ujUnOIBkiAT3VBsmZkjbeRZzaB54v/LXbaSLSQ7HbqPGJXaTLrINWbknkHAZAVTLxN4HDgQuOHz4L7h90C7olVC44I+QYw8j2xPmf//cZ8KeLfA/i5/+C+HLXYD/PAmXu4lwQnj4wPWi0IlCrv4BTMyn/+ZS3JMzpvm/7nkKvi71judFLpWy3GmneSytQFVruXdVZ+lD8U5QuFSbt2RPOnfvyVTBkZskF/aNSRIKo/7WdFdOp73/wF1M9GiHh4kZ0nbcmROH5YH3KX+1M9XGbZgktcvi7+3hky5i5T7NWUzCZYTtCBc4asMrYQUN5GBBx4CICds8V6xgVvzsTTw+CZd6oyx2zgUVYqQLq7ox9l7c3/jxeJa1ooF47vg1+JoaiVNQSJUXmkfcSmeUQY0ApRrwDzfiz0GzndvYC+GynTLhZPbkTvaEie8NDhg5Zi8qrnYDRNGD+tO7YGIQbyfG7klk2xMmPs6eBM129PxEH7ydi0x8sfsW0/bnxU4lEBM2IgO8xmAyTINrI2Y1hnJsW428OVQrcMix7EyX9fNPXIFt+zYeF6M1c5vXMCq3JjZajcvow9NUdLQiThRFSZI4XwWhNTaUsFG9bSlqH0BY3DFlHnyHNmWMPN1NjbgbjLzkmxqxC0be4U2NmD5CsN4IW8jBLAqbDd2gCy02qjC3yotxpiDXn84al8gKMCOdli4s1s3YL4Qf3s5Odk8IL2OVDAbDYZ7ZyKYn0pznA98NRyBCSRdbVsiJbQ37x6TAATF+59iqJfWOwAX3Dgl+4ooNfr3x+IBxgvu70XQyNipyW0y8kT15Z+N/ZRcvYC/yaT7pInvSisfHakvWC1CbmPSHkm28+XxyN5htuLXxd7KLlzDxbsez0F383b2IA4cHboTHxqFQ918+u2UiZ259KFhrLWV95vtMzbi+LxoR5HdJ4pvXmz370dAB/FHwahOCGEJmFzUuh4SpbSqKLIsct8Kj9tgqXL71mw+7HH6Tly9fXVlZ4U12+lvOyBnxdOeJcARyuri3K1Z9zpP96n5/eyCERlynGNfUdg8i2Z708OCHZnjMxM42nAuw6sv+4rbenIc3fxe61+wiQL3HCuDqyy2QeyFcvNriW7fzd8cRYg+KFvvTFSNiq9XWOvYmaXaC6JdbB8HdFCMndc511VCU2zDyYncXOhPjCc6ztZXxAB1JKePsSRzYH7CTSrV5S0TGPXc4CZk0nms4R2rZ9u3nTp8vD3jZCw+tPde99NTluWOiNc+arY6MUx5HT544XwqX9AdZPumdkHA5jAThgiOEdVlpAk/2i+GHt7OX/OGDV85fLQZ6eHXA+i55sH3m4bN8hn397FfDEcjJy6cHSZ8XPHKHYmQvhNBIJBNyNMWPtD7uDm527JvGMRMLsPuFHHtLIzjH1xfo2G9G7s068M97IQe2Mh5PJgJaZ+Jg5j0RLsXW8vh2/u448N6qrTtgF/nrLkhctWbdBjcpfkwexji5OsVOmhPM+na1dWtGXuzuQmcXL3Y8QCd6tj2JA/tDGCVUbd+KGGdxt0YWIECdKMD9pz5t6OY3XlxNbvvyr73s2lPXr/zpNV9APseOneYL95xqLMx89f6vl8IleiPoXxIuNQRUyw3hAtEenqwULox1Fjvdc11c9xICBR79hJx7xXHdyPuf31oeeiQUfia6kf0B7n9i4BwWtQCps/r34NmOQzuoWL8/znYXTwc3NjEu7UlkG8mCt/N3x9mTwvbEsNiTKD2eC9ylNLsnUXrkxe4udCaeMn6r4wE6MffckziwP8ALmfROEtdy3GpVoO4LmReo2aZJ7e9U0XTmzTPD53PMxYaM9RlrMX6SLTy4sPaxZfNafFniUeapqaiOKBAuHuW8FkG4AGFUEXB26fSFZy75jLkMq+3UTHTy25dAuFz+wsXqCEgIf07athUQbQ5HwEEMG41k4ze2F6E3sc58O+xJ8XRvmPw4cK8HdLujxUQIv7twJzuv3sdTJp61F/EEF8jfzHb+7jh7UdG4m/x150TFaD3Hzf7shKKS2VbL5qTylhyt+7kJIy92d6Gzixc7HqATK1T2JA7sC2E8c7V9K5qmicIlyrWsurkIzWZta/jxGxMYtl7Zuvb0cjqIfW5lJxZLjWMvO3H540+VwsW+hamChEsNkU5ILxz3BtRH2a74vvDD29krvvSKS8uXBsNBflHbNdc+27rv2+5XbfknS18MRyCnL53qtVYjEfHJYbsfQAiN9HGxdtQ37cmsGPFePG++TyWgyW6UTxSeXk4smtwlRnqfoIOa7OUnHYG/b7nsLvoljN3aTdiTXkx2NARH/66PMcfiWkY6LCLBvYuwSQ2OS1iCOzXLlDUmUxLC2jiv4T3aoPJxojYOJsRYA804k9/rHiQLpuxoV3Epx9t9JmTS4+2w40E8sU3HjTVI+bF+wmOXnRwrxpkYT8b9zfjjTPzDu4rkB0OZF20GV/ja+oDgCjw2YlvInOF46WRi06ZtPfVinHus5MR/OXHlq1dEl4sWT880G2fmO/Ozzz3wRNlUZH+YiUnTO8Irm/zWJiaMA2JqhQt3SvjI48pvFmUjPNkvhR/ezh68/LKuWhmK/tqVnl/zkYtO3Xs6bTSenLnRx2W+P7faXAHdso2J3w4Gf3dmpseFfu8Yv09VLkGS3iGYIx3SIL4JEwtA9XqcSdgWemExiJvDMHUbBHfbaquds2nRbA7asohW04yzvNkE5TIobBc0cy5wTl7NUyZS0C7SjHaJPTyArKq2ts+45hhzBZzvuGeer083kWkDdNlW4WLiHDQF1vc7GeskMklsksQ1nj/5zeoIxtqfO967cC0SbG6JXTs504w7bZ1cn32uEi4/NFEA1xsQLtPj5raJk44lXnVU+3Rz5iWdztkZrfTQ4YIAG1iF3f2NQadwOK260b1m5K/szqprEcQdAk4YzDurhmBOZrxwbM2wr7nsj/vdP1jpfXat+Nw19jzoF8mHstA8C63DuG4XZPC+YPZQLJJ6K6DQuGO2kdyqI3dCdSax/1QhcAPsBuAg1uMvllsjdMaHA3Fjhc6Fi0vxomw/NH/sodmZpfl4puHiLcOfD0kPh7vK0apxmX17xw/8WrOKBGeu37uaXNeNzBhnY3dscMxrvzK70mKNfjLEkWh45mHkLt2Y30b14UQ4DkDfB6jGZYzpqnFRoSHBCu3DxBbKiqZvZk/pwRdy9hxjlwX3iZ8bth5SCw8tujN8tdMbtIcGxA4kDxemz7ZyUlv/QbKb6DtW4zLuCvzOZ5+6K96E2AbjcQDXKoJkjD9w7rhgknvOLS4WAGEtuIwNU9pfTcFbp3O2PWhcCOfBKS39MZxFN/4BNjwUw2HvFkexxmUz1uLMuVKpOMG8tqwvne/OY2wKvXqDAj6MhNvfe6qr3xnVtQhir4miyGSWrTEcFaidz4YsZ/2uGQyHUqo0SaU8xDpljCrB3BnVtTZR/bATqjOJ/acKgRtg7uOZw87QGDDwgW1JKC2rYFJKRpHCCRWk3FAtR40jLVxc5GxsdVxkOFye9aK+bTrTMEOfl22EGIsOpd0lRv7K7owg9oRm3gADj42Ls4Cj9i7pSvEMY99g7AqbzxfnzWJrhUfnGHvGyrXY5ZE2uKouennOFByPa7ocXjBn2jFb0hrYONWBO6E6k9h34NVXYbBO2UgAP0CwOOaMMLnM8yTPm3neGg5bvW7UXQPlLjKWVhcp2aiAjqmpqKbcvqko9vHV1nX4urB8arV9TXdCQ7hkvM8jgz3/tSp84nFQ4RGIAXvPPq2TQE1FY0xXU9Hx/jFrzerMim/hdHWLa83OpblzH3khej6JctnptCGd67WV69yoF7Gz3/egfal8Lrng4h68KOFZolli2Uqt6mAmMzEOAIdnoRJi58hSkULODF+CBB8xqVms1bDFmW/G+Y3emVyn5ndx4ZrO69jKoZjy/W5x1JuKCII4tIQacnDV5TZ+drtdZ3HCWSVVp9NZXFxUQgmBy10MBoOiyMc7fBAEMX0caeEibMTK3tjwGrBTi3fYHQqUrMS6ljsuzxMEsWus5CxSWItkmXIivt7pPlHEV5OYxb5t2Z8Zyu/SPpkxnNkBWzm/4q7rOdOIdSwMpmsjZDZl1S3EEaBsA9z4UpkLBrmSxY7nuAQjDh7Z0lMbU0rgEE0Betc40sJF2UQ68HGgWcodXDgJJrFRXZbdXAiCOBCGwugouCgQLoNYPyfcU6kYqIg3Bgv9ay+/eP4VT2fzTZzv0LDsap+vFsfyuJ3FzSIWLtUizaKprjEnphHHPUiQMkfiOKELF1ZII6VGU4UCSa4qQQMZ1Ww4EHHrE58f5pF0e8WRFi7cC45xJCjVKiqEUWewH9QMVTsTxMFRmMIJX87DrAfu6rNXXRecuoiTuLGQqFNxN2UzSwssCgWPAVu7umIHhQIvj0URSL+CcapxIWoM5ECQQwkngkGJWqFhthVyqyrTqtjY2pPFzA85R1q4CIgBDK36ji3paLjfyxtVbwRB7DvOauxkG2ZztkPvLmuVJYyrOEkbiw21JIct1gHh0ohxvUbDBstF0R1GuNyHxPQLqmXS4v4EcehAtVJtYpbkBeRHwksJwgVNha/lrxtVM4H1sw7HQjV3lykdVYRLQnBXjjqBx4J/34+bc3/vuO+zBmtenH0Ovp69+EDWHLim6UarOtF4WGhHVFrGpqFlgUt0EgRx9+GcjyyyY5uOpUxcbc1ePWmfVGuf+CbLFOfRiaXFU2dm5k+mXLr+ubknvviVYZYVboW9xB1/9TH7LUW/M9DWsQgSfoNlw+pyBDEVcIWTQkshG3mrZTvLzcvl/mZ3pvvYNdiwb95cETOFHMFRReVIs6r3iufeefBwDtUbhPR6YIfNTT2kCILYfwxjayzNZTz0+YVrLDM8N344uHrx/JNPfe1zX/yTz/7xl574+pd6w+tcFIoLueb9ctEYRJ0ilVDqxOkMKAkTU8d6VjWSSR2pDGtahQsU3TaV3tY3MWhxfPx6AAsPqsW68XVqq38JgjgoFJQvhqxplOrp/Pllpr3gIo6UZHrQG6xdGXSv5qurl3DZ5SRUr/SYvmKiNd4qkshJbjk31MGemF4wl9skXI5StjW1NS7Yp2lMgDphLVo1isxEWvPCeO3KVd3h+OoU78VezG9GEMRu6XSbszo91mvw53rRFdeyLM7yhZZaeKAz+2AreoWM/pxqv0odfzhuLflY8jRn8bM+elbNXOkc66etTDQMzSBJTBvlZEWQO3kodW9aUNGv52uj5fBpZDqFC65KhUtShadDWRr2MmalsVIbWQVwEedaFAZHw4daGFAvQbvAf45bXNiNIIgDYtBziZrNMvP8Cyvas0HMxEk2/8r5M69+YPG190SvO6Fefyx6xLb+coO/IspPsGEsrnf18nKeDcGjK8v8ZrdOENMBChfMmrgTzoQVGUvMRmwn4TL1oFBBqq8EQRwS8jzjnBeFZj2cdMuHpTviJG62mkCSJHEcdzrt2ZnZdqcNX+BXX7giL6y1VXPweomFIIhpYjpHFYkwJNLxUJMG2mz9ySIXRT4SWvYiXNOhoRtMMS+94dpyi+1F4WXgnD8ePlw1LokgiH0n0jPgnfh5rZ/I1CURi8h32ImXn+IPtK7JtW6yxmaMGPbn+vPycpJ9yerzhUucuUfzMyK6X7qOLvQQJxsliOkiTNiB06Vy5VUem6SAT8jsHBhmW266mwv8j+FSTlMoXMrx7o5bK005ExXCIby5coobnBXXKgP7cT0U5o0D1YJDqEsg0HEv2PS8EoKoGwWuOCeLxHVZ6pqd5kw/H7omHzYyJoYsKcrVcRPTivstebHJTGRj02uu+HTA4hxnroPET/1ziekCJIsshwODdpHc32ggKrMwzNGnu5F0eodDo+ioNjeD459RjQZNqrAHLhhoGFRvZWfccBb+uz6hLkEQB4KKWBRxlXo1y9kcy9qFWFQ21UwUIgqFkQH2S/NaW5v7RsHnCn68iI5Z1mYs4tyxKCfVQkwd65kTZGfWQV5mS8NaiCoDm/6sa0qFS5gAt9wIn+HfYBvaxXJrUcFgWxJWu8Bn+BdPINVCEAeN5ExCkUIWrGWLju01sq5YK6JMxi5STsERhrGcuaLwTPOWYTNFlq4Uco2pnCkvPYs0JWNi2ghxuozYHrMzKHsHW5+fbCPvm2amVbggN8IP/g0WpGpV44LalIeBRDipslA4OzgGOXVrIYjDQKqxOUg45iJt056LeizGNiDl8nhgjnXZ2Zx1hqxd8IazQg6y6GqR9FkcCiGWNTSbL6LqWgQxRYSMja8Xwst8DTI0nKVs/dcpZzqFCwSnEQb724bQDEuBc5yQyoJUKQMdd4a5NXG0ApTrQMjAocECJF8I4kDJBJr2zOaMDRwbaEy81mvDBpatcdaNmFG8UDyTduDzDKfW5VxzXnCmeSF4v0HJmJg2QK9A1oaSpcyl4CMYfEAuBvvh13DgNDOdnXPHkWJUollH7d8EUW/G0/UIlMwJYso4gmsVEQRBEARRY0i4EARBEARRG0i4EARBEARRG0i4EARBEARRG46KcLHOjVj1A0EQtWUkUY9bdRxBEFME1bgQBEEQBFEbSLgQBEEQBFEbSLgQBEEQBFEbSLgQBEEQBFEbSLgQBEEQBFEbSLgQBEEQBFEbSLgQBEEQBFEbSLgQBEEQBFEbSLgQBEEQBFEbSLgQBEEQBFEbSLgQBEEQBFEbSLgQBEEQBFEbSLgQBEEQBFEbSLgQBEEQBFEbSLgQBEEQBFEbuPe+2iQIgiAIgjjMMPb/AzKhQaKer1uEAAAAAElFTkSuQmCC;" vertex="1" parent="1">
          <mxGeometry width="744" height="520" as="geometry" />
        </mxCell>
        <mxCell id="QxVZlHa8dsObsXTahdKc-7" value="" style="rounded=0;whiteSpace=wrap;html=1;fillStyle=dashed;fillColor=#FFFF00;strokeColor=none;" vertex="1" parent="1">
          <mxGeometry x="373" y="64" width="124" height="395" as="geometry" />
        </mxCell>
        <mxCell id="QxVZlHa8dsObsXTahdKc-3" value="&lt;b style=&quot;font-size: 16px;&quot;&gt;X&lt;/b&gt;" style="text;html=1;strokeColor=none;fillColor=none;align=center;verticalAlign=middle;whiteSpace=wrap;rounded=0;strokeWidth=1;fontSize=16;" vertex="1" parent="1">
          <mxGeometry x="400" y="430" width="60" height="30" as="geometry" />
        </mxCell>
        <mxCell id="QxVZlHa8dsObsXTahdKc-4" value="" style="endArrow=none;html=1;rounded=0;strokeColor=#FFFFFF;strokeWidth=6;" edge="1" parent="1">
          <mxGeometry width="50" height="50" relative="1" as="geometry">
            <mxPoint x="500" y="460" as="sourcePoint" />
            <mxPoint x="500" y="62" as="targetPoint" />
          </mxGeometry>
        </mxCell>
        <mxCell id="QxVZlHa8dsObsXTahdKc-2" value="" style="endArrow=baseDash;startArrow=baseDash;html=1;rounded=0;startFill=0;endFill=0;strokeWidth=2;" edge="1" parent="1">
          <mxGeometry width="50" height="50" relative="1" as="geometry">
            <mxPoint x="372" y="455" as="sourcePoint" />
            <mxPoint x="500" y="455" as="targetPoint" />
          </mxGeometry>
        </mxCell>
        <mxCell id="QxVZlHa8dsObsXTahdKc-10" value="" style="endArrow=baseDash;startArrow=baseDash;html=1;rounded=0;startFill=0;endFill=0;strokeWidth=2;" edge="1" parent="1">
          <mxGeometry width="50" height="50" relative="1" as="geometry">
            <mxPoint x="365" y="57" as="sourcePoint" />
            <mxPoint x="365" y="159" as="targetPoint" />
          </mxGeometry>
        </mxCell>
        <mxCell id="QxVZlHa8dsObsXTahdKc-11" value="" style="endArrow=baseDash;startArrow=baseDash;html=1;rounded=0;startFill=0;endFill=0;strokeWidth=2;" edge="1" parent="1">
          <mxGeometry width="50" height="50" relative="1" as="geometry">
            <mxPoint x="365" y="159" as="sourcePoint" />
            <mxPoint x="365" y="261" as="targetPoint" />
          </mxGeometry>
        </mxCell>
        <mxCell id="QxVZlHa8dsObsXTahdKc-12" value="" style="endArrow=baseDash;startArrow=baseDash;html=1;rounded=0;startFill=0;endFill=0;strokeWidth=2;" edge="1" parent="1">
          <mxGeometry width="50" height="50" relative="1" as="geometry">
            <mxPoint x="365" y="261" as="sourcePoint" />
            <mxPoint x="365" y="363" as="targetPoint" />
          </mxGeometry>
        </mxCell>
        <mxCell id="QxVZlHa8dsObsXTahdKc-13" value="" style="endArrow=baseDash;startArrow=baseDash;html=1;rounded=0;startFill=0;endFill=0;strokeWidth=2;" edge="1" parent="1">
          <mxGeometry width="50" height="50" relative="1" as="geometry">
            <mxPoint x="365" y="363" as="sourcePoint" />
            <mxPoint x="365" y="465" as="targetPoint" />
          </mxGeometry>
        </mxCell>
        <mxCell id="QxVZlHa8dsObsXTahdKc-15" value="&lt;div&gt;&lt;b&gt;B/4&lt;/b&gt;&lt;/div&gt;" style="text;html=1;strokeColor=none;fillColor=none;align=center;verticalAlign=middle;whiteSpace=wrap;rounded=0;strokeWidth=1;fontSize=16;" vertex="1" parent="1">
          <mxGeometry x="313" y="400" width="60" height="30" as="geometry" />
        </mxCell>
        <mxCell id="QxVZlHa8dsObsXTahdKc-16" value="&lt;div&gt;&lt;b&gt;B/4&lt;/b&gt;&lt;/div&gt;" style="text;html=1;strokeColor=none;fillColor=none;align=center;verticalAlign=middle;whiteSpace=wrap;rounded=0;strokeWidth=1;fontSize=16;" vertex="1" parent="1">
          <mxGeometry x="313" y="300" width="60" height="30" as="geometry" />
        </mxCell>
        <mxCell id="QxVZlHa8dsObsXTahdKc-17" value="&lt;div&gt;&lt;b&gt;B/4&lt;/b&gt;&lt;/div&gt;" style="text;html=1;strokeColor=none;fillColor=none;align=center;verticalAlign=middle;whiteSpace=wrap;rounded=0;strokeWidth=1;fontSize=16;" vertex="1" parent="1">
          <mxGeometry x="313" y="180" width="60" height="30" as="geometry" />
        </mxCell>
        <mxCell id="QxVZlHa8dsObsXTahdKc-18" value="&lt;div&gt;&lt;b&gt;B/4&lt;/b&gt;&lt;/div&gt;" style="text;html=1;strokeColor=none;fillColor=none;align=center;verticalAlign=middle;whiteSpace=wrap;rounded=0;strokeWidth=1;fontSize=16;" vertex="1" parent="1">
          <mxGeometry x="313" y="110" width="60" height="30" as="geometry" />
        </mxCell>
        <mxCell id="QxVZlHa8dsObsXTahdKc-21" value="" style="rounded=0;whiteSpace=wrap;html=1;fillColor=#dae8fc;strokeColor=#6c8ebf;" vertex="1" parent="1">
          <mxGeometry x="424" y="355" width="25" height="20" as="geometry" />
        </mxCell>
        <mxCell id="QxVZlHa8dsObsXTahdKc-25" value="" style="rounded=0;whiteSpace=wrap;html=1;fillColor=#f8cecc;strokeColor=#b85450;" vertex="1" parent="1">
          <mxGeometry x="390.5" y="355" width="25" height="20" as="geometry" />
        </mxCell>
        <mxCell id="QxVZlHa8dsObsXTahdKc-28" value="" style="endArrow=baseDash;startArrow=baseDash;html=1;rounded=0;startFill=0;endFill=0;strokeWidth=2;" edge="1" parent="1">
          <mxGeometry width="50" height="50" relative="1" as="geometry">
            <mxPoint x="372" y="390" as="sourcePoint" />
            <mxPoint x="404" y="390" as="targetPoint" />
          </mxGeometry>
        </mxCell>
        <mxCell id="QxVZlHa8dsObsXTahdKc-35" value="" style="endArrow=baseDash;startArrow=baseDash;html=1;rounded=0;startFill=0;endFill=0;strokeWidth=2;" edge="1" parent="1">
          <mxGeometry width="50" height="50" relative="1" as="geometry">
            <mxPoint x="404" y="390" as="sourcePoint" />
            <mxPoint x="436" y="390" as="targetPoint" />
          </mxGeometry>
        </mxCell>
        <mxCell id="QxVZlHa8dsObsXTahdKc-36" value="" style="endArrow=baseDash;startArrow=baseDash;html=1;rounded=0;startFill=0;endFill=0;strokeWidth=2;" edge="1" parent="1">
          <mxGeometry width="50" height="50" relative="1" as="geometry">
            <mxPoint x="436" y="390" as="sourcePoint" />
            <mxPoint x="468" y="390" as="targetPoint" />
          </mxGeometry>
        </mxCell>
        <mxCell id="QxVZlHa8dsObsXTahdKc-37" value="" style="endArrow=baseDash;startArrow=baseDash;html=1;rounded=0;startFill=0;endFill=0;strokeWidth=2;" edge="1" parent="1">
          <mxGeometry width="50" height="50" relative="1" as="geometry">
            <mxPoint x="468" y="390" as="sourcePoint" />
            <mxPoint x="500" y="390" as="targetPoint" />
          </mxGeometry>
        </mxCell>
        <mxCell id="QxVZlHa8dsObsXTahdKc-38" value="&lt;b style=&quot;font-size: 12px;&quot;&gt;&lt;span style=&quot;&quot;&gt;X&lt;/span&gt;/4&lt;/b&gt;" style="text;html=1;strokeColor=none;fillColor=none;align=center;verticalAlign=middle;whiteSpace=wrap;rounded=0;strokeWidth=1;fontSize=16;" vertex="1" parent="1">
          <mxGeometry x="359" y="383" width="60" height="30" as="geometry" />
        </mxCell>
        <mxCell id="QxVZlHa8dsObsXTahdKc-39" value="&lt;b style=&quot;font-size: 12px;&quot;&gt;&lt;span style=&quot;&quot;&gt;X&lt;/span&gt;/4&lt;/b&gt;" style="text;html=1;strokeColor=none;fillColor=none;align=center;verticalAlign=middle;whiteSpace=wrap;rounded=0;strokeWidth=1;fontSize=16;" vertex="1" parent="1">
          <mxGeometry x="389" y="384" width="60" height="30" as="geometry" />
        </mxCell>
        <mxCell id="QxVZlHa8dsObsXTahdKc-40" value="&lt;b style=&quot;font-size: 12px;&quot;&gt;&lt;span style=&quot;&quot;&gt;X&lt;/span&gt;/4&lt;/b&gt;" style="text;html=1;strokeColor=none;fillColor=none;align=center;verticalAlign=middle;whiteSpace=wrap;rounded=0;strokeWidth=1;fontSize=16;" vertex="1" parent="1">
          <mxGeometry x="422" y="383" width="60" height="30" as="geometry" />
        </mxCell>
        <mxCell id="QxVZlHa8dsObsXTahdKc-41" value="&lt;b style=&quot;font-size: 12px;&quot;&gt;&lt;span style=&quot;&quot;&gt;X&lt;/span&gt;/4&lt;/b&gt;" style="text;html=1;strokeColor=none;fillColor=none;align=center;verticalAlign=middle;whiteSpace=wrap;rounded=0;strokeWidth=1;fontSize=16;" vertex="1" parent="1">
          <mxGeometry x="453" y="382" width="60" height="30" as="geometry" />
        </mxCell>
        <mxCell id="QxVZlHa8dsObsXTahdKc-42" value="" style="rounded=0;whiteSpace=wrap;html=1;fillColor=#dae8fc;strokeColor=#6c8ebf;" vertex="1" parent="1">
          <mxGeometry x="420.5" y="166.5" width="25" height="20" as="geometry" />
        </mxCell>
        <mxCell id="QxVZlHa8dsObsXTahdKc-43" value="" style="rounded=0;whiteSpace=wrap;html=1;fillColor=#f8cecc;strokeColor=#b85450;" vertex="1" parent="1">
          <mxGeometry x="390" y="251" width="25" height="20" as="geometry" />
        </mxCell>
        <mxCell id="QxVZlHa8dsObsXTahdKc-44" value="" style="rounded=0;whiteSpace=wrap;html=1;fillColor=#f8cecc;strokeColor=#b85450;" vertex="1" parent="1">
          <mxGeometry x="453" y="250" width="25" height="20" as="geometry" />
        </mxCell>
      </root>
    </mxGraphModel>
  </diagram>
</mxfile>
